<?xml version="1.0" encoding="UTF-8" standalone="no"?>
<svg width="699.558mm" height="25.4mm"
 xmlns="http://www.w3.org/2000/svg" xmlns:xlink="http://www.w3.org/1999/xlink"  version="1.2" baseProfile="tiny">
<title>Qt SVG Document</title>
<desc>Generated with Qt</desc>
<defs>
</defs>
<g fill="none" stroke="black" stroke-width="1" fill-rule="evenodd" stroke-linecap="square" stroke-linejoin="bevel" >

<g fill="none" stroke="#000000" stroke-opacity="1" stroke-width="1" stroke-linecap="square" stroke-linejoin="bevel" transform="matrix(1,0,0,1,0,0)"
font-family="Ubuntu" font-size="11" font-weight="400" font-style="normal" 
>
</g>

<g fill="none" stroke="#000000" stroke-opacity="1" stroke-width="1" stroke-linecap="square" stroke-linejoin="bevel" transform="matrix(1,0,0,1,0,0)"
font-family="Ubuntu" font-size="11" font-weight="400" font-style="normal" 
>
</g>

<g fill="none" stroke="#000000" stroke-opacity="1" stroke-width="1" stroke-linecap="square" stroke-linejoin="bevel" transform="matrix(1.99955,0,0,1.99955,0,71.9839)"
font-family="Ubuntu" font-size="11" font-weight="400" font-style="normal" 
>
</g>

<g fill="#ffffff" fill-opacity="1" stroke="none" transform="matrix(1.99955,0,0,1.99955,0,71.9839)"
font-family="Ubuntu" font-size="11" font-weight="400" font-style="normal" 
>
<rect x="0" y="-36" width="991.722" height="36"/>
</g>

<g fill="none" stroke="#000000" stroke-opacity="1" stroke-width="1" stroke-linecap="square" stroke-linejoin="bevel" transform="matrix(1.99955,0,0,1.99955,0,71.9839)"
font-family="Ubuntu" font-size="11" font-weight="400" font-style="normal" 
>
</g>

<g fill="none" stroke="#000000" stroke-opacity="1" stroke-width="1" stroke-linecap="square" stroke-linejoin="bevel" transform="matrix(1.99955,0,0,1.99955,0,71.9839)"
font-family="Ubuntu" font-size="11" font-weight="400" font-style="normal" 
>
</g>

<g fill="none" stroke="#000000" stroke-opacity="1" stroke-width="1" stroke-linecap="square" stroke-linejoin="bevel" transform="matrix(1.99955,0,0,1.99955,0,71.9839)"
font-family="Ubuntu" font-size="11" font-weight="400" font-style="normal" 
>
</g>

<g fill="none" stroke="#000000" stroke-opacity="1" stroke-width="1" stroke-linecap="square" stroke-linejoin="bevel" transform="matrix(1.99955,0,0,1.99955,0,71.9839)"
font-family="Ubuntu" font-size="11" font-weight="400" font-style="normal" 
>
</g>

<g fill="none" stroke="#000000" stroke-opacity="1" stroke-width="1" stroke-linecap="square" stroke-linejoin="round" transform="matrix(1.99955,0,0,1.99955,0,71.9839)"
font-family="Ubuntu" font-size="11" font-weight="400" font-style="normal" 
>
<rect x="448.658" y="-35.5" width="84.0032" height="35"/>
</g>

<g fill="none" stroke="#000000" stroke-opacity="1" stroke-width="1" stroke-linecap="square" stroke-linejoin="bevel" transform="matrix(1.99955,0,0,1.99955,0,71.9839)"
font-family="Ubuntu" font-size="11" font-weight="400" font-style="normal" 
>
</g>

<g fill="none" stroke="#000000" stroke-opacity="1" stroke-width="1" stroke-linecap="square" stroke-linejoin="bevel" transform="matrix(1.99955,0,0,1.99955,928.081,21.9951)"
font-family="Ubuntu" font-size="11" font-weight="400" font-style="normal" 
>
</g>

<g fill="none" stroke="#000000" stroke-opacity="1" stroke-width="1" stroke-linecap="square" stroke-linejoin="bevel" transform="matrix(1.99955,0,0,1.99955,928.081,21.9951)"
font-family="sans" font-size="11" font-weight="100" font-style="normal" 
>
</g>

<g fill="#000000" fill-opacity="1" stroke="#000000" stroke-opacity="1" stroke-width="1" stroke-linecap="square" stroke-linejoin="round" transform="matrix(1.99955,0,0,1.99955,928.081,21.9951)"
font-family="sans" font-size="11" font-weight="100" font-style="normal" 
>
<path vector-effect="none" fill-rule="nonzero" d="M2.79688,2.98438 L3.70313,2.98438 L0.90625,12.0156 L0,12.0156 L2.79688,2.98438 M9.0625,8 C9.0625,7.27083 8.91146,6.70052 8.60938,6.28906 C8.30729,5.8776 7.89583,5.67188 7.375,5.67188 C6.85417,5.67188 6.44531,5.8776 6.14844,6.28906 C5.85156,6.70052 5.70313,7.27083 5.70313,8 C5.70313,8.72917 5.85156,9.29948 6.14844,9.71094 C6.44531,10.1224 6.85417,10.3281 7.375,10.3281 C7.89583,10.3281 8.30729,10.1224 8.60938,9.71094 C8.91146,9.29948 9.0625,8.72917 9.0625,8 M5.70313,5.89063 C5.90104,5.53646 6.15885,5.27344 6.47656,5.10156 C6.79427,4.92969 7.17708,4.84375 7.625,4.84375 C8.35417,4.84375 8.94531,5.13281 9.39844,5.71094 C9.85156,6.28906 10.0781,7.05208 10.0781,8 C10.0781,8.94792 9.85156,9.71094 9.39844,10.2891 C8.94531,10.8672 8.35417,11.1563 7.625,11.1563 C7.17708,11.1563 6.79427,11.0703 6.47656,10.8984 C6.15885,10.7266 5.90104,10.4583 5.70313,10.0938 L5.70313,11 L4.70313,11 L4.70313,2.64063 L5.70313,2.64063 L5.70313,5.89063 M11.7031,4.98438 L12.7031,4.98438 L12.7031,11 L11.7031,11 L11.7031,4.98438 M11.7031,2.64063 L12.7031,2.64063 L12.7031,3.89063 L11.7031,3.89063 L11.7031,2.64063 M17.0938,5.67188 C16.5625,5.67188 16.1432,5.88021 15.8359,6.29688 C15.5286,6.71354 15.375,7.28125 15.375,8 C15.375,8.71875 15.526,9.28385 15.8281,9.69531 C16.1302,10.1068 16.5521,10.3125 17.0938,10.3125 C17.6146,10.3125 18.0286,10.1068 18.3359,9.69531 C18.6432,9.28385 18.7969,8.71875 18.7969,8 C18.7969,7.28125 18.6432,6.71354 18.3359,6.29688 C18.0286,5.88021 17.6146,5.67188 17.0938,5.67188 M17.0938,4.84375 C17.9479,4.84375 18.6198,5.1224 19.1094,5.67969 C19.599,6.23698 19.8438,7.01042 19.8438,8 C19.8438,8.97917 19.599,9.75 19.1094,10.3125 C18.6198,10.875 17.9479,11.1563 17.0938,11.1563 C16.2292,11.1563 15.5521,10.875 15.0625,10.3125 C14.5729,9.75 14.3281,8.97917 14.3281,8 C14.3281,7.01042 14.5729,6.23698 15.0625,5.67969 C15.5521,5.1224 16.2292,4.84375 17.0938,4.84375 M26.0469,12.8281 L26.0469,13.5938 L20.3281,13.5938 L20.3281,12.8281 L26.0469,12.8281 M27.9531,3.28125 L27.9531,4.98438 L29.9844,4.98438 L29.9844,5.75 L27.9531,5.75 L27.9531,9.01563 C27.9531,9.50521 28.0208,9.82031 28.1563,9.96094 C28.2917,10.1016 28.5625,10.1719 28.9688,10.1719 L29.9844,10.1719 L29.9844,11 L28.9688,11 C28.2083,11 27.6823,10.8568 27.3906,10.5703 C27.099,10.2839 26.9531,9.76563 26.9531,9.01563 L26.9531,5.75 L26.2344,5.75 L26.2344,4.98438 L26.9531,4.98438 L26.9531,3.28125 L27.9531,3.28125 M33.625,5.67188 C33.0938,5.67188 32.6745,5.88021 32.3672,6.29688 C32.0599,6.71354 31.9063,7.28125 31.9063,8 C31.9063,8.71875 32.0573,9.28385 32.3594,9.69531 C32.6615,10.1068 33.0833,10.3125 33.625,10.3125 C34.1458,10.3125 34.5599,10.1068 34.8672,9.69531 C35.1745,9.28385 35.3281,8.71875 35.3281,8 C35.3281,7.28125 35.1745,6.71354 34.8672,6.29688 C34.5599,5.88021 34.1458,5.67188 33.625,5.67188 M33.625,4.84375 C34.4792,4.84375 35.151,5.1224 35.6406,5.67969 C36.1302,6.23698 36.375,7.01042 36.375,8 C36.375,8.97917 36.1302,9.75 35.6406,10.3125 C35.151,10.875 34.4792,11.1563 33.625,11.1563 C32.7604,11.1563 32.0833,10.875 31.5938,10.3125 C31.1042,9.75 30.8594,8.97917 30.8594,8 C30.8594,7.01042 31.1042,6.23698 31.5938,5.67969 C32.0833,5.1224 32.7604,4.84375 33.625,4.84375 M38.9688,10.0938 L38.9688,13.2813 L37.9688,13.2813 L37.9688,4.98438 L38.9688,4.98438 L38.9688,5.89063 C39.1667,5.53646 39.4245,5.27344 39.7422,5.10156 C40.0599,4.92969 40.4427,4.84375 40.8906,4.84375 C41.6198,4.84375 42.2109,5.13281 42.6641,5.71094 C43.1172,6.28906 43.3438,7.05208 43.3438,8 C43.3438,8.94792 43.1172,9.71094 42.6641,10.2891 C42.2109,10.8672 41.6198,11.1563 40.8906,11.1563 C40.4427,11.1563 40.0599,11.0703 39.7422,10.8984 C39.4245,10.7266 39.1667,10.4583 38.9688,10.0938 M42.3281,8 C42.3281,7.27083 42.1771,6.70052 41.875,6.28906 C41.5729,5.8776 41.1615,5.67188 40.6406,5.67188 C40.1198,5.67188 39.7109,5.8776 39.4141,6.28906 C39.1172,6.70052 38.9688,7.27083 38.9688,8 C38.9688,8.72917 39.1172,9.29948 39.4141,9.71094 C39.7109,10.1224 40.1198,10.3281 40.6406,10.3281 C41.1615,10.3281 41.5729,10.1224 41.875,9.71094 C42.1771,9.29948 42.3281,8.72917 42.3281,8 M44.9688,4.98438 L45.9688,4.98438 L45.9688,11 L44.9688,11 L44.9688,4.98438 M44.9688,2.64063 L45.9688,2.64063 L45.9688,3.89063 L44.9688,3.89063 L44.9688,2.64063 M52.3438,5.21875 L52.3438,6.14063 C52.0729,5.98438 51.7969,5.86719 51.5156,5.78906 C51.2344,5.71094 50.9479,5.67188 50.6563,5.67188 C50.0208,5.67188 49.526,5.875 49.1719,6.28125 C48.8177,6.6875 48.6406,7.26042 48.6406,8 C48.6406,8.72917 48.8177,9.29688 49.1719,9.70313 C49.526,10.1094 50.0208,10.3125 50.6563,10.3125 C50.9479,10.3125 51.2344,10.276 51.5156,10.2031 C51.7969,10.1302 52.0729,10.0156 52.3438,9.85938 L52.3438,10.7656 C52.0729,10.901 51.7891,11 51.4922,11.0625 C51.1953,11.125 50.8802,11.1563 50.5469,11.1563 C49.6406,11.1563 48.9219,10.8724 48.3906,10.3047 C47.8594,9.73698 47.5938,8.96875 47.5938,8 C47.5938,7.02083 47.862,6.25 48.3984,5.6875 C48.9349,5.125 49.6719,4.84375 50.6094,4.84375 C50.9219,4.84375 51.2214,4.875 51.5078,4.9375 C51.7943,5 52.0729,5.09375 52.3438,5.21875 "/>
</g>

<g fill="none" stroke="#000000" stroke-opacity="1" stroke-width="1" stroke-linecap="square" stroke-linejoin="bevel" transform="matrix(1.99955,0,0,1.99955,928.081,21.9951)"
font-family="sans" font-size="11" font-weight="100" font-style="normal" 
>
</g>

<g fill="none" stroke="#000000" stroke-opacity="1" stroke-width="1" stroke-linecap="square" stroke-linejoin="bevel" transform="matrix(1.99955,0,0,1.99955,928.081,21.9951)"
font-family="Ubuntu" font-size="11" font-weight="400" font-style="normal" 
>
</g>

<g fill="none" stroke="#000000" stroke-opacity="1" stroke-width="1" stroke-linecap="square" stroke-linejoin="bevel" transform="matrix(1.99955,0,0,1.99955,0,71.9839)"
font-family="Ubuntu" font-size="11" font-weight="400" font-style="normal" 
>
</g>

<g fill="none" stroke="#000000" stroke-opacity="1" stroke-width="1" stroke-linecap="square" stroke-linejoin="bevel" transform="matrix(1.99955,0,0,1.99955,0,71.9839)"
font-family="Ubuntu" font-size="11" font-weight="400" font-style="normal" 
>
</g>

<g fill="none" stroke="#000000" stroke-opacity="1" stroke-width="1" stroke-linecap="square" stroke-linejoin="bevel" transform="matrix(1.99955,0,0,1.99955,0,71.9839)"
font-family="Ubuntu" font-size="11" font-weight="400" font-style="normal" 
>
</g>

<g fill="none" stroke="#000000" stroke-opacity="1" stroke-width="1" stroke-linecap="square" stroke-linejoin="round" transform="matrix(1.99955,0,0,1.99955,0,71.9839)"
font-family="Ubuntu" font-size="11" font-weight="400" font-style="normal" 
>
<ellipse cx="769.44" cy="-18" rx="221.782" ry="17.5"/>
</g>

<g fill="none" stroke="#000000" stroke-opacity="1" stroke-width="1" stroke-linecap="square" stroke-linejoin="bevel" transform="matrix(1.99955,0,0,1.99955,0,71.9839)"
font-family="Ubuntu" font-size="11" font-weight="400" font-style="normal" 
>
</g>

<g fill="none" stroke="#000000" stroke-opacity="1" stroke-width="1" stroke-linecap="square" stroke-linejoin="bevel" transform="matrix(1.99955,0,0,1.99955,1285.78,21.9951)"
font-family="Ubuntu" font-size="11" font-weight="400" font-style="normal" 
>
</g>

<g fill="none" stroke="#000000" stroke-opacity="1" stroke-width="1" stroke-linecap="square" stroke-linejoin="bevel" transform="matrix(1.99955,0,0,1.99955,1285.78,21.9951)"
font-family="sans" font-size="11" font-weight="100" font-style="normal" 
>
</g>

<g fill="#000000" fill-opacity="1" stroke="#000000" stroke-opacity="1" stroke-width="1" stroke-linecap="square" stroke-linejoin="round" transform="matrix(1.99955,0,0,1.99955,1285.78,21.9951)"
font-family="sans" font-size="11" font-weight="100" font-style="normal" 
>
<path vector-effect="none" fill-rule="nonzero" d="M2.79688,2.98438 L3.70313,2.98438 L0.90625,12.0156 L0,12.0156 L2.79688,2.98438 M9.0625,8 C9.0625,7.27083 8.91146,6.70052 8.60938,6.28906 C8.30729,5.8776 7.89583,5.67188 7.375,5.67188 C6.85417,5.67188 6.44531,5.8776 6.14844,6.28906 C5.85156,6.70052 5.70313,7.27083 5.70313,8 C5.70313,8.72917 5.85156,9.29948 6.14844,9.71094 C6.44531,10.1224 6.85417,10.3281 7.375,10.3281 C7.89583,10.3281 8.30729,10.1224 8.60938,9.71094 C8.91146,9.29948 9.0625,8.72917 9.0625,8 M5.70313,5.89063 C5.90104,5.53646 6.15885,5.27344 6.47656,5.10156 C6.79427,4.92969 7.17708,4.84375 7.625,4.84375 C8.35417,4.84375 8.94531,5.13281 9.39844,5.71094 C9.85156,6.28906 10.0781,7.05208 10.0781,8 C10.0781,8.94792 9.85156,9.71094 9.39844,10.2891 C8.94531,10.8672 8.35417,11.1563 7.625,11.1563 C7.17708,11.1563 6.79427,11.0703 6.47656,10.8984 C6.15885,10.7266 5.90104,10.4583 5.70313,10.0938 L5.70313,11 L4.70313,11 L4.70313,2.64063 L5.70313,2.64063 L5.70313,5.89063 M11.7031,4.98438 L12.7031,4.98438 L12.7031,11 L11.7031,11 L11.7031,4.98438 M11.7031,2.64063 L12.7031,2.64063 L12.7031,3.89063 L11.7031,3.89063 L11.7031,2.64063 M17.0938,5.67188 C16.5625,5.67188 16.1432,5.88021 15.8359,6.29688 C15.5286,6.71354 15.375,7.28125 15.375,8 C15.375,8.71875 15.526,9.28385 15.8281,9.69531 C16.1302,10.1068 16.5521,10.3125 17.0938,10.3125 C17.6146,10.3125 18.0286,10.1068 18.3359,9.69531 C18.6432,9.28385 18.7969,8.71875 18.7969,8 C18.7969,7.28125 18.6432,6.71354 18.3359,6.29688 C18.0286,5.88021 17.6146,5.67188 17.0938,5.67188 M17.0938,4.84375 C17.9479,4.84375 18.6198,5.1224 19.1094,5.67969 C19.599,6.23698 19.8438,7.01042 19.8438,8 C19.8438,8.97917 19.599,9.75 19.1094,10.3125 C18.6198,10.875 17.9479,11.1563 17.0938,11.1563 C16.2292,11.1563 15.5521,10.875 15.0625,10.3125 C14.5729,9.75 14.3281,8.97917 14.3281,8 C14.3281,7.01042 14.5729,6.23698 15.0625,5.67969 C15.5521,5.1224 16.2292,4.84375 17.0938,4.84375 M26.0469,12.8281 L26.0469,13.5938 L20.3281,13.5938 L20.3281,12.8281 L26.0469,12.8281 M30.8125,5.15625 L30.8125,6.09375 C30.5313,5.94792 30.2396,5.84115 29.9375,5.77344 C29.6354,5.70573 29.3229,5.67188 29,5.67188 C28.5104,5.67188 28.1432,5.7474 27.8984,5.89844 C27.6536,6.04948 27.5313,6.27083 27.5313,6.5625 C27.5313,6.79167 27.6198,6.97135 27.7969,7.10156 C27.974,7.23177 28.3281,7.35938 28.8594,7.48438 L29.1875,7.5625 C29.8958,7.70833 30.3958,7.91927 30.6875,8.19531 C30.9792,8.47135 31.125,8.85417 31.125,9.34375 C31.125,9.89583 30.9063,10.3359 30.4688,10.6641 C30.0313,10.9922 29.4219,11.1563 28.6406,11.1563 C28.3177,11.1563 27.9818,11.125 27.6328,11.0625 C27.2839,11 26.9167,10.9063 26.5313,10.7813 L26.5313,9.76563 C26.8958,9.95313 27.2552,10.0938 27.6094,10.1875 C27.9635,10.2813 28.3177,10.3281 28.6719,10.3281 C29.1302,10.3281 29.4844,10.2474 29.7344,10.0859 C29.9844,9.92448 30.1094,9.70313 30.1094,9.42188 C30.1094,9.15104 30.0208,8.94271 29.8438,8.79688 C29.6667,8.65104 29.2708,8.51563 28.6563,8.39063 L28.3125,8.29688 C27.6979,8.17188 27.2552,7.97656 26.9844,7.71094 C26.7135,7.44531 26.5781,7.07813 26.5781,6.60938 C26.5781,6.04688 26.7786,5.61198 27.1797,5.30469 C27.5807,4.9974 28.151,4.84375 28.8906,4.84375 C29.2552,4.84375 29.599,4.86979 29.9219,4.92188 C30.2448,4.97396 30.5417,5.05208 30.8125,5.15625 M32.5938,8.625 L32.5938,4.98438 L33.5781,4.98438 L33.5781,8.59375 C33.5781,9.15625 33.6901,9.58073 33.9141,9.86719 C34.138,10.1536 34.4688,10.2969 34.9063,10.2969 C35.4479,10.2969 35.8724,10.1276 36.1797,9.78906 C36.487,9.45052 36.6406,8.98438 36.6406,8.39063 L36.6406,4.98438 L37.625,4.98438 L37.625,11 L36.6406,11 L36.6406,10.0781 C36.401,10.4427 36.1224,10.7135 35.8047,10.8906 C35.487,11.0677 35.1198,11.1563 34.7031,11.1563 C34.0156,11.1563 33.4922,10.9401 33.1328,10.5078 C32.7734,10.0755 32.5938,9.44792 32.5938,8.625 M43.9844,8 C43.9844,7.27083 43.8333,6.70052 43.5313,6.28906 C43.2292,5.8776 42.8177,5.67188 42.2969,5.67188 C41.776,5.67188 41.3672,5.8776 41.0703,6.28906 C40.7734,6.70052 40.625,7.27083 40.625,8 C40.625,8.72917 40.7734,9.29948 41.0703,9.71094 C41.3672,10.1224 41.776,10.3281 42.2969,10.3281 C42.8177,10.3281 43.2292,10.1224 43.5313,9.71094 C43.8333,9.29948 43.9844,8.72917 43.9844,8 M40.625,5.89063 C40.8229,5.53646 41.0807,5.27344 41.3984,5.10156 C41.7161,4.92969 42.099,4.84375 42.5469,4.84375 C43.276,4.84375 43.8672,5.13281 44.3203,5.71094 C44.7734,6.28906 45,7.05208 45,8 C45,8.94792 44.7734,9.71094 44.3203,10.2891 C43.8672,10.8672 43.276,11.1563 42.5469,11.1563 C42.099,11.1563 41.7161,11.0703 41.3984,10.8984 C41.0807,10.7266 40.8229,10.4583 40.625,10.0938 L40.625,11 L39.625,11 L39.625,2.64063 L40.625,2.64063 L40.625,5.89063 M50.4688,5.15625 L50.4688,6.09375 C50.1875,5.94792 49.8958,5.84115 49.5938,5.77344 C49.2917,5.70573 48.9792,5.67188 48.6563,5.67188 C48.1667,5.67188 47.7995,5.7474 47.5547,5.89844 C47.3099,6.04948 47.1875,6.27083 47.1875,6.5625 C47.1875,6.79167 47.276,6.97135 47.4531,7.10156 C47.6302,7.23177 47.9844,7.35938 48.5156,7.48438 L48.8438,7.5625 C49.5521,7.70833 50.0521,7.91927 50.3438,8.19531 C50.6354,8.47135 50.7813,8.85417 50.7813,9.34375 C50.7813,9.89583 50.5625,10.3359 50.125,10.6641 C49.6875,10.9922 49.0781,11.1563 48.2969,11.1563 C47.974,11.1563 47.638,11.125 47.2891,11.0625 C46.9401,11 46.5729,10.9063 46.1875,10.7813 L46.1875,9.76563 C46.5521,9.95313 46.9115,10.0938 47.2656,10.1875 C47.6198,10.2813 47.974,10.3281 48.3281,10.3281 C48.7865,10.3281 49.1406,10.2474 49.3906,10.0859 C49.6406,9.92448 49.7656,9.70313 49.7656,9.42188 C49.7656,9.15104 49.6771,8.94271 49.5,8.79688 C49.3229,8.65104 48.9271,8.51563 48.3125,8.39063 L47.9688,8.29688 C47.3542,8.17188 46.9115,7.97656 46.6406,7.71094 C46.3698,7.44531 46.2344,7.07813 46.2344,6.60938 C46.2344,6.04688 46.4349,5.61198 46.8359,5.30469 C47.237,4.9974 47.8073,4.84375 48.5469,4.84375 C48.9115,4.84375 49.2552,4.86979 49.5781,4.92188 C49.901,4.97396 50.1979,5.05208 50.4688,5.15625 M56.6719,5.21875 L56.6719,6.14063 C56.401,5.98438 56.125,5.86719 55.8438,5.78906 C55.5625,5.71094 55.276,5.67188 54.9844,5.67188 C54.349,5.67188 53.8542,5.875 53.5,6.28125 C53.1458,6.6875 52.9688,7.26042 52.9688,8 C52.9688,8.72917 53.1458,9.29688 53.5,9.70313 C53.8542,10.1094 54.349,10.3125 54.9844,10.3125 C55.276,10.3125 55.5625,10.276 55.8438,10.2031 C56.125,10.1302 56.401,10.0156 56.6719,9.85938 L56.6719,10.7656 C56.401,10.901 56.1172,11 55.8203,11.0625 C55.5234,11.125 55.2083,11.1563 54.875,11.1563 C53.9688,11.1563 53.25,10.8724 52.7188,10.3047 C52.1875,9.73698 51.9219,8.96875 51.9219,8 C51.9219,7.02083 52.1901,6.25 52.7266,5.6875 C53.263,5.125 54,4.84375 54.9375,4.84375 C55.25,4.84375 55.5495,4.875 55.8359,4.9375 C56.1224,5 56.401,5.09375 56.6719,5.21875 M61.875,5.90625 C61.7708,5.84375 61.6536,5.79688 61.5234,5.76563 C61.3932,5.73438 61.25,5.71875 61.0938,5.71875 C60.5313,5.71875 60.1016,5.90104 59.8047,6.26563 C59.5078,6.63021 59.3594,7.15104 59.3594,7.82813 L59.3594,11 L58.3594,11 L58.3594,4.98438 L59.3594,4.98438 L59.3594,5.92188 C59.5573,5.55729 59.8229,5.28646 60.1563,5.10938 C60.4896,4.93229 60.8958,4.84375 61.375,4.84375 C61.4479,4.84375 61.5234,4.84635 61.6016,4.85156 C61.6797,4.85677 61.7708,4.86979 61.875,4.89063 L61.875,5.90625 M62.9063,4.98438 L63.9063,4.98438 L63.9063,11 L62.9063,11 L62.9063,4.98438 M62.9063,2.64063 L63.9063,2.64063 L63.9063,3.89063 L62.9063,3.89063 L62.9063,2.64063 M70.2813,8 C70.2813,7.27083 70.1302,6.70052 69.8281,6.28906 C69.526,5.8776 69.1146,5.67188 68.5938,5.67188 C68.0729,5.67188 67.6641,5.8776 67.3672,6.28906 C67.0703,6.70052 66.9219,7.27083 66.9219,8 C66.9219,8.72917 67.0703,9.29948 67.3672,9.71094 C67.6641,10.1224 68.0729,10.3281 68.5938,10.3281 C69.1146,10.3281 69.526,10.1224 69.8281,9.71094 C70.1302,9.29948 70.2813,8.72917 70.2813,8 M66.9219,5.89063 C67.1198,5.53646 67.3776,5.27344 67.6953,5.10156 C68.013,4.92969 68.3958,4.84375 68.8438,4.84375 C69.5729,4.84375 70.1641,5.13281 70.6172,5.71094 C71.0703,6.28906 71.2969,7.05208 71.2969,8 C71.2969,8.94792 71.0703,9.71094 70.6172,10.2891 C70.1641,10.8672 69.5729,11.1563 68.8438,11.1563 C68.3958,11.1563 68.013,11.0703 67.6953,10.8984 C67.3776,10.7266 67.1198,10.4583 66.9219,10.0938 L66.9219,11 L65.9219,11 L65.9219,2.64063 L66.9219,2.64063 L66.9219,5.89063 M78.0781,7.75 L78.0781,8.23438 L73.5313,8.23438 C73.5729,8.91146 73.776,9.42708 74.1406,9.78125 C74.5052,10.1354 75.0156,10.3125 75.6719,10.3125 C76.0573,10.3125 76.4271,10.2656 76.7813,10.1719 C77.1354,10.0781 77.4896,9.94271 77.8438,9.76563 L77.8438,10.6875 C77.4896,10.8438 77.125,10.9609 76.75,11.0391 C76.375,11.1172 76,11.1563 75.625,11.1563 C74.6563,11.1563 73.8932,10.8776 73.3359,10.3203 C72.7786,9.76302 72.5,9.00521 72.5,8.04688 C72.5,7.06771 72.7656,6.28906 73.2969,5.71094 C73.8281,5.13281 74.5469,4.84375 75.4531,4.84375 C76.2552,4.84375 76.8932,5.10417 77.3672,5.625 C77.8411,6.14583 78.0781,6.85417 78.0781,7.75 M77.0781,7.45313 C77.0781,6.91146 76.9297,6.47917 76.6328,6.15625 C76.3359,5.83333 75.9427,5.67188 75.4531,5.67188 C74.901,5.67188 74.4609,5.82813 74.1328,6.14063 C73.8047,6.45313 73.6146,6.89063 73.5625,7.45313 L77.0781,7.45313 M83.1719,5.90625 C83.0677,5.84375 82.9505,5.79688 82.8203,5.76563 C82.6901,5.73438 82.5469,5.71875 82.3906,5.71875 C81.8281,5.71875 81.3984,5.90104 81.1016,6.26563 C80.8047,6.63021 80.6563,7.15104 80.6563,7.82813 L80.6563,11 L79.6563,11 L79.6563,4.98438 L80.6563,4.98438 L80.6563,5.92188 C80.8542,5.55729 81.1198,5.28646 81.4531,5.10938 C81.7865,4.93229 82.1927,4.84375 82.6719,4.84375 C82.7448,4.84375 82.8203,4.84635 82.8984,4.85156 C82.9766,4.85677 83.0677,4.86979 83.1719,4.89063 L83.1719,5.90625 M88.7813,12.8281 L88.7813,13.5938 L83.0625,13.5938 L83.0625,12.8281 L88.7813,12.8281 M94.7031,7.375 L94.7031,11 L93.7188,11 L93.7188,7.40625 C93.7188,6.83333 93.6094,6.40625 93.3906,6.125 C93.1719,5.84375 92.8385,5.70313 92.3906,5.70313 C91.8594,5.70313 91.4401,5.8724 91.1328,6.21094 C90.8255,6.54948 90.6719,7.01042 90.6719,7.59375 L90.6719,11 L89.6719,11 L89.6719,4.98438 L90.6719,4.98438 L90.6719,5.92188 C90.901,5.55729 91.1771,5.28646 91.5,5.10938 C91.8229,4.93229 92.1927,4.84375 92.6094,4.84375 C93.2969,4.84375 93.8177,5.05729 94.1719,5.48438 C94.526,5.91146 94.7031,6.54167 94.7031,7.375 M99.0156,5.67188 C98.4844,5.67188 98.0651,5.88021 97.7578,6.29688 C97.4505,6.71354 97.2969,7.28125 97.2969,8 C97.2969,8.71875 97.4479,9.28385 97.75,9.69531 C98.0521,10.1068 98.474,10.3125 99.0156,10.3125 C99.5365,10.3125 99.9505,10.1068 100.258,9.69531 C100.565,9.28385 100.719,8.71875 100.719,8 C100.719,7.28125 100.565,6.71354 100.258,6.29688 C99.9505,5.88021 99.5365,5.67188 99.0156,5.67188 M99.0156,4.84375 C99.8698,4.84375 100.542,5.1224 101.031,5.67969 C101.521,6.23698 101.766,7.01042 101.766,8 C101.766,8.97917 101.521,9.75 101.031,10.3125 C100.542,10.875 99.8698,11.1563 99.0156,11.1563 C98.151,11.1563 97.474,10.875 96.9844,10.3125 C96.4948,9.75 96.25,8.97917 96.25,8 C96.25,7.01042 96.4948,6.23698 96.9844,5.67969 C97.474,5.1224 98.151,4.84375 99.0156,4.84375 M107.359,5.89063 L107.359,2.64063 L108.344,2.64063 L108.344,11 L107.359,11 L107.359,10.0938 C107.151,10.4583 106.888,10.7266 106.57,10.8984 C106.253,11.0703 105.87,11.1563 105.422,11.1563 C104.703,11.1563 104.115,10.8672 103.656,10.2891 C103.198,9.71094 102.969,8.94792 102.969,8 C102.969,7.05208 103.198,6.28906 103.656,5.71094 C104.115,5.13281 104.703,4.84375 105.422,4.84375 C105.87,4.84375 106.253,4.92969 106.57,5.10156 C106.888,5.27344 107.151,5.53646 107.359,5.89063 M103.984,8 C103.984,8.72917 104.135,9.29948 104.438,9.71094 C104.74,10.1224 105.151,10.3281 105.672,10.3281 C106.193,10.3281 106.604,10.1224 106.906,9.71094 C107.208,9.29948 107.359,8.72917 107.359,8 C107.359,7.27083 107.208,6.70052 106.906,6.28906 C106.604,5.8776 106.193,5.67188 105.672,5.67188 C105.151,5.67188 104.74,5.8776 104.438,6.28906 C104.135,6.70052 103.984,7.27083 103.984,8 M115.516,7.75 L115.516,8.23438 L110.969,8.23438 C111.01,8.91146 111.214,9.42708 111.578,9.78125 C111.943,10.1354 112.453,10.3125 113.109,10.3125 C113.495,10.3125 113.865,10.2656 114.219,10.1719 C114.573,10.0781 114.927,9.94271 115.281,9.76563 L115.281,10.6875 C114.927,10.8438 114.563,10.9609 114.188,11.0391 C113.813,11.1172 113.438,11.1563 113.063,11.1563 C112.094,11.1563 111.331,10.8776 110.773,10.3203 C110.216,9.76302 109.938,9.00521 109.938,8.04688 C109.938,7.06771 110.203,6.28906 110.734,5.71094 C111.266,5.13281 111.984,4.84375 112.891,4.84375 C113.693,4.84375 114.331,5.10417 114.805,5.625 C115.279,6.14583 115.516,6.85417 115.516,7.75 M114.516,7.45313 C114.516,6.91146 114.367,6.47917 114.07,6.15625 C113.773,5.83333 113.38,5.67188 112.891,5.67188 C112.339,5.67188 111.898,5.82813 111.57,6.14063 C111.242,6.45313 111.052,6.89063 111,7.45313 L114.516,7.45313 M121.703,12.8281 L121.703,13.5938 L115.984,13.5938 L115.984,12.8281 L121.703,12.8281 M126.063,6.67188 C126.583,6.78646 126.99,7.01823 127.281,7.36719 C127.573,7.71615 127.719,8.15104 127.719,8.67188 C127.719,9.46354 127.445,10.0755 126.898,10.5078 C126.352,10.9401 125.578,11.1563 124.578,11.1563 C124.234,11.1563 123.885,11.1224 123.531,11.0547 C123.177,10.987 122.813,10.8906 122.438,10.7656 L122.438,9.70313 C122.74,9.88021 123.068,10.0156 123.422,10.1094 C123.776,10.2031 124.151,10.25 124.547,10.25 C125.224,10.25 125.74,10.1146 126.094,9.84375 C126.448,9.57292 126.625,9.18229 126.625,8.67188 C126.625,8.19271 126.461,7.82031 126.133,7.55469 C125.805,7.28906 125.344,7.15625 124.75,7.15625 L123.813,7.15625 L123.813,6.26563 L124.797,6.26563 C125.328,6.26563 125.734,6.15885 126.016,5.94531 C126.297,5.73177 126.438,5.42708 126.438,5.03125 C126.438,4.61458 126.292,4.29688 126,4.07813 C125.708,3.85938 125.292,3.75 124.75,3.75 C124.458,3.75 124.141,3.78125 123.797,3.84375 C123.453,3.90625 123.078,4.00521 122.672,4.14063 L122.672,3.17188 C123.089,3.05729 123.477,2.97135 123.836,2.91406 C124.195,2.85677 124.531,2.82813 124.844,2.82813 C125.667,2.82813 126.32,3.01563 126.805,3.39063 C127.289,3.76563 127.531,4.27604 127.531,4.92188 C127.531,5.35938 127.404,5.73177 127.148,6.03906 C126.893,6.34635 126.531,6.55729 126.063,6.67188 M132.203,6.5625 C131.724,6.5625 131.341,6.72917 131.055,7.0625 C130.768,7.39583 130.625,7.84896 130.625,8.42188 C130.625,9.00521 130.768,9.46354 131.055,9.79688 C131.341,10.1302 131.724,10.2969 132.203,10.2969 C132.693,10.2969 133.081,10.1302 133.367,9.79688 C133.654,9.46354 133.797,9.00521 133.797,8.42188 C133.797,7.84896 133.654,7.39583 133.367,7.0625 C133.081,6.72917 132.693,6.5625 132.203,6.5625 M134.359,3.15625 L134.359,4.14063 C134.089,4.01563 133.815,3.91927 133.539,3.85156 C133.263,3.78385 132.99,3.75 132.719,3.75 C132,3.75 131.451,3.99219 131.07,4.47656 C130.69,4.96094 130.474,5.69271 130.422,6.67188 C130.641,6.35938 130.909,6.11979 131.227,5.95313 C131.544,5.78646 131.896,5.70313 132.281,5.70313 C133.083,5.70313 133.719,5.94792 134.188,6.4375 C134.656,6.92708 134.891,7.58854 134.891,8.42188 C134.891,9.24479 134.646,9.90625 134.156,10.4063 C133.667,10.9063 133.016,11.1563 132.203,11.1563 C131.276,11.1563 130.568,10.7995 130.078,10.0859 C129.589,9.3724 129.344,8.34375 129.344,7 C129.344,5.72917 129.646,4.71615 130.25,3.96094 C130.854,3.20573 131.661,2.82813 132.672,2.82813 C132.943,2.82813 133.216,2.85677 133.492,2.91406 C133.768,2.97135 134.057,3.05208 134.359,3.15625 M137.672,10.0938 L141.453,10.0938 L141.453,11 L136.375,11 L136.375,10.0938 C136.781,9.66667 137.341,9.09375 138.055,8.375 C138.768,7.65625 139.214,7.19271 139.391,6.98438 C139.734,6.58854 139.977,6.25521 140.117,5.98438 C140.258,5.71354 140.328,5.44792 140.328,5.1875 C140.328,4.76042 140.18,4.41406 139.883,4.14844 C139.586,3.88281 139.193,3.75 138.703,3.75 C138.37,3.75 138.013,3.8099 137.633,3.92969 C137.253,4.04948 136.849,4.22917 136.422,4.46875 L136.422,3.375 C136.859,3.19792 137.268,3.0625 137.648,2.96875 C138.029,2.875 138.375,2.82813 138.688,2.82813 C139.521,2.82813 140.185,3.03646 140.68,3.45313 C141.174,3.86979 141.422,4.42708 141.422,5.125 C141.422,5.45833 141.359,5.77083 141.234,6.0625 C141.109,6.35417 140.885,6.70313 140.563,7.10938 C140.469,7.21354 140.182,7.51302 139.703,8.00781 C139.224,8.5026 138.547,9.19792 137.672,10.0938 M143.734,2.98438 L148,2.98438 L148,3.89063 L144.734,3.89063 L144.734,5.85938 C144.891,5.80729 145.047,5.76823 145.203,5.74219 C145.359,5.71615 145.516,5.70313 145.672,5.70313 C146.568,5.70313 147.276,5.94792 147.797,6.4375 C148.318,6.92708 148.578,7.58854 148.578,8.42188 C148.578,9.28646 148.31,9.95833 147.773,10.4375 C147.237,10.9167 146.479,11.1563 145.5,11.1563 C145.167,11.1563 144.826,11.1276 144.477,11.0703 C144.128,11.013 143.766,10.9271 143.391,10.8125 L143.391,9.71875 C143.714,9.89583 144.047,10.0286 144.391,10.1172 C144.734,10.2057 145.099,10.25 145.484,10.25 C146.109,10.25 146.602,10.0859 146.961,9.75781 C147.32,9.42969 147.5,8.98438 147.5,8.42188 C147.5,7.86979 147.32,7.42969 146.961,7.10156 C146.602,6.77344 146.109,6.60938 145.484,6.60938 C145.193,6.60938 144.904,6.64323 144.617,6.71094 C144.331,6.77865 144.036,6.88021 143.734,7.01563 L143.734,2.98438 M150.891,10.0938 L152.672,10.0938 L152.672,3.96875 L150.734,4.35938 L150.734,3.375 L152.656,2.98438 L153.75,2.98438 L153.75,10.0938 L155.516,10.0938 L155.516,11 L150.891,11 L150.891,10.0938 M162.125,12.8281 L162.125,13.5938 L156.406,13.5938 L156.406,12.8281 L162.125,12.8281 M163.375,10.0938 L165.156,10.0938 L165.156,3.96875 L163.219,4.35938 L163.219,3.375 L165.141,2.98438 L166.234,2.98438 L166.234,10.0938 L168,10.0938 L168,11 L163.375,11 L163.375,10.0938 M172.625,6.5625 C172.146,6.5625 171.763,6.72917 171.477,7.0625 C171.19,7.39583 171.047,7.84896 171.047,8.42188 C171.047,9.00521 171.19,9.46354 171.477,9.79688 C171.763,10.1302 172.146,10.2969 172.625,10.2969 C173.115,10.2969 173.503,10.1302 173.789,9.79688 C174.076,9.46354 174.219,9.00521 174.219,8.42188 C174.219,7.84896 174.076,7.39583 173.789,7.0625 C173.503,6.72917 173.115,6.5625 172.625,6.5625 M174.781,3.15625 L174.781,4.14063 C174.51,4.01563 174.237,3.91927 173.961,3.85156 C173.685,3.78385 173.411,3.75 173.141,3.75 C172.422,3.75 171.872,3.99219 171.492,4.47656 C171.112,4.96094 170.896,5.69271 170.844,6.67188 C171.063,6.35938 171.331,6.11979 171.648,5.95313 C171.966,5.78646 172.318,5.70313 172.703,5.70313 C173.505,5.70313 174.141,5.94792 174.609,6.4375 C175.078,6.92708 175.313,7.58854 175.313,8.42188 C175.313,9.24479 175.068,9.90625 174.578,10.4063 C174.089,10.9063 173.438,11.1563 172.625,11.1563 C171.698,11.1563 170.99,10.7995 170.5,10.0859 C170.01,9.3724 169.766,8.34375 169.766,7 C169.766,5.72917 170.068,4.71615 170.672,3.96094 C171.276,3.20573 172.083,2.82813 173.094,2.82813 C173.365,2.82813 173.638,2.85677 173.914,2.91406 C174.19,2.97135 174.479,3.05208 174.781,3.15625 M179.484,7.1875 C178.964,7.1875 178.557,7.32552 178.266,7.60156 C177.974,7.8776 177.828,8.26042 177.828,8.75 C177.828,9.22917 177.974,9.60677 178.266,9.88281 C178.557,10.1589 178.964,10.2969 179.484,10.2969 C179.995,10.2969 180.398,10.1589 180.695,9.88281 C180.992,9.60677 181.141,9.22917 181.141,8.75 C181.141,8.26042 180.995,7.8776 180.703,7.60156 C180.411,7.32552 180.005,7.1875 179.484,7.1875 M178.391,6.73438 C177.932,6.61979 177.573,6.40365 177.313,6.08594 C177.052,5.76823 176.922,5.38021 176.922,4.92188 C176.922,4.27604 177.148,3.76563 177.602,3.39063 C178.055,3.01563 178.682,2.82813 179.484,2.82813 C180.276,2.82813 180.901,3.01563 181.359,3.39063 C181.818,3.76563 182.047,4.27604 182.047,4.92188 C182.047,5.38021 181.917,5.76823 181.656,6.08594 C181.396,6.40365 181.036,6.61979 180.578,6.73438 C181.099,6.84896 181.505,7.08333 181.797,7.4375 C182.089,7.79167 182.234,8.22917 182.234,8.75 C182.234,9.52083 181.997,10.1146 181.523,10.5313 C181.049,10.9479 180.37,11.1563 179.484,11.1563 C178.599,11.1563 177.919,10.9479 177.445,10.5313 C176.971,10.1146 176.734,9.52083 176.734,8.75 C176.734,8.22917 176.88,7.79167 177.172,7.4375 C177.464,7.08333 177.87,6.84896 178.391,6.73438 M178,5.01563 C178,5.43229 178.13,5.75781 178.391,5.99219 C178.651,6.22656 179.016,6.34375 179.484,6.34375 C179.943,6.34375 180.305,6.22656 180.57,5.99219 C180.836,5.75781 180.969,5.43229 180.969,5.01563 C180.969,4.59896 180.836,4.27344 180.57,4.03906 C180.305,3.80469 179.943,3.6875 179.484,3.6875 C179.016,3.6875 178.651,3.80469 178.391,4.03906 C178.13,4.27344 178,4.59896 178,5.01563 M184.156,2.98438 L188.422,2.98438 L188.422,3.89063 L185.156,3.89063 L185.156,5.85938 C185.313,5.80729 185.469,5.76823 185.625,5.74219 C185.781,5.71615 185.938,5.70313 186.094,5.70313 C186.99,5.70313 187.698,5.94792 188.219,6.4375 C188.74,6.92708 189,7.58854 189,8.42188 C189,9.28646 188.732,9.95833 188.195,10.4375 C187.659,10.9167 186.901,11.1563 185.922,11.1563 C185.589,11.1563 185.247,11.1276 184.898,11.0703 C184.549,11.013 184.188,10.9271 183.813,10.8125 L183.813,9.71875 C184.135,9.89583 184.469,10.0286 184.813,10.1172 C185.156,10.2057 185.521,10.25 185.906,10.25 C186.531,10.25 187.023,10.0859 187.383,9.75781 C187.742,9.42969 187.922,8.98438 187.922,8.42188 C187.922,7.86979 187.742,7.42969 187.383,7.10156 C187.023,6.77344 186.531,6.60938 185.906,6.60938 C185.615,6.60938 185.326,6.64323 185.039,6.71094 C184.753,6.77865 184.458,6.88021 184.156,7.01563 L184.156,2.98438 M194.422,6.67188 C194.943,6.78646 195.349,7.01823 195.641,7.36719 C195.932,7.71615 196.078,8.15104 196.078,8.67188 C196.078,9.46354 195.805,10.0755 195.258,10.5078 C194.711,10.9401 193.938,11.1563 192.938,11.1563 C192.594,11.1563 192.245,11.1224 191.891,11.0547 C191.536,10.987 191.172,10.8906 190.797,10.7656 L190.797,9.70313 C191.099,9.88021 191.427,10.0156 191.781,10.1094 C192.135,10.2031 192.51,10.25 192.906,10.25 C193.583,10.25 194.099,10.1146 194.453,9.84375 C194.807,9.57292 194.984,9.18229 194.984,8.67188 C194.984,8.19271 194.82,7.82031 194.492,7.55469 C194.164,7.28906 193.703,7.15625 193.109,7.15625 L192.172,7.15625 L192.172,6.26563 L193.156,6.26563 C193.688,6.26563 194.094,6.15885 194.375,5.94531 C194.656,5.73177 194.797,5.42708 194.797,5.03125 C194.797,4.61458 194.651,4.29688 194.359,4.07813 C194.068,3.85938 193.651,3.75 193.109,3.75 C192.818,3.75 192.5,3.78125 192.156,3.84375 C191.813,3.90625 191.438,4.00521 191.031,4.14063 L191.031,3.17188 C191.448,3.05729 191.836,2.97135 192.195,2.91406 C192.555,2.85677 192.891,2.82813 193.203,2.82813 C194.026,2.82813 194.68,3.01563 195.164,3.39063 C195.648,3.76563 195.891,4.27604 195.891,4.92188 C195.891,5.35938 195.763,5.73177 195.508,6.03906 C195.253,6.34635 194.891,6.55729 194.422,6.67188 M198.125,2.98438 L202.391,2.98438 L202.391,3.89063 L199.125,3.89063 L199.125,5.85938 C199.281,5.80729 199.438,5.76823 199.594,5.74219 C199.75,5.71615 199.906,5.70313 200.063,5.70313 C200.958,5.70313 201.667,5.94792 202.188,6.4375 C202.708,6.92708 202.969,7.58854 202.969,8.42188 C202.969,9.28646 202.701,9.95833 202.164,10.4375 C201.628,10.9167 200.87,11.1563 199.891,11.1563 C199.557,11.1563 199.216,11.1276 198.867,11.0703 C198.518,11.013 198.156,10.9271 197.781,10.8125 L197.781,9.71875 C198.104,9.89583 198.438,10.0286 198.781,10.1172 C199.125,10.2057 199.49,10.25 199.875,10.25 C200.5,10.25 200.992,10.0859 201.352,9.75781 C201.711,9.42969 201.891,8.98438 201.891,8.42188 C201.891,7.86979 201.711,7.42969 201.352,7.10156 C200.992,6.77344 200.5,6.60938 199.875,6.60938 C199.583,6.60938 199.294,6.64323 199.008,6.71094 C198.721,6.77865 198.427,6.88021 198.125,7.01563 L198.125,2.98438 M207.547,6.5625 C207.068,6.5625 206.685,6.72917 206.398,7.0625 C206.112,7.39583 205.969,7.84896 205.969,8.42188 C205.969,9.00521 206.112,9.46354 206.398,9.79688 C206.685,10.1302 207.068,10.2969 207.547,10.2969 C208.036,10.2969 208.424,10.1302 208.711,9.79688 C208.997,9.46354 209.141,9.00521 209.141,8.42188 C209.141,7.84896 208.997,7.39583 208.711,7.0625 C208.424,6.72917 208.036,6.5625 207.547,6.5625 M209.703,3.15625 L209.703,4.14063 C209.432,4.01563 209.159,3.91927 208.883,3.85156 C208.607,3.78385 208.333,3.75 208.063,3.75 C207.344,3.75 206.794,3.99219 206.414,4.47656 C206.034,4.96094 205.818,5.69271 205.766,6.67188 C205.984,6.35938 206.253,6.11979 206.57,5.95313 C206.888,5.78646 207.24,5.70313 207.625,5.70313 C208.427,5.70313 209.063,5.94792 209.531,6.4375 C210,6.92708 210.234,7.58854 210.234,8.42188 C210.234,9.24479 209.99,9.90625 209.5,10.4063 C209.01,10.9063 208.359,11.1563 207.547,11.1563 C206.62,11.1563 205.911,10.7995 205.422,10.0859 C204.932,9.3724 204.688,8.34375 204.688,7 C204.688,5.72917 204.99,4.71615 205.594,3.96094 C206.198,3.20573 207.005,2.82813 208.016,2.82813 C208.286,2.82813 208.56,2.85677 208.836,2.91406 C209.112,2.97135 209.401,3.05208 209.703,3.15625 M212.266,10.0938 L214.047,10.0938 L214.047,3.96875 L212.109,4.35938 L212.109,3.375 L214.031,2.98438 L215.125,2.98438 L215.125,10.0938 L216.891,10.0938 L216.891,11 L212.266,11 L212.266,10.0938 M222.359,6.67188 C222.88,6.78646 223.286,7.01823 223.578,7.36719 C223.87,7.71615 224.016,8.15104 224.016,8.67188 C224.016,9.46354 223.742,10.0755 223.195,10.5078 C222.648,10.9401 221.875,11.1563 220.875,11.1563 C220.531,11.1563 220.182,11.1224 219.828,11.0547 C219.474,10.987 219.109,10.8906 218.734,10.7656 L218.734,9.70313 C219.036,9.88021 219.365,10.0156 219.719,10.1094 C220.073,10.2031 220.448,10.25 220.844,10.25 C221.521,10.25 222.036,10.1146 222.391,9.84375 C222.745,9.57292 222.922,9.18229 222.922,8.67188 C222.922,8.19271 222.758,7.82031 222.43,7.55469 C222.102,7.28906 221.641,7.15625 221.047,7.15625 L220.109,7.15625 L220.109,6.26563 L221.094,6.26563 C221.625,6.26563 222.031,6.15885 222.313,5.94531 C222.594,5.73177 222.734,5.42708 222.734,5.03125 C222.734,4.61458 222.589,4.29688 222.297,4.07813 C222.005,3.85938 221.589,3.75 221.047,3.75 C220.755,3.75 220.438,3.78125 220.094,3.84375 C219.75,3.90625 219.375,4.00521 218.969,4.14063 L218.969,3.17188 C219.385,3.05729 219.773,2.97135 220.133,2.91406 C220.492,2.85677 220.828,2.82813 221.141,2.82813 C221.964,2.82813 222.617,3.01563 223.102,3.39063 C223.586,3.76563 223.828,4.27604 223.828,4.92188 C223.828,5.35938 223.701,5.73177 223.445,6.03906 C223.19,6.34635 222.828,6.55729 222.359,6.67188 M225.781,2.98438 L230.938,2.98438 L230.938,3.4375 L228.016,11 L226.891,11 L229.625,3.89063 L225.781,3.89063 L225.781,2.98438 M235.484,6.5625 C235.005,6.5625 234.622,6.72917 234.336,7.0625 C234.049,7.39583 233.906,7.84896 233.906,8.42188 C233.906,9.00521 234.049,9.46354 234.336,9.79688 C234.622,10.1302 235.005,10.2969 235.484,10.2969 C235.974,10.2969 236.362,10.1302 236.648,9.79688 C236.935,9.46354 237.078,9.00521 237.078,8.42188 C237.078,7.84896 236.935,7.39583 236.648,7.0625 C236.362,6.72917 235.974,6.5625 235.484,6.5625 M237.641,3.15625 L237.641,4.14063 C237.37,4.01563 237.096,3.91927 236.82,3.85156 C236.544,3.78385 236.271,3.75 236,3.75 C235.281,3.75 234.732,3.99219 234.352,4.47656 C233.971,4.96094 233.755,5.69271 233.703,6.67188 C233.922,6.35938 234.19,6.11979 234.508,5.95313 C234.826,5.78646 235.177,5.70313 235.563,5.70313 C236.365,5.70313 237,5.94792 237.469,6.4375 C237.938,6.92708 238.172,7.58854 238.172,8.42188 C238.172,9.24479 237.927,9.90625 237.438,10.4063 C236.948,10.9063 236.297,11.1563 235.484,11.1563 C234.557,11.1563 233.849,10.7995 233.359,10.0859 C232.87,9.3724 232.625,8.34375 232.625,7 C232.625,5.72917 232.927,4.71615 233.531,3.96094 C234.135,3.20573 234.943,2.82813 235.953,2.82813 C236.224,2.82813 236.497,2.85677 236.773,2.91406 C237.049,2.97135 237.339,3.05208 237.641,3.15625 M243,3.92188 L240.266,8.20313 L243,8.20313 L243,3.92188 M242.719,2.98438 L244.078,2.98438 L244.078,8.20313 L245.219,8.20313 L245.219,9.10938 L244.078,9.10938 L244.078,11 L243,11 L243,9.10938 L239.375,9.10938 L239.375,8.0625 L242.719,2.98438 M247.938,10.0938 L251.719,10.0938 L251.719,11 L246.641,11 L246.641,10.0938 C247.047,9.66667 247.607,9.09375 248.32,8.375 C249.034,7.65625 249.479,7.19271 249.656,6.98438 C250,6.58854 250.242,6.25521 250.383,5.98438 C250.523,5.71354 250.594,5.44792 250.594,5.1875 C250.594,4.76042 250.445,4.41406 250.148,4.14844 C249.852,3.88281 249.458,3.75 248.969,3.75 C248.635,3.75 248.279,3.8099 247.898,3.92969 C247.518,4.04948 247.115,4.22917 246.688,4.46875 L246.688,3.375 C247.125,3.19792 247.534,3.0625 247.914,2.96875 C248.294,2.875 248.641,2.82813 248.953,2.82813 C249.786,2.82813 250.451,3.03646 250.945,3.45313 C251.44,3.86979 251.688,4.42708 251.688,5.125 C251.688,5.45833 251.625,5.77083 251.5,6.0625 C251.375,6.35417 251.151,6.70313 250.828,7.10938 C250.734,7.21354 250.448,7.51302 249.969,8.00781 C249.49,8.5026 248.813,9.19792 247.938,10.0938 "/>
</g>

<g fill="none" stroke="#000000" stroke-opacity="1" stroke-width="1" stroke-linecap="square" stroke-linejoin="bevel" transform="matrix(1.99955,0,0,1.99955,1285.78,21.9951)"
font-family="sans" font-size="11" font-weight="100" font-style="normal" 
>
</g>

<g fill="none" stroke="#000000" stroke-opacity="1" stroke-width="1" stroke-linecap="square" stroke-linejoin="bevel" transform="matrix(1.99955,0,0,1.99955,1285.78,21.9951)"
font-family="Ubuntu" font-size="11" font-weight="400" font-style="normal" 
>
</g>

<g fill="none" stroke="#000000" stroke-opacity="1" stroke-width="1" stroke-linecap="square" stroke-linejoin="bevel" transform="matrix(1.99955,0,0,1.99955,0,71.9839)"
font-family="Ubuntu" font-size="11" font-weight="400" font-style="normal" 
>
</g>

<g fill="none" stroke="#000000" stroke-opacity="1" stroke-width="1" stroke-linecap="square" stroke-linejoin="bevel" transform="matrix(1.99955,0,0,1.99955,0,71.9839)"
font-family="Ubuntu" font-size="11" font-weight="400" font-style="normal" 
>
</g>

<g fill="none" stroke="#000000" stroke-opacity="1" stroke-width="1" stroke-linecap="square" stroke-linejoin="bevel" transform="matrix(1.99955,0,0,1.99955,0,71.9839)"
font-family="Ubuntu" font-size="11" font-weight="400" font-style="normal" 
>
</g>

<g fill="none" stroke="#000000" stroke-opacity="1" stroke-width="1" stroke-linecap="square" stroke-linejoin="round" transform="matrix(1.99955,0,0,1.99955,0,71.9839)"
font-family="Ubuntu" font-size="11" font-weight="400" font-style="normal" 
>
<ellipse cx="217.08" cy="-18" rx="216.58" ry="17.5"/>
</g>

<g fill="none" stroke="#000000" stroke-opacity="1" stroke-width="1" stroke-linecap="square" stroke-linejoin="bevel" transform="matrix(1.99955,0,0,1.99955,0,71.9839)"
font-family="Ubuntu" font-size="11" font-weight="400" font-style="normal" 
>
</g>

<g fill="none" stroke="#000000" stroke-opacity="1" stroke-width="1" stroke-linecap="square" stroke-linejoin="bevel" transform="matrix(1.99955,0,0,1.99955,187.571,21.9951)"
font-family="Ubuntu" font-size="11" font-weight="400" font-style="normal" 
>
</g>

<g fill="none" stroke="#000000" stroke-opacity="1" stroke-width="1" stroke-linecap="square" stroke-linejoin="bevel" transform="matrix(1.99955,0,0,1.99955,187.571,21.9951)"
font-family="sans" font-size="11" font-weight="100" font-style="normal" 
>
</g>

<g fill="#000000" fill-opacity="1" stroke="#000000" stroke-opacity="1" stroke-width="1" stroke-linecap="square" stroke-linejoin="round" transform="matrix(1.99955,0,0,1.99955,187.571,21.9951)"
font-family="sans" font-size="11" font-weight="100" font-style="normal" 
>
<path vector-effect="none" fill-rule="nonzero" d="M2.79688,2.98438 L3.70313,2.98438 L0.90625,12.0156 L0,12.0156 L2.79688,2.98438 M9.0625,8 C9.0625,7.27083 8.91146,6.70052 8.60938,6.28906 C8.30729,5.8776 7.89583,5.67188 7.375,5.67188 C6.85417,5.67188 6.44531,5.8776 6.14844,6.28906 C5.85156,6.70052 5.70313,7.27083 5.70313,8 C5.70313,8.72917 5.85156,9.29948 6.14844,9.71094 C6.44531,10.1224 6.85417,10.3281 7.375,10.3281 C7.89583,10.3281 8.30729,10.1224 8.60938,9.71094 C8.91146,9.29948 9.0625,8.72917 9.0625,8 M5.70313,5.89063 C5.90104,5.53646 6.15885,5.27344 6.47656,5.10156 C6.79427,4.92969 7.17708,4.84375 7.625,4.84375 C8.35417,4.84375 8.94531,5.13281 9.39844,5.71094 C9.85156,6.28906 10.0781,7.05208 10.0781,8 C10.0781,8.94792 9.85156,9.71094 9.39844,10.2891 C8.94531,10.8672 8.35417,11.1563 7.625,11.1563 C7.17708,11.1563 6.79427,11.0703 6.47656,10.8984 C6.15885,10.7266 5.90104,10.4583 5.70313,10.0938 L5.70313,11 L4.70313,11 L4.70313,2.64063 L5.70313,2.64063 L5.70313,5.89063 M11.7031,4.98438 L12.7031,4.98438 L12.7031,11 L11.7031,11 L11.7031,4.98438 M11.7031,2.64063 L12.7031,2.64063 L12.7031,3.89063 L11.7031,3.89063 L11.7031,2.64063 M17.0938,5.67188 C16.5625,5.67188 16.1432,5.88021 15.8359,6.29688 C15.5286,6.71354 15.375,7.28125 15.375,8 C15.375,8.71875 15.526,9.28385 15.8281,9.69531 C16.1302,10.1068 16.5521,10.3125 17.0938,10.3125 C17.6146,10.3125 18.0286,10.1068 18.3359,9.69531 C18.6432,9.28385 18.7969,8.71875 18.7969,8 C18.7969,7.28125 18.6432,6.71354 18.3359,6.29688 C18.0286,5.88021 17.6146,5.67188 17.0938,5.67188 M17.0938,4.84375 C17.9479,4.84375 18.6198,5.1224 19.1094,5.67969 C19.599,6.23698 19.8438,7.01042 19.8438,8 C19.8438,8.97917 19.599,9.75 19.1094,10.3125 C18.6198,10.875 17.9479,11.1563 17.0938,11.1563 C16.2292,11.1563 15.5521,10.875 15.0625,10.3125 C14.5729,9.75 14.3281,8.97917 14.3281,8 C14.3281,7.01042 14.5729,6.23698 15.0625,5.67969 C15.5521,5.1224 16.2292,4.84375 17.0938,4.84375 M26.0469,12.8281 L26.0469,13.5938 L20.3281,13.5938 L20.3281,12.8281 L26.0469,12.8281 M27.9375,10.0938 L27.9375,13.2813 L26.9375,13.2813 L26.9375,4.98438 L27.9375,4.98438 L27.9375,5.89063 C28.1354,5.53646 28.3932,5.27344 28.7109,5.10156 C29.0286,4.92969 29.4115,4.84375 29.8594,4.84375 C30.5885,4.84375 31.1797,5.13281 31.6328,5.71094 C32.0859,6.28906 32.3125,7.05208 32.3125,8 C32.3125,8.94792 32.0859,9.71094 31.6328,10.2891 C31.1797,10.8672 30.5885,11.1563 29.8594,11.1563 C29.4115,11.1563 29.0286,11.0703 28.7109,10.8984 C28.3932,10.7266 28.1354,10.4583 27.9375,10.0938 M31.2969,8 C31.2969,7.27083 31.1458,6.70052 30.8438,6.28906 C30.5417,5.8776 30.1302,5.67188 29.6094,5.67188 C29.0885,5.67188 28.6797,5.8776 28.3828,6.28906 C28.0859,6.70052 27.9375,7.27083 27.9375,8 C27.9375,8.72917 28.0859,9.29948 28.3828,9.71094 C28.6797,10.1224 29.0885,10.3281 29.6094,10.3281 C30.1302,10.3281 30.5417,10.1224 30.8438,9.71094 C31.1458,9.29948 31.2969,8.72917 31.2969,8 M33.8438,8.625 L33.8438,4.98438 L34.8281,4.98438 L34.8281,8.59375 C34.8281,9.15625 34.9401,9.58073 35.1641,9.86719 C35.388,10.1536 35.7188,10.2969 36.1563,10.2969 C36.6979,10.2969 37.1224,10.1276 37.4297,9.78906 C37.737,9.45052 37.8906,8.98438 37.8906,8.39063 L37.8906,4.98438 L38.875,4.98438 L38.875,11 L37.8906,11 L37.8906,10.0781 C37.651,10.4427 37.3724,10.7135 37.0547,10.8906 C36.737,11.0677 36.3698,11.1563 35.9531,11.1563 C35.2656,11.1563 34.7422,10.9401 34.3828,10.5078 C34.0234,10.0755 33.8438,9.44792 33.8438,8.625 M45.2344,8 C45.2344,7.27083 45.0833,6.70052 44.7813,6.28906 C44.4792,5.8776 44.0677,5.67188 43.5469,5.67188 C43.026,5.67188 42.6172,5.8776 42.3203,6.28906 C42.0234,6.70052 41.875,7.27083 41.875,8 C41.875,8.72917 42.0234,9.29948 42.3203,9.71094 C42.6172,10.1224 43.026,10.3281 43.5469,10.3281 C44.0677,10.3281 44.4792,10.1224 44.7813,9.71094 C45.0833,9.29948 45.2344,8.72917 45.2344,8 M41.875,5.89063 C42.0729,5.53646 42.3307,5.27344 42.6484,5.10156 C42.9661,4.92969 43.349,4.84375 43.7969,4.84375 C44.526,4.84375 45.1172,5.13281 45.5703,5.71094 C46.0234,6.28906 46.25,7.05208 46.25,8 C46.25,8.94792 46.0234,9.71094 45.5703,10.2891 C45.1172,10.8672 44.526,11.1563 43.7969,11.1563 C43.349,11.1563 42.9661,11.0703 42.6484,10.8984 C42.3307,10.7266 42.0729,10.4583 41.875,10.0938 L41.875,11 L40.875,11 L40.875,2.64063 L41.875,2.64063 L41.875,5.89063 M47.875,2.64063 L48.875,2.64063 L48.875,11 L47.875,11 L47.875,2.64063 M50.9219,4.98438 L51.9219,4.98438 L51.9219,11 L50.9219,11 L50.9219,4.98438 M50.9219,2.64063 L51.9219,2.64063 L51.9219,3.89063 L50.9219,3.89063 L50.9219,2.64063 M57.8125,5.15625 L57.8125,6.09375 C57.5313,5.94792 57.2396,5.84115 56.9375,5.77344 C56.6354,5.70573 56.3229,5.67188 56,5.67188 C55.5104,5.67188 55.1432,5.7474 54.8984,5.89844 C54.6536,6.04948 54.5313,6.27083 54.5313,6.5625 C54.5313,6.79167 54.6198,6.97135 54.7969,7.10156 C54.974,7.23177 55.3281,7.35938 55.8594,7.48438 L56.1875,7.5625 C56.8958,7.70833 57.3958,7.91927 57.6875,8.19531 C57.9792,8.47135 58.125,8.85417 58.125,9.34375 C58.125,9.89583 57.9063,10.3359 57.4688,10.6641 C57.0313,10.9922 56.4219,11.1563 55.6406,11.1563 C55.3177,11.1563 54.9818,11.125 54.6328,11.0625 C54.2839,11 53.9167,10.9063 53.5313,10.7813 L53.5313,9.76563 C53.8958,9.95313 54.2552,10.0938 54.6094,10.1875 C54.9635,10.2813 55.3177,10.3281 55.6719,10.3281 C56.1302,10.3281 56.4844,10.2474 56.7344,10.0859 C56.9844,9.92448 57.1094,9.70313 57.1094,9.42188 C57.1094,9.15104 57.0208,8.94271 56.8438,8.79688 C56.6667,8.65104 56.2708,8.51563 55.6563,8.39063 L55.3125,8.29688 C54.6979,8.17188 54.2552,7.97656 53.9844,7.71094 C53.7135,7.44531 53.5781,7.07813 53.5781,6.60938 C53.5781,6.04688 53.7786,5.61198 54.1797,5.30469 C54.5807,4.9974 55.151,4.84375 55.8906,4.84375 C56.2552,4.84375 56.599,4.86979 56.9219,4.92188 C57.2448,4.97396 57.5417,5.05208 57.8125,5.15625 M64.6875,7.375 L64.6875,11 L63.7031,11 L63.7031,7.40625 C63.7031,6.83333 63.5938,6.40625 63.375,6.125 C63.1563,5.84375 62.8229,5.70313 62.375,5.70313 C61.8438,5.70313 61.4245,5.8724 61.1172,6.21094 C60.8099,6.54948 60.6563,7.01042 60.6563,7.59375 L60.6563,11 L59.6563,11 L59.6563,2.64063 L60.6563,2.64063 L60.6563,5.92188 C60.8854,5.55729 61.1615,5.28646 61.4844,5.10938 C61.8073,4.93229 62.1771,4.84375 62.5938,4.84375 C63.2813,4.84375 63.8021,5.05729 64.1563,5.48438 C64.5104,5.91146 64.6875,6.54167 64.6875,7.375 M71.8125,7.75 L71.8125,8.23438 L67.2656,8.23438 C67.3073,8.91146 67.5104,9.42708 67.875,9.78125 C68.2396,10.1354 68.75,10.3125 69.4063,10.3125 C69.7917,10.3125 70.1615,10.2656 70.5156,10.1719 C70.8698,10.0781 71.224,9.94271 71.5781,9.76563 L71.5781,10.6875 C71.224,10.8438 70.8594,10.9609 70.4844,11.0391 C70.1094,11.1172 69.7344,11.1563 69.3594,11.1563 C68.3906,11.1563 67.6276,10.8776 67.0703,10.3203 C66.513,9.76302 66.2344,9.00521 66.2344,8.04688 C66.2344,7.06771 66.5,6.28906 67.0313,5.71094 C67.5625,5.13281 68.2813,4.84375 69.1875,4.84375 C69.9896,4.84375 70.6276,5.10417 71.1016,5.625 C71.5755,6.14583 71.8125,6.85417 71.8125,7.75 M70.8125,7.45313 C70.8125,6.91146 70.6641,6.47917 70.3672,6.15625 C70.0703,5.83333 69.6771,5.67188 69.1875,5.67188 C68.6354,5.67188 68.1953,5.82813 67.8672,6.14063 C67.5391,6.45313 67.349,6.89063 67.2969,7.45313 L70.8125,7.45313 M76.9063,5.90625 C76.8021,5.84375 76.6849,5.79688 76.5547,5.76563 C76.4245,5.73438 76.2813,5.71875 76.125,5.71875 C75.5625,5.71875 75.1328,5.90104 74.8359,6.26563 C74.5391,6.63021 74.3906,7.15104 74.3906,7.82813 L74.3906,11 L73.3906,11 L73.3906,4.98438 L74.3906,4.98438 L74.3906,5.92188 C74.5885,5.55729 74.8542,5.28646 75.1875,5.10938 C75.5208,4.93229 75.9271,4.84375 76.4063,4.84375 C76.4792,4.84375 76.5547,4.84635 76.6328,4.85156 C76.7109,4.85677 76.8021,4.86979 76.9063,4.89063 L76.9063,5.90625 M82.5156,12.8281 L82.5156,13.5938 L76.7969,13.5938 L76.7969,12.8281 L82.5156,12.8281 M88.4375,7.375 L88.4375,11 L87.4531,11 L87.4531,7.40625 C87.4531,6.83333 87.3438,6.40625 87.125,6.125 C86.9063,5.84375 86.5729,5.70313 86.125,5.70313 C85.5938,5.70313 85.1745,5.8724 84.8672,6.21094 C84.5599,6.54948 84.4063,7.01042 84.4063,7.59375 L84.4063,11 L83.4063,11 L83.4063,4.98438 L84.4063,4.98438 L84.4063,5.92188 C84.6354,5.55729 84.9115,5.28646 85.2344,5.10938 C85.5573,4.93229 85.9271,4.84375 86.3438,4.84375 C87.0313,4.84375 87.5521,5.05729 87.9063,5.48438 C88.2604,5.91146 88.4375,6.54167 88.4375,7.375 M92.75,5.67188 C92.2188,5.67188 91.7995,5.88021 91.4922,6.29688 C91.1849,6.71354 91.0313,7.28125 91.0313,8 C91.0313,8.71875 91.1823,9.28385 91.4844,9.69531 C91.7865,10.1068 92.2083,10.3125 92.75,10.3125 C93.2708,10.3125 93.6849,10.1068 93.9922,9.69531 C94.2995,9.28385 94.4531,8.71875 94.4531,8 C94.4531,7.28125 94.2995,6.71354 93.9922,6.29688 C93.6849,5.88021 93.2708,5.67188 92.75,5.67188 M92.75,4.84375 C93.6042,4.84375 94.276,5.1224 94.7656,5.67969 C95.2552,6.23698 95.5,7.01042 95.5,8 C95.5,8.97917 95.2552,9.75 94.7656,10.3125 C94.276,10.875 93.6042,11.1563 92.75,11.1563 C91.8854,11.1563 91.2083,10.875 90.7188,10.3125 C90.2292,9.75 89.9844,8.97917 89.9844,8 C89.9844,7.01042 90.2292,6.23698 90.7188,5.67969 C91.2083,5.1224 91.8854,4.84375 92.75,4.84375 M101.094,5.89063 L101.094,2.64063 L102.078,2.64063 L102.078,11 L101.094,11 L101.094,10.0938 C100.885,10.4583 100.622,10.7266 100.305,10.8984 C99.987,11.0703 99.6042,11.1563 99.1563,11.1563 C98.4375,11.1563 97.849,10.8672 97.3906,10.2891 C96.9323,9.71094 96.7031,8.94792 96.7031,8 C96.7031,7.05208 96.9323,6.28906 97.3906,5.71094 C97.849,5.13281 98.4375,4.84375 99.1563,4.84375 C99.6042,4.84375 99.987,4.92969 100.305,5.10156 C100.622,5.27344 100.885,5.53646 101.094,5.89063 M97.7188,8 C97.7188,8.72917 97.8698,9.29948 98.1719,9.71094 C98.474,10.1224 98.8854,10.3281 99.4063,10.3281 C99.9271,10.3281 100.339,10.1224 100.641,9.71094 C100.943,9.29948 101.094,8.72917 101.094,8 C101.094,7.27083 100.943,6.70052 100.641,6.28906 C100.339,5.8776 99.9271,5.67188 99.4063,5.67188 C98.8854,5.67188 98.474,5.8776 98.1719,6.28906 C97.8698,6.70052 97.7188,7.27083 97.7188,8 M109.25,7.75 L109.25,8.23438 L104.703,8.23438 C104.745,8.91146 104.948,9.42708 105.313,9.78125 C105.677,10.1354 106.188,10.3125 106.844,10.3125 C107.229,10.3125 107.599,10.2656 107.953,10.1719 C108.307,10.0781 108.661,9.94271 109.016,9.76563 L109.016,10.6875 C108.661,10.8438 108.297,10.9609 107.922,11.0391 C107.547,11.1172 107.172,11.1563 106.797,11.1563 C105.828,11.1563 105.065,10.8776 104.508,10.3203 C103.951,9.76302 103.672,9.00521 103.672,8.04688 C103.672,7.06771 103.938,6.28906 104.469,5.71094 C105,5.13281 105.719,4.84375 106.625,4.84375 C107.427,4.84375 108.065,5.10417 108.539,5.625 C109.013,6.14583 109.25,6.85417 109.25,7.75 M108.25,7.45313 C108.25,6.91146 108.102,6.47917 107.805,6.15625 C107.508,5.83333 107.115,5.67188 106.625,5.67188 C106.073,5.67188 105.633,5.82813 105.305,6.14063 C104.977,6.45313 104.786,6.89063 104.734,7.45313 L108.25,7.45313 M115.438,12.8281 L115.438,13.5938 L109.719,13.5938 L109.719,12.8281 L115.438,12.8281 M119.797,6.67188 C120.318,6.78646 120.724,7.01823 121.016,7.36719 C121.307,7.71615 121.453,8.15104 121.453,8.67188 C121.453,9.46354 121.18,10.0755 120.633,10.5078 C120.086,10.9401 119.313,11.1563 118.313,11.1563 C117.969,11.1563 117.62,11.1224 117.266,11.0547 C116.911,10.987 116.547,10.8906 116.172,10.7656 L116.172,9.70313 C116.474,9.88021 116.802,10.0156 117.156,10.1094 C117.51,10.2031 117.885,10.25 118.281,10.25 C118.958,10.25 119.474,10.1146 119.828,9.84375 C120.182,9.57292 120.359,9.18229 120.359,8.67188 C120.359,8.19271 120.195,7.82031 119.867,7.55469 C119.539,7.28906 119.078,7.15625 118.484,7.15625 L117.547,7.15625 L117.547,6.26563 L118.531,6.26563 C119.063,6.26563 119.469,6.15885 119.75,5.94531 C120.031,5.73177 120.172,5.42708 120.172,5.03125 C120.172,4.61458 120.026,4.29688 119.734,4.07813 C119.443,3.85938 119.026,3.75 118.484,3.75 C118.193,3.75 117.875,3.78125 117.531,3.84375 C117.188,3.90625 116.813,4.00521 116.406,4.14063 L116.406,3.17188 C116.823,3.05729 117.211,2.97135 117.57,2.91406 C117.93,2.85677 118.266,2.82813 118.578,2.82813 C119.401,2.82813 120.055,3.01563 120.539,3.39063 C121.023,3.76563 121.266,4.27604 121.266,4.92188 C121.266,5.35938 121.138,5.73177 120.883,6.03906 C120.628,6.34635 120.266,6.55729 119.797,6.67188 M123.5,2.98438 L127.766,2.98438 L127.766,3.89063 L124.5,3.89063 L124.5,5.85938 C124.656,5.80729 124.813,5.76823 124.969,5.74219 C125.125,5.71615 125.281,5.70313 125.438,5.70313 C126.333,5.70313 127.042,5.94792 127.563,6.4375 C128.083,6.92708 128.344,7.58854 128.344,8.42188 C128.344,9.28646 128.076,9.95833 127.539,10.4375 C127.003,10.9167 126.245,11.1563 125.266,11.1563 C124.932,11.1563 124.591,11.1276 124.242,11.0703 C123.893,11.013 123.531,10.9271 123.156,10.8125 L123.156,9.71875 C123.479,9.89583 123.813,10.0286 124.156,10.1172 C124.5,10.2057 124.865,10.25 125.25,10.25 C125.875,10.25 126.367,10.0859 126.727,9.75781 C127.086,9.42969 127.266,8.98438 127.266,8.42188 C127.266,7.86979 127.086,7.42969 126.727,7.10156 C126.367,6.77344 125.875,6.60938 125.25,6.60938 C124.958,6.60938 124.669,6.64323 124.383,6.71094 C124.096,6.77865 123.802,6.88021 123.5,7.01563 L123.5,2.98438 M130.5,10.8281 L130.5,9.84375 C130.771,9.96875 131.047,10.0677 131.328,10.1406 C131.609,10.2135 131.885,10.25 132.156,10.25 C132.875,10.25 133.422,10.0078 133.797,9.52344 C134.172,9.03906 134.385,8.30729 134.438,7.32813 C134.229,7.63021 133.966,7.86458 133.648,8.03125 C133.331,8.19792 132.979,8.28125 132.594,8.28125 C131.792,8.28125 131.156,8.03906 130.688,7.55469 C130.219,7.07031 129.984,6.40625 129.984,5.5625 C129.984,4.73958 130.229,4.07813 130.719,3.57813 C131.208,3.07813 131.859,2.82813 132.672,2.82813 C133.599,2.82813 134.305,3.1849 134.789,3.89844 C135.273,4.61198 135.516,5.64583 135.516,7 C135.516,8.26042 135.216,9.26823 134.617,10.0234 C134.018,10.7786 133.214,11.1563 132.203,11.1563 C131.932,11.1563 131.656,11.1302 131.375,11.0781 C131.094,11.026 130.802,10.9427 130.5,10.8281 M132.672,7.4375 C133.151,7.4375 133.534,7.27083 133.82,6.9375 C134.107,6.60417 134.25,6.14583 134.25,5.5625 C134.25,4.98958 134.107,4.53385 133.82,4.19531 C133.534,3.85677 133.151,3.6875 132.672,3.6875 C132.182,3.6875 131.794,3.85677 131.508,4.19531 C131.221,4.53385 131.078,4.98958 131.078,5.5625 C131.078,6.14583 131.221,6.60417 131.508,6.9375 C131.794,7.27083 132.182,7.4375 132.672,7.4375 M139.906,6.5625 C139.427,6.5625 139.044,6.72917 138.758,7.0625 C138.471,7.39583 138.328,7.84896 138.328,8.42188 C138.328,9.00521 138.471,9.46354 138.758,9.79688 C139.044,10.1302 139.427,10.2969 139.906,10.2969 C140.396,10.2969 140.784,10.1302 141.07,9.79688 C141.357,9.46354 141.5,9.00521 141.5,8.42188 C141.5,7.84896 141.357,7.39583 141.07,7.0625 C140.784,6.72917 140.396,6.5625 139.906,6.5625 M142.063,3.15625 L142.063,4.14063 C141.792,4.01563 141.518,3.91927 141.242,3.85156 C140.966,3.78385 140.693,3.75 140.422,3.75 C139.703,3.75 139.154,3.99219 138.773,4.47656 C138.393,4.96094 138.177,5.69271 138.125,6.67188 C138.344,6.35938 138.612,6.11979 138.93,5.95313 C139.247,5.78646 139.599,5.70313 139.984,5.70313 C140.786,5.70313 141.422,5.94792 141.891,6.4375 C142.359,6.92708 142.594,7.58854 142.594,8.42188 C142.594,9.24479 142.349,9.90625 141.859,10.4063 C141.37,10.9063 140.719,11.1563 139.906,11.1563 C138.979,11.1563 138.271,10.7995 137.781,10.0859 C137.292,9.3724 137.047,8.34375 137.047,7 C137.047,5.72917 137.349,4.71615 137.953,3.96094 C138.557,3.20573 139.365,2.82813 140.375,2.82813 C140.646,2.82813 140.919,2.85677 141.195,2.91406 C141.471,2.97135 141.76,3.05208 142.063,3.15625 M145.375,10.0938 L149.156,10.0938 L149.156,11 L144.078,11 L144.078,10.0938 C144.484,9.66667 145.044,9.09375 145.758,8.375 C146.471,7.65625 146.917,7.19271 147.094,6.98438 C147.438,6.58854 147.68,6.25521 147.82,5.98438 C147.961,5.71354 148.031,5.44792 148.031,5.1875 C148.031,4.76042 147.883,4.41406 147.586,4.14844 C147.289,3.88281 146.896,3.75 146.406,3.75 C146.073,3.75 145.716,3.8099 145.336,3.92969 C144.956,4.04948 144.552,4.22917 144.125,4.46875 L144.125,3.375 C144.563,3.19792 144.971,3.0625 145.352,2.96875 C145.732,2.875 146.078,2.82813 146.391,2.82813 C147.224,2.82813 147.888,3.03646 148.383,3.45313 C148.878,3.86979 149.125,4.42708 149.125,5.125 C149.125,5.45833 149.063,5.77083 148.938,6.0625 C148.813,6.35417 148.589,6.70313 148.266,7.10938 C148.172,7.21354 147.885,7.51302 147.406,8.00781 C146.927,8.5026 146.25,9.19792 145.375,10.0938 M155.859,12.8281 L155.859,13.5938 L150.141,13.5938 L150.141,12.8281 L155.859,12.8281 M157.109,10.0938 L158.891,10.0938 L158.891,3.96875 L156.953,4.35938 L156.953,3.375 L158.875,2.98438 L159.969,2.98438 L159.969,10.0938 L161.734,10.0938 L161.734,11 L157.109,11 L157.109,10.0938 M166.359,6.5625 C165.88,6.5625 165.497,6.72917 165.211,7.0625 C164.924,7.39583 164.781,7.84896 164.781,8.42188 C164.781,9.00521 164.924,9.46354 165.211,9.79688 C165.497,10.1302 165.88,10.2969 166.359,10.2969 C166.849,10.2969 167.237,10.1302 167.523,9.79688 C167.81,9.46354 167.953,9.00521 167.953,8.42188 C167.953,7.84896 167.81,7.39583 167.523,7.0625 C167.237,6.72917 166.849,6.5625 166.359,6.5625 M168.516,3.15625 L168.516,4.14063 C168.245,4.01563 167.971,3.91927 167.695,3.85156 C167.419,3.78385 167.146,3.75 166.875,3.75 C166.156,3.75 165.607,3.99219 165.227,4.47656 C164.846,4.96094 164.63,5.69271 164.578,6.67188 C164.797,6.35938 165.065,6.11979 165.383,5.95313 C165.701,5.78646 166.052,5.70313 166.438,5.70313 C167.24,5.70313 167.875,5.94792 168.344,6.4375 C168.813,6.92708 169.047,7.58854 169.047,8.42188 C169.047,9.24479 168.802,9.90625 168.313,10.4063 C167.823,10.9063 167.172,11.1563 166.359,11.1563 C165.432,11.1563 164.724,10.7995 164.234,10.0859 C163.745,9.3724 163.5,8.34375 163.5,7 C163.5,5.72917 163.802,4.71615 164.406,3.96094 C165.01,3.20573 165.818,2.82813 166.828,2.82813 C167.099,2.82813 167.372,2.85677 167.648,2.91406 C167.924,2.97135 168.214,3.05208 168.516,3.15625 M173.219,7.1875 C172.698,7.1875 172.292,7.32552 172,7.60156 C171.708,7.8776 171.563,8.26042 171.563,8.75 C171.563,9.22917 171.708,9.60677 172,9.88281 C172.292,10.1589 172.698,10.2969 173.219,10.2969 C173.729,10.2969 174.133,10.1589 174.43,9.88281 C174.727,9.60677 174.875,9.22917 174.875,8.75 C174.875,8.26042 174.729,7.8776 174.438,7.60156 C174.146,7.32552 173.74,7.1875 173.219,7.1875 M172.125,6.73438 C171.667,6.61979 171.307,6.40365 171.047,6.08594 C170.786,5.76823 170.656,5.38021 170.656,4.92188 C170.656,4.27604 170.883,3.76563 171.336,3.39063 C171.789,3.01563 172.417,2.82813 173.219,2.82813 C174.01,2.82813 174.635,3.01563 175.094,3.39063 C175.552,3.76563 175.781,4.27604 175.781,4.92188 C175.781,5.38021 175.651,5.76823 175.391,6.08594 C175.13,6.40365 174.771,6.61979 174.313,6.73438 C174.833,6.84896 175.24,7.08333 175.531,7.4375 C175.823,7.79167 175.969,8.22917 175.969,8.75 C175.969,9.52083 175.732,10.1146 175.258,10.5313 C174.784,10.9479 174.104,11.1563 173.219,11.1563 C172.333,11.1563 171.654,10.9479 171.18,10.5313 C170.706,10.1146 170.469,9.52083 170.469,8.75 C170.469,8.22917 170.615,7.79167 170.906,7.4375 C171.198,7.08333 171.604,6.84896 172.125,6.73438 M171.734,5.01563 C171.734,5.43229 171.865,5.75781 172.125,5.99219 C172.385,6.22656 172.75,6.34375 173.219,6.34375 C173.677,6.34375 174.039,6.22656 174.305,5.99219 C174.57,5.75781 174.703,5.43229 174.703,5.01563 C174.703,4.59896 174.57,4.27344 174.305,4.03906 C174.039,3.80469 173.677,3.6875 173.219,3.6875 C172.75,3.6875 172.385,3.80469 172.125,4.03906 C171.865,4.27344 171.734,4.59896 171.734,5.01563 M177.891,2.98438 L182.156,2.98438 L182.156,3.89063 L178.891,3.89063 L178.891,5.85938 C179.047,5.80729 179.203,5.76823 179.359,5.74219 C179.516,5.71615 179.672,5.70313 179.828,5.70313 C180.724,5.70313 181.432,5.94792 181.953,6.4375 C182.474,6.92708 182.734,7.58854 182.734,8.42188 C182.734,9.28646 182.466,9.95833 181.93,10.4375 C181.393,10.9167 180.635,11.1563 179.656,11.1563 C179.323,11.1563 178.982,11.1276 178.633,11.0703 C178.284,11.013 177.922,10.9271 177.547,10.8125 L177.547,9.71875 C177.87,9.89583 178.203,10.0286 178.547,10.1172 C178.891,10.2057 179.255,10.25 179.641,10.25 C180.266,10.25 180.758,10.0859 181.117,9.75781 C181.477,9.42969 181.656,8.98438 181.656,8.42188 C181.656,7.86979 181.477,7.42969 181.117,7.10156 C180.758,6.77344 180.266,6.60938 179.641,6.60938 C179.349,6.60938 179.06,6.64323 178.773,6.71094 C178.487,6.77865 178.193,6.88021 177.891,7.01563 L177.891,2.98438 M188.156,6.67188 C188.677,6.78646 189.083,7.01823 189.375,7.36719 C189.667,7.71615 189.813,8.15104 189.813,8.67188 C189.813,9.46354 189.539,10.0755 188.992,10.5078 C188.445,10.9401 187.672,11.1563 186.672,11.1563 C186.328,11.1563 185.979,11.1224 185.625,11.0547 C185.271,10.987 184.906,10.8906 184.531,10.7656 L184.531,9.70313 C184.833,9.88021 185.161,10.0156 185.516,10.1094 C185.87,10.2031 186.245,10.25 186.641,10.25 C187.318,10.25 187.833,10.1146 188.188,9.84375 C188.542,9.57292 188.719,9.18229 188.719,8.67188 C188.719,8.19271 188.555,7.82031 188.227,7.55469 C187.898,7.28906 187.438,7.15625 186.844,7.15625 L185.906,7.15625 L185.906,6.26563 L186.891,6.26563 C187.422,6.26563 187.828,6.15885 188.109,5.94531 C188.391,5.73177 188.531,5.42708 188.531,5.03125 C188.531,4.61458 188.385,4.29688 188.094,4.07813 C187.802,3.85938 187.385,3.75 186.844,3.75 C186.552,3.75 186.234,3.78125 185.891,3.84375 C185.547,3.90625 185.172,4.00521 184.766,4.14063 L184.766,3.17188 C185.182,3.05729 185.57,2.97135 185.93,2.91406 C186.289,2.85677 186.625,2.82813 186.938,2.82813 C187.76,2.82813 188.414,3.01563 188.898,3.39063 C189.383,3.76563 189.625,4.27604 189.625,4.92188 C189.625,5.35938 189.497,5.73177 189.242,6.03906 C188.987,6.34635 188.625,6.55729 188.156,6.67188 M191.859,2.98438 L196.125,2.98438 L196.125,3.89063 L192.859,3.89063 L192.859,5.85938 C193.016,5.80729 193.172,5.76823 193.328,5.74219 C193.484,5.71615 193.641,5.70313 193.797,5.70313 C194.693,5.70313 195.401,5.94792 195.922,6.4375 C196.443,6.92708 196.703,7.58854 196.703,8.42188 C196.703,9.28646 196.435,9.95833 195.898,10.4375 C195.362,10.9167 194.604,11.1563 193.625,11.1563 C193.292,11.1563 192.951,11.1276 192.602,11.0703 C192.253,11.013 191.891,10.9271 191.516,10.8125 L191.516,9.71875 C191.839,9.89583 192.172,10.0286 192.516,10.1172 C192.859,10.2057 193.224,10.25 193.609,10.25 C194.234,10.25 194.727,10.0859 195.086,9.75781 C195.445,9.42969 195.625,8.98438 195.625,8.42188 C195.625,7.86979 195.445,7.42969 195.086,7.10156 C194.727,6.77344 194.234,6.60938 193.609,6.60938 C193.318,6.60938 193.029,6.64323 192.742,6.71094 C192.456,6.77865 192.161,6.88021 191.859,7.01563 L191.859,2.98438 M201.281,6.5625 C200.802,6.5625 200.419,6.72917 200.133,7.0625 C199.846,7.39583 199.703,7.84896 199.703,8.42188 C199.703,9.00521 199.846,9.46354 200.133,9.79688 C200.419,10.1302 200.802,10.2969 201.281,10.2969 C201.771,10.2969 202.159,10.1302 202.445,9.79688 C202.732,9.46354 202.875,9.00521 202.875,8.42188 C202.875,7.84896 202.732,7.39583 202.445,7.0625 C202.159,6.72917 201.771,6.5625 201.281,6.5625 M203.438,3.15625 L203.438,4.14063 C203.167,4.01563 202.893,3.91927 202.617,3.85156 C202.341,3.78385 202.068,3.75 201.797,3.75 C201.078,3.75 200.529,3.99219 200.148,4.47656 C199.768,4.96094 199.552,5.69271 199.5,6.67188 C199.719,6.35938 199.987,6.11979 200.305,5.95313 C200.622,5.78646 200.974,5.70313 201.359,5.70313 C202.161,5.70313 202.797,5.94792 203.266,6.4375 C203.734,6.92708 203.969,7.58854 203.969,8.42188 C203.969,9.24479 203.724,9.90625 203.234,10.4063 C202.745,10.9063 202.094,11.1563 201.281,11.1563 C200.354,11.1563 199.646,10.7995 199.156,10.0859 C198.667,9.3724 198.422,8.34375 198.422,7 C198.422,5.72917 198.724,4.71615 199.328,3.96094 C199.932,3.20573 200.74,2.82813 201.75,2.82813 C202.021,2.82813 202.294,2.85677 202.57,2.91406 C202.846,2.97135 203.135,3.05208 203.438,3.15625 M208.141,3.6875 C207.578,3.6875 207.156,3.96354 206.875,4.51563 C206.594,5.06771 206.453,5.89583 206.453,7 C206.453,8.09375 206.594,8.91667 206.875,9.46875 C207.156,10.0208 207.578,10.2969 208.141,10.2969 C208.703,10.2969 209.125,10.0208 209.406,9.46875 C209.688,8.91667 209.828,8.09375 209.828,7 C209.828,5.89583 209.688,5.06771 209.406,4.51563 C209.125,3.96354 208.703,3.6875 208.141,3.6875 M208.141,2.82813 C209.036,2.82813 209.721,3.1849 210.195,3.89844 C210.669,4.61198 210.906,5.64583 210.906,7 C210.906,8.34375 210.669,9.3724 210.195,10.0859 C209.721,10.7995 209.036,11.1563 208.141,11.1563 C207.245,11.1563 206.557,10.7995 206.078,10.0859 C205.599,9.3724 205.359,8.34375 205.359,7 C205.359,5.64583 205.599,4.61198 206.078,3.89844 C206.557,3.1849 207.245,2.82813 208.141,2.82813 M212.828,10.8281 L212.828,9.84375 C213.099,9.96875 213.375,10.0677 213.656,10.1406 C213.938,10.2135 214.214,10.25 214.484,10.25 C215.203,10.25 215.75,10.0078 216.125,9.52344 C216.5,9.03906 216.714,8.30729 216.766,7.32813 C216.557,7.63021 216.294,7.86458 215.977,8.03125 C215.659,8.19792 215.307,8.28125 214.922,8.28125 C214.12,8.28125 213.484,8.03906 213.016,7.55469 C212.547,7.07031 212.313,6.40625 212.313,5.5625 C212.313,4.73958 212.557,4.07813 213.047,3.57813 C213.536,3.07813 214.188,2.82813 215,2.82813 C215.927,2.82813 216.633,3.1849 217.117,3.89844 C217.602,4.61198 217.844,5.64583 217.844,7 C217.844,8.26042 217.544,9.26823 216.945,10.0234 C216.346,10.7786 215.542,11.1563 214.531,11.1563 C214.26,11.1563 213.984,11.1302 213.703,11.0781 C213.422,11.026 213.13,10.9427 212.828,10.8281 M215,7.4375 C215.479,7.4375 215.862,7.27083 216.148,6.9375 C216.435,6.60417 216.578,6.14583 216.578,5.5625 C216.578,4.98958 216.435,4.53385 216.148,4.19531 C215.862,3.85677 215.479,3.6875 215,3.6875 C214.51,3.6875 214.122,3.85677 213.836,4.19531 C213.549,4.53385 213.406,4.98958 213.406,5.5625 C213.406,6.14583 213.549,6.60417 213.836,6.9375 C214.122,7.27083 214.51,7.4375 215,7.4375 M219.969,10.0938 L221.75,10.0938 L221.75,3.96875 L219.813,4.35938 L219.813,3.375 L221.734,2.98438 L222.828,2.98438 L222.828,10.0938 L224.594,10.0938 L224.594,11 L219.969,11 L219.969,10.0938 M229.094,3.6875 C228.531,3.6875 228.109,3.96354 227.828,4.51563 C227.547,5.06771 227.406,5.89583 227.406,7 C227.406,8.09375 227.547,8.91667 227.828,9.46875 C228.109,10.0208 228.531,10.2969 229.094,10.2969 C229.656,10.2969 230.078,10.0208 230.359,9.46875 C230.641,8.91667 230.781,8.09375 230.781,7 C230.781,5.89583 230.641,5.06771 230.359,4.51563 C230.078,3.96354 229.656,3.6875 229.094,3.6875 M229.094,2.82813 C229.99,2.82813 230.674,3.1849 231.148,3.89844 C231.622,4.61198 231.859,5.64583 231.859,7 C231.859,8.34375 231.622,9.3724 231.148,10.0859 C230.674,10.7995 229.99,11.1563 229.094,11.1563 C228.198,11.1563 227.51,10.7995 227.031,10.0859 C226.552,9.3724 226.313,8.34375 226.313,7 C226.313,5.64583 226.552,4.61198 227.031,3.89844 C227.51,3.1849 228.198,2.82813 229.094,2.82813 M234.688,10.0938 L238.469,10.0938 L238.469,11 L233.391,11 L233.391,10.0938 C233.797,9.66667 234.357,9.09375 235.07,8.375 C235.784,7.65625 236.229,7.19271 236.406,6.98438 C236.75,6.58854 236.992,6.25521 237.133,5.98438 C237.273,5.71354 237.344,5.44792 237.344,5.1875 C237.344,4.76042 237.195,4.41406 236.898,4.14844 C236.602,3.88281 236.208,3.75 235.719,3.75 C235.385,3.75 235.029,3.8099 234.648,3.92969 C234.268,4.04948 233.865,4.22917 233.438,4.46875 L233.438,3.375 C233.875,3.19792 234.284,3.0625 234.664,2.96875 C235.044,2.875 235.391,2.82813 235.703,2.82813 C236.536,2.82813 237.201,3.03646 237.695,3.45313 C238.19,3.86979 238.438,4.42708 238.438,5.125 C238.438,5.45833 238.375,5.77083 238.25,6.0625 C238.125,6.35417 237.901,6.70313 237.578,7.10938 C237.484,7.21354 237.198,7.51302 236.719,8.00781 C236.24,8.5026 235.563,9.19792 234.688,10.0938 M240.922,10.0938 L242.703,10.0938 L242.703,3.96875 L240.766,4.35938 L240.766,3.375 L242.688,2.98438 L243.781,2.98438 L243.781,10.0938 L245.547,10.0938 L245.547,11 L240.922,11 L240.922,10.0938"/>
</g>

<g fill="none" stroke="#000000" stroke-opacity="1" stroke-width="1" stroke-linecap="square" stroke-linejoin="bevel" transform="matrix(1.99955,0,0,1.99955,187.571,21.9951)"
font-family="sans" font-size="11" font-weight="100" font-style="normal" 
>
</g>

<g fill="none" stroke="#000000" stroke-opacity="1" stroke-width="1" stroke-linecap="square" stroke-linejoin="bevel" transform="matrix(1.99955,0,0,1.99955,187.571,21.9951)"
font-family="Ubuntu" font-size="11" font-weight="400" font-style="normal" 
>
</g>

<g fill="none" stroke="#000000" stroke-opacity="1" stroke-width="1" stroke-linecap="square" stroke-linejoin="bevel" transform="matrix(1.99955,0,0,1.99955,0,71.9839)"
font-family="Ubuntu" font-size="11" font-weight="400" font-style="normal" 
>
</g>

<g fill="none" stroke="#000000" stroke-opacity="1" stroke-width="1" stroke-linecap="square" stroke-linejoin="bevel" transform="matrix(1.99955,0,0,1.99955,0,71.9839)"
font-family="Ubuntu" font-size="11" font-weight="400" font-style="normal" 
>
</g>

<g fill="none" stroke="#000000" stroke-opacity="1" stroke-width="1" stroke-linecap="square" stroke-linejoin="bevel" transform="matrix(1.99955,0,0,1.99955,0,71.9839)"
font-family="Ubuntu" font-size="11" font-weight="400" font-style="normal" 
>
</g>

<g fill="none" stroke="#000000" stroke-opacity="1" stroke-width="1" stroke-linecap="square" stroke-linejoin="round" transform="matrix(1.99955,0,0,1.99955,0,71.9839)"
font-family="Ubuntu" font-size="11" font-weight="400" font-style="normal" 
>
<path vector-effect="none" fill-rule="evenodd" d="M533.4,-18 C534.47,-18 535.57,-18 536.67,-18 "/>
</g>

<g fill="none" stroke="#000000" stroke-opacity="1" stroke-width="1" stroke-linecap="square" stroke-linejoin="bevel" transform="matrix(1.99955,0,0,1.99955,0,71.9839)"
font-family="Ubuntu" font-size="11" font-weight="400" font-style="normal" 
>
</g>

<g fill="none" stroke="#000000" stroke-opacity="1" stroke-width="1" stroke-linecap="square" stroke-linejoin="bevel" transform="matrix(1.99955,0,0,1.99955,0,71.9839)"
font-family="Ubuntu" font-size="11" font-weight="400" font-style="normal" 
>
</g>

<g fill="#000000" fill-opacity="1" stroke="#000000" stroke-opacity="1" stroke-width="1" stroke-linecap="square" stroke-linejoin="round" transform="matrix(1.99955,0,0,1.99955,0,71.9839)"
font-family="Ubuntu" font-size="11" font-weight="400" font-style="normal" 
>
<path vector-effect="none" fill-rule="evenodd" d="M536.67,-18 L536.67,-14.3775 L547.02,-18 L536.67,-21.6225 L536.67,-18"/>
</g>

<g fill="none" stroke="#000000" stroke-opacity="1" stroke-width="1" stroke-linecap="square" stroke-linejoin="bevel" transform="matrix(1.99955,0,0,1.99955,0,71.9839)"
font-family="Ubuntu" font-size="11" font-weight="400" font-style="normal" 
>
</g>

<g fill="none" stroke="#000000" stroke-opacity="1" stroke-width="1" stroke-linecap="square" stroke-linejoin="bevel" transform="matrix(1.99955,0,0,1.99955,0,71.9839)"
font-family="Ubuntu" font-size="11" font-weight="400" font-style="normal" 
>
</g>

<g fill="none" stroke="#000000" stroke-opacity="1" stroke-width="1" stroke-linecap="square" stroke-linejoin="bevel" transform="matrix(1.99955,0,0,1.99955,0,71.9839)"
font-family="Ubuntu" font-size="11" font-weight="400" font-style="normal" 
>
</g>

<g fill="none" stroke="#000000" stroke-opacity="1" stroke-width="1" stroke-linecap="square" stroke-linejoin="bevel" transform="matrix(1.99955,0,0,1.99955,0,71.9839)"
font-family="Ubuntu" font-size="11" font-weight="400" font-style="normal" 
>
</g>

<g fill="none" stroke="#000000" stroke-opacity="1" stroke-width="1" stroke-linecap="square" stroke-linejoin="round" transform="matrix(1.99955,0,0,1.99955,0,71.9839)"
font-family="Ubuntu" font-size="11" font-weight="400" font-style="normal" 
>
<path vector-effect="none" fill-rule="evenodd" d="M434.38,-18 C435.58,-18 436.77,-18 437.95,-18 "/>
</g>

<g fill="none" stroke="#000000" stroke-opacity="1" stroke-width="1" stroke-linecap="square" stroke-linejoin="bevel" transform="matrix(1.99955,0,0,1.99955,0,71.9839)"
font-family="Ubuntu" font-size="11" font-weight="400" font-style="normal" 
>
</g>

<g fill="none" stroke="#000000" stroke-opacity="1" stroke-width="1" stroke-linecap="square" stroke-linejoin="bevel" transform="matrix(1.99955,0,0,1.99955,0,71.9839)"
font-family="Ubuntu" font-size="11" font-weight="400" font-style="normal" 
>
</g>

<g fill="#000000" fill-opacity="1" stroke="#000000" stroke-opacity="1" stroke-width="1" stroke-linecap="square" stroke-linejoin="round" transform="matrix(1.99955,0,0,1.99955,0,71.9839)"
font-family="Ubuntu" font-size="11" font-weight="400" font-style="normal" 
>
<path vector-effect="none" fill-rule="evenodd" d="M437.95,-18 L437.95,-14.4335 L448.14,-18 L437.95,-21.5665 L437.95,-18"/>
</g>

<g fill="none" stroke="#000000" stroke-opacity="1" stroke-width="1" stroke-linecap="square" stroke-linejoin="bevel" transform="matrix(1.99955,0,0,1.99955,0,71.9839)"
font-family="Ubuntu" font-size="11" font-weight="400" font-style="normal" 
>
</g>

<g fill="none" stroke="#000000" stroke-opacity="1" stroke-width="1" stroke-linecap="square" stroke-linejoin="bevel" transform="matrix(1,0,0,1,0,0)"
font-family="Ubuntu" font-size="11" font-weight="400" font-style="normal" 
>
</g>
</g>
</svg>
