<?xml version="1.0" encoding="UTF-8" standalone="no"?>
<svg width="457.906mm" height="25.4mm"
 xmlns="http://www.w3.org/2000/svg" xmlns:xlink="http://www.w3.org/1999/xlink"  version="1.2" baseProfile="tiny">
<title>Qt SVG Document</title>
<desc>Generated with Qt</desc>
<defs>
</defs>
<g fill="none" stroke="black" stroke-width="1" fill-rule="evenodd" stroke-linecap="square" stroke-linejoin="bevel" >

<g fill="none" stroke="#000000" stroke-opacity="1" stroke-width="1" stroke-linecap="square" stroke-linejoin="bevel" transform="matrix(1,0,0,1,0,0)"
font-family="Ubuntu" font-size="11" font-weight="400" font-style="normal" 
>
</g>

<g fill="none" stroke="#000000" stroke-opacity="1" stroke-width="1" stroke-linecap="square" stroke-linejoin="bevel" transform="matrix(1,0,0,1,0,0)"
font-family="Ubuntu" font-size="11" font-weight="400" font-style="normal" 
>
</g>

<g fill="none" stroke="#000000" stroke-opacity="1" stroke-width="1" stroke-linecap="square" stroke-linejoin="bevel" transform="matrix(1.99983,0,0,1.99983,0.00719937,71.9937)"
font-family="Ubuntu" font-size="11" font-weight="400" font-style="normal" 
>
</g>

<g fill="#ffffff" fill-opacity="1" stroke="none" transform="matrix(1.99983,0,0,1.99983,0.00719937,71.9937)"
font-family="Ubuntu" font-size="11" font-weight="400" font-style="normal" 
>
<rect x="-0.0036" y="-36" width="649.056" height="36"/>
</g>

<g fill="none" stroke="#000000" stroke-opacity="1" stroke-width="1" stroke-linecap="square" stroke-linejoin="bevel" transform="matrix(1.99983,0,0,1.99983,0.00719937,71.9937)"
font-family="Ubuntu" font-size="11" font-weight="400" font-style="normal" 
>
</g>

<g fill="none" stroke="#000000" stroke-opacity="1" stroke-width="1" stroke-linecap="square" stroke-linejoin="bevel" transform="matrix(1.99983,0,0,1.99983,0.00719937,71.9937)"
font-family="Ubuntu" font-size="11" font-weight="400" font-style="normal" 
>
</g>

<g fill="none" stroke="#000000" stroke-opacity="1" stroke-width="1" stroke-linecap="square" stroke-linejoin="bevel" transform="matrix(1.99983,0,0,1.99983,0.00719937,71.9937)"
font-family="Ubuntu" font-size="11" font-weight="400" font-style="normal" 
>
</g>

<g fill="none" stroke="#000000" stroke-opacity="1" stroke-width="1" stroke-linecap="square" stroke-linejoin="bevel" transform="matrix(1.99983,0,0,1.99983,0.00719937,71.9937)"
font-family="Ubuntu" font-size="11" font-weight="400" font-style="normal" 
>
</g>

<g fill="none" stroke="#000000" stroke-opacity="1" stroke-width="1" stroke-linecap="square" stroke-linejoin="round" transform="matrix(1.99983,0,0,1.99983,0.00719937,71.9937)"
font-family="Ubuntu" font-size="11" font-weight="400" font-style="normal" 
>
<rect x="378.471" y="-35.5" width="103.998" height="35"/>
</g>

<g fill="none" stroke="#000000" stroke-opacity="1" stroke-width="1" stroke-linecap="square" stroke-linejoin="bevel" transform="matrix(1.99983,0,0,1.99983,0.00719937,71.9937)"
font-family="Ubuntu" font-size="11" font-weight="400" font-style="normal" 
>
</g>

<g fill="none" stroke="#000000" stroke-opacity="1" stroke-width="1" stroke-linecap="square" stroke-linejoin="bevel" transform="matrix(1.99983,0,0,1.99983,792.847,21.9981)"
font-family="Ubuntu" font-size="11" font-weight="400" font-style="normal" 
>
</g>

<g fill="none" stroke="#000000" stroke-opacity="1" stroke-width="1" stroke-linecap="square" stroke-linejoin="bevel" transform="matrix(1.99983,0,0,1.99983,792.847,21.9981)"
font-family="sans" font-size="11" font-weight="100" font-style="normal" 
>
</g>

<g fill="#000000" fill-opacity="1" stroke="#000000" stroke-opacity="1" stroke-width="1" stroke-linecap="square" stroke-linejoin="round" transform="matrix(1.99983,0,0,1.99983,792.847,21.9981)"
font-family="sans" font-size="11" font-weight="100" font-style="normal" 
>
<path vector-effect="none" fill-rule="nonzero" d="M2.79688,2.98438 L3.70313,2.98438 L0.90625,12.0156 L0,12.0156 L2.79688,2.98438 M5.71875,3.28125 L5.71875,4.98438 L7.75,4.98438 L7.75,5.75 L5.71875,5.75 L5.71875,9.01563 C5.71875,9.50521 5.78646,9.82031 5.92188,9.96094 C6.05729,10.1016 6.32813,10.1719 6.73438,10.1719 L7.75,10.1719 L7.75,11 L6.73438,11 C5.97396,11 5.44792,10.8568 5.15625,10.5703 C4.86458,10.2839 4.71875,9.76563 4.71875,9.01563 L4.71875,5.75 L4,5.75 L4,4.98438 L4.71875,4.98438 L4.71875,3.28125 L5.71875,3.28125 M11.7813,7.96875 C10.9896,7.96875 10.4401,8.0625 10.1328,8.25 C9.82552,8.4375 9.67188,8.75 9.67188,9.1875 C9.67188,9.53125 9.78646,9.80729 10.0156,10.0156 C10.2448,10.224 10.5573,10.3281 10.9531,10.3281 C11.5052,10.3281 11.9453,10.1328 12.2734,9.74219 C12.6016,9.35156 12.7656,8.83854 12.7656,8.20313 L12.7656,7.96875 L11.7813,7.96875 M13.75,7.5625 L13.75,11 L12.7656,11 L12.7656,10.0938 C12.5469,10.4583 12.2682,10.7266 11.9297,10.8984 C11.5911,11.0703 11.1771,11.1563 10.6875,11.1563 C10.0729,11.1563 9.58333,10.9844 9.21875,10.6406 C8.85417,10.2969 8.67188,9.83333 8.67188,9.25 C8.67188,8.57292 8.89844,8.0625 9.35156,7.71875 C9.80469,7.375 10.4844,7.20313 11.3906,7.20313 L12.7656,7.20313 L12.7656,7.10938 C12.7656,6.65104 12.6172,6.29688 12.3203,6.04688 C12.0234,5.79688 11.6042,5.67188 11.0625,5.67188 C10.7188,5.67188 10.3828,5.71354 10.0547,5.79688 C9.72656,5.88021 9.41146,6.00521 9.10938,6.17188 L9.10938,5.26563 C9.47396,5.11979 9.82813,5.01302 10.1719,4.94531 C10.5156,4.8776 10.8438,4.84375 11.1563,4.84375 C12.0313,4.84375 12.6823,5.06771 13.1094,5.51563 C13.5365,5.96354 13.75,6.64583 13.75,7.5625 M15.7813,2.64063 L16.7813,2.64063 L16.7813,11 L15.7813,11 L15.7813,2.64063 M18.7969,2.64063 L19.7969,2.64063 L19.7969,7.57813 L22.7344,4.98438 L24,4.98438 L20.8125,7.79688 L24.1406,11 L22.8438,11 L19.7969,8.0625 L19.7969,11 L18.7969,11 L18.7969,2.64063 M30.3438,7.75 L30.3438,8.23438 L25.7969,8.23438 C25.8385,8.91146 26.0417,9.42708 26.4063,9.78125 C26.7708,10.1354 27.2813,10.3125 27.9375,10.3125 C28.3229,10.3125 28.6927,10.2656 29.0469,10.1719 C29.401,10.0781 29.7552,9.94271 30.1094,9.76563 L30.1094,10.6875 C29.7552,10.8438 29.3906,10.9609 29.0156,11.0391 C28.6406,11.1172 28.2656,11.1563 27.8906,11.1563 C26.9219,11.1563 26.1589,10.8776 25.6016,10.3203 C25.0443,9.76302 24.7656,9.00521 24.7656,8.04688 C24.7656,7.06771 25.0313,6.28906 25.5625,5.71094 C26.0938,5.13281 26.8125,4.84375 27.7188,4.84375 C28.5208,4.84375 29.1589,5.10417 29.6328,5.625 C30.1068,6.14583 30.3438,6.85417 30.3438,7.75 M29.3438,7.45313 C29.3438,6.91146 29.1953,6.47917 28.8984,6.15625 C28.6016,5.83333 28.2083,5.67188 27.7188,5.67188 C27.1667,5.67188 26.7266,5.82813 26.3984,6.14063 C26.0703,6.45313 25.8802,6.89063 25.8281,7.45313 L29.3438,7.45313 M35.4375,5.90625 C35.3333,5.84375 35.2161,5.79688 35.0859,5.76563 C34.9557,5.73438 34.8125,5.71875 34.6563,5.71875 C34.0938,5.71875 33.6641,5.90104 33.3672,6.26563 C33.0703,6.63021 32.9219,7.15104 32.9219,7.82813 L32.9219,11 L31.9219,11 L31.9219,4.98438 L32.9219,4.98438 L32.9219,5.92188 C33.1198,5.55729 33.3854,5.28646 33.7188,5.10938 C34.0521,4.93229 34.4583,4.84375 34.9375,4.84375 C35.0104,4.84375 35.0859,4.84635 35.1641,4.85156 C35.2422,4.85677 35.3333,4.86979 35.4375,4.89063 L35.4375,5.90625 M41.0469,12.8281 L41.0469,13.5938 L35.3281,13.5938 L35.3281,12.8281 L41.0469,12.8281 M42.9531,3.28125 L42.9531,4.98438 L44.9844,4.98438 L44.9844,5.75 L42.9531,5.75 L42.9531,9.01563 C42.9531,9.50521 43.0208,9.82031 43.1563,9.96094 C43.2917,10.1016 43.5625,10.1719 43.9688,10.1719 L44.9844,10.1719 L44.9844,11 L43.9688,11 C43.2083,11 42.6823,10.8568 42.3906,10.5703 C42.099,10.2839 41.9531,9.76563 41.9531,9.01563 L41.9531,5.75 L41.2344,5.75 L41.2344,4.98438 L41.9531,4.98438 L41.9531,3.28125 L42.9531,3.28125 M48.625,5.67188 C48.0938,5.67188 47.6745,5.88021 47.3672,6.29688 C47.0599,6.71354 46.9063,7.28125 46.9063,8 C46.9063,8.71875 47.0573,9.28385 47.3594,9.69531 C47.6615,10.1068 48.0833,10.3125 48.625,10.3125 C49.1458,10.3125 49.5599,10.1068 49.8672,9.69531 C50.1745,9.28385 50.3281,8.71875 50.3281,8 C50.3281,7.28125 50.1745,6.71354 49.8672,6.29688 C49.5599,5.88021 49.1458,5.67188 48.625,5.67188 M48.625,4.84375 C49.4792,4.84375 50.151,5.1224 50.6406,5.67969 C51.1302,6.23698 51.375,7.01042 51.375,8 C51.375,8.97917 51.1302,9.75 50.6406,10.3125 C50.151,10.875 49.4792,11.1563 48.625,11.1563 C47.7604,11.1563 47.0833,10.875 46.5938,10.3125 C46.1042,9.75 45.8594,8.97917 45.8594,8 C45.8594,7.01042 46.1042,6.23698 46.5938,5.67969 C47.0833,5.1224 47.7604,4.84375 48.625,4.84375 M53.9688,10.0938 L53.9688,13.2813 L52.9688,13.2813 L52.9688,4.98438 L53.9688,4.98438 L53.9688,5.89063 C54.1667,5.53646 54.4245,5.27344 54.7422,5.10156 C55.0599,4.92969 55.4427,4.84375 55.8906,4.84375 C56.6198,4.84375 57.2109,5.13281 57.6641,5.71094 C58.1172,6.28906 58.3438,7.05208 58.3438,8 C58.3438,8.94792 58.1172,9.71094 57.6641,10.2891 C57.2109,10.8672 56.6198,11.1563 55.8906,11.1563 C55.4427,11.1563 55.0599,11.0703 54.7422,10.8984 C54.4245,10.7266 54.1667,10.4583 53.9688,10.0938 M57.3281,8 C57.3281,7.27083 57.1771,6.70052 56.875,6.28906 C56.5729,5.8776 56.1615,5.67188 55.6406,5.67188 C55.1198,5.67188 54.7109,5.8776 54.4141,6.28906 C54.1172,6.70052 53.9688,7.27083 53.9688,8 C53.9688,8.72917 54.1172,9.29948 54.4141,9.71094 C54.7109,10.1224 55.1198,10.3281 55.6406,10.3281 C56.1615,10.3281 56.5729,10.1224 56.875,9.71094 C57.1771,9.29948 57.3281,8.72917 57.3281,8 M59.9688,4.98438 L60.9688,4.98438 L60.9688,11 L59.9688,11 L59.9688,4.98438 M59.9688,2.64063 L60.9688,2.64063 L60.9688,3.89063 L59.9688,3.89063 L59.9688,2.64063 M67.3438,5.21875 L67.3438,6.14063 C67.0729,5.98438 66.7969,5.86719 66.5156,5.78906 C66.2344,5.71094 65.9479,5.67188 65.6563,5.67188 C65.0208,5.67188 64.526,5.875 64.1719,6.28125 C63.8177,6.6875 63.6406,7.26042 63.6406,8 C63.6406,8.72917 63.8177,9.29688 64.1719,9.70313 C64.526,10.1094 65.0208,10.3125 65.6563,10.3125 C65.9479,10.3125 66.2344,10.276 66.5156,10.2031 C66.7969,10.1302 67.0729,10.0156 67.3438,9.85938 L67.3438,10.7656 C67.0729,10.901 66.7891,11 66.4922,11.0625 C66.1953,11.125 65.8802,11.1563 65.5469,11.1563 C64.6406,11.1563 63.9219,10.8724 63.3906,10.3047 C62.8594,9.73698 62.5938,8.96875 62.5938,8 C62.5938,7.02083 62.862,6.25 63.3984,5.6875 C63.9349,5.125 64.6719,4.84375 65.6094,4.84375 C65.9219,4.84375 66.2214,4.875 66.5078,4.9375 C66.7943,5 67.0729,5.09375 67.3438,5.21875 "/>
</g>

<g fill="none" stroke="#000000" stroke-opacity="1" stroke-width="1" stroke-linecap="square" stroke-linejoin="bevel" transform="matrix(1.99983,0,0,1.99983,792.847,21.9981)"
font-family="sans" font-size="11" font-weight="100" font-style="normal" 
>
</g>

<g fill="none" stroke="#000000" stroke-opacity="1" stroke-width="1" stroke-linecap="square" stroke-linejoin="bevel" transform="matrix(1.99983,0,0,1.99983,792.847,21.9981)"
font-family="Ubuntu" font-size="11" font-weight="400" font-style="normal" 
>
</g>

<g fill="none" stroke="#000000" stroke-opacity="1" stroke-width="1" stroke-linecap="square" stroke-linejoin="bevel" transform="matrix(1.99983,0,0,1.99983,0.00719937,71.9937)"
font-family="Ubuntu" font-size="11" font-weight="400" font-style="normal" 
>
</g>

<g fill="none" stroke="#000000" stroke-opacity="1" stroke-width="1" stroke-linecap="square" stroke-linejoin="bevel" transform="matrix(1.99983,0,0,1.99983,0.00719937,71.9937)"
font-family="Ubuntu" font-size="11" font-weight="400" font-style="normal" 
>
</g>

<g fill="none" stroke="#000000" stroke-opacity="1" stroke-width="1" stroke-linecap="square" stroke-linejoin="bevel" transform="matrix(1.99983,0,0,1.99983,0.00719937,71.9937)"
font-family="Ubuntu" font-size="11" font-weight="400" font-style="normal" 
>
</g>

<g fill="none" stroke="#000000" stroke-opacity="1" stroke-width="1" stroke-linecap="square" stroke-linejoin="round" transform="matrix(1.99983,0,0,1.99983,0.00719937,71.9937)"
font-family="Ubuntu" font-size="11" font-weight="400" font-style="normal" 
>
<ellipse cx="573.01" cy="-18" rx="75.5428" ry="17.5"/>
</g>

<g fill="none" stroke="#000000" stroke-opacity="1" stroke-width="1" stroke-linecap="square" stroke-linejoin="bevel" transform="matrix(1.99983,0,0,1.99983,0.00719937,71.9937)"
font-family="Ubuntu" font-size="11" font-weight="400" font-style="normal" 
>
</g>

<g fill="none" stroke="#000000" stroke-opacity="1" stroke-width="1" stroke-linecap="square" stroke-linejoin="bevel" transform="matrix(1.99983,0,0,1.99983,1068.17,21.9981)"
font-family="Ubuntu" font-size="11" font-weight="400" font-style="normal" 
>
</g>

<g fill="none" stroke="#000000" stroke-opacity="1" stroke-width="1" stroke-linecap="square" stroke-linejoin="bevel" transform="matrix(1.99983,0,0,1.99983,1068.17,21.9981)"
font-family="sans" font-size="11" font-weight="100" font-style="normal" 
>
</g>

<g fill="#000000" fill-opacity="1" stroke="#000000" stroke-opacity="1" stroke-width="1" stroke-linecap="square" stroke-linejoin="round" transform="matrix(1.99983,0,0,1.99983,1068.17,21.9981)"
font-family="sans" font-size="11" font-weight="100" font-style="normal" 
>
<path vector-effect="none" fill-rule="nonzero" d="M2.79688,2.98438 L3.70313,2.98438 L0.90625,12.0156 L0,12.0156 L2.79688,2.98438 M4.73438,2.64063 L5.73438,2.64063 L5.73438,11 L4.73438,11 L4.73438,2.64063 M7.78125,4.98438 L8.78125,4.98438 L8.78125,11 L7.78125,11 L7.78125,4.98438 M7.78125,2.64063 L8.78125,2.64063 L8.78125,3.89063 L7.78125,3.89063 L7.78125,2.64063 M14.6719,5.15625 L14.6719,6.09375 C14.3906,5.94792 14.099,5.84115 13.7969,5.77344 C13.4948,5.70573 13.1823,5.67188 12.8594,5.67188 C12.3698,5.67188 12.0026,5.7474 11.7578,5.89844 C11.513,6.04948 11.3906,6.27083 11.3906,6.5625 C11.3906,6.79167 11.4792,6.97135 11.6563,7.10156 C11.8333,7.23177 12.1875,7.35938 12.7188,7.48438 L13.0469,7.5625 C13.7552,7.70833 14.2552,7.91927 14.5469,8.19531 C14.8385,8.47135 14.9844,8.85417 14.9844,9.34375 C14.9844,9.89583 14.7656,10.3359 14.3281,10.6641 C13.8906,10.9922 13.2813,11.1563 12.5,11.1563 C12.1771,11.1563 11.8411,11.125 11.4922,11.0625 C11.1432,11 10.776,10.9063 10.3906,10.7813 L10.3906,9.76563 C10.7552,9.95313 11.1146,10.0938 11.4688,10.1875 C11.8229,10.2813 12.1771,10.3281 12.5313,10.3281 C12.9896,10.3281 13.3438,10.2474 13.5938,10.0859 C13.8438,9.92448 13.9688,9.70313 13.9688,9.42188 C13.9688,9.15104 13.8802,8.94271 13.7031,8.79688 C13.526,8.65104 13.1302,8.51563 12.5156,8.39063 L12.1719,8.29688 C11.5573,8.17188 11.1146,7.97656 10.8438,7.71094 C10.5729,7.44531 10.4375,7.07813 10.4375,6.60938 C10.4375,6.04688 10.638,5.61198 11.0391,5.30469 C11.4401,4.9974 12.0104,4.84375 12.75,4.84375 C13.1146,4.84375 13.4583,4.86979 13.7813,4.92188 C14.1042,4.97396 14.401,5.05208 14.6719,5.15625 M17.5313,3.28125 L17.5313,4.98438 L19.5625,4.98438 L19.5625,5.75 L17.5313,5.75 L17.5313,9.01563 C17.5313,9.50521 17.599,9.82031 17.7344,9.96094 C17.8698,10.1016 18.1406,10.1719 18.5469,10.1719 L19.5625,10.1719 L19.5625,11 L18.5469,11 C17.7865,11 17.2604,10.8568 16.9688,10.5703 C16.6771,10.2839 16.5313,9.76563 16.5313,9.01563 L16.5313,5.75 L15.8125,5.75 L15.8125,4.98438 L16.5313,4.98438 L16.5313,3.28125 L17.5313,3.28125 M26.0156,7.75 L26.0156,8.23438 L21.4688,8.23438 C21.5104,8.91146 21.7135,9.42708 22.0781,9.78125 C22.4427,10.1354 22.9531,10.3125 23.6094,10.3125 C23.9948,10.3125 24.3646,10.2656 24.7188,10.1719 C25.0729,10.0781 25.4271,9.94271 25.7813,9.76563 L25.7813,10.6875 C25.4271,10.8438 25.0625,10.9609 24.6875,11.0391 C24.3125,11.1172 23.9375,11.1563 23.5625,11.1563 C22.5938,11.1563 21.8307,10.8776 21.2734,10.3203 C20.7161,9.76302 20.4375,9.00521 20.4375,8.04688 C20.4375,7.06771 20.7031,6.28906 21.2344,5.71094 C21.7656,5.13281 22.4844,4.84375 23.3906,4.84375 C24.1927,4.84375 24.8307,5.10417 25.3047,5.625 C25.7786,6.14583 26.0156,6.85417 26.0156,7.75 M25.0156,7.45313 C25.0156,6.91146 24.8672,6.47917 24.5703,6.15625 C24.2734,5.83333 23.8802,5.67188 23.3906,5.67188 C22.8385,5.67188 22.3984,5.82813 22.0703,6.14063 C21.7422,6.45313 21.5521,6.89063 21.5,7.45313 L25.0156,7.45313 M32.625,7.375 L32.625,11 L31.6406,11 L31.6406,7.40625 C31.6406,6.83333 31.5313,6.40625 31.3125,6.125 C31.0938,5.84375 30.7604,5.70313 30.3125,5.70313 C29.7813,5.70313 29.362,5.8724 29.0547,6.21094 C28.7474,6.54948 28.5938,7.01042 28.5938,7.59375 L28.5938,11 L27.5938,11 L27.5938,4.98438 L28.5938,4.98438 L28.5938,5.92188 C28.8229,5.55729 29.099,5.28646 29.4219,5.10938 C29.7448,4.93229 30.1146,4.84375 30.5313,4.84375 C31.2188,4.84375 31.7396,5.05729 32.0938,5.48438 C32.4479,5.91146 32.625,6.54167 32.625,7.375 M39.75,7.75 L39.75,8.23438 L35.2031,8.23438 C35.2448,8.91146 35.4479,9.42708 35.8125,9.78125 C36.1771,10.1354 36.6875,10.3125 37.3438,10.3125 C37.7292,10.3125 38.099,10.2656 38.4531,10.1719 C38.8073,10.0781 39.1615,9.94271 39.5156,9.76563 L39.5156,10.6875 C39.1615,10.8438 38.7969,10.9609 38.4219,11.0391 C38.0469,11.1172 37.6719,11.1563 37.2969,11.1563 C36.3281,11.1563 35.5651,10.8776 35.0078,10.3203 C34.4505,9.76302 34.1719,9.00521 34.1719,8.04688 C34.1719,7.06771 34.4375,6.28906 34.9688,5.71094 C35.5,5.13281 36.2188,4.84375 37.125,4.84375 C37.9271,4.84375 38.5651,5.10417 39.0391,5.625 C39.513,6.14583 39.75,6.85417 39.75,7.75 M38.75,7.45313 C38.75,6.91146 38.6016,6.47917 38.3047,6.15625 C38.0078,5.83333 37.6146,5.67188 37.125,5.67188 C36.5729,5.67188 36.1328,5.82813 35.8047,6.14063 C35.4766,6.45313 35.2865,6.89063 35.2344,7.45313 L38.75,7.45313 M44.8438,5.90625 C44.7396,5.84375 44.6224,5.79688 44.4922,5.76563 C44.362,5.73438 44.2188,5.71875 44.0625,5.71875 C43.5,5.71875 43.0703,5.90104 42.7734,6.26563 C42.4766,6.63021 42.3281,7.15104 42.3281,7.82813 L42.3281,11 L41.3281,11 L41.3281,4.98438 L42.3281,4.98438 L42.3281,5.92188 C42.526,5.55729 42.7917,5.28646 43.125,5.10938 C43.4583,4.93229 43.8646,4.84375 44.3438,4.84375 C44.4167,4.84375 44.4922,4.84635 44.5703,4.85156 C44.6484,4.85677 44.7396,4.86979 44.8438,4.89063 L44.8438,5.90625 M50.4531,12.8281 L50.4531,13.5938 L44.7344,13.5938 L44.7344,12.8281 L50.4531,12.8281 M56.375,7.375 L56.375,11 L55.3906,11 L55.3906,7.40625 C55.3906,6.83333 55.2813,6.40625 55.0625,6.125 C54.8438,5.84375 54.5104,5.70313 54.0625,5.70313 C53.5313,5.70313 53.112,5.8724 52.8047,6.21094 C52.4974,6.54948 52.3438,7.01042 52.3438,7.59375 L52.3438,11 L51.3438,11 L51.3438,4.98438 L52.3438,4.98438 L52.3438,5.92188 C52.5729,5.55729 52.849,5.28646 53.1719,5.10938 C53.4948,4.93229 53.8646,4.84375 54.2813,4.84375 C54.9688,4.84375 55.4896,5.05729 55.8438,5.48438 C56.1979,5.91146 56.375,6.54167 56.375,7.375 M60.6875,5.67188 C60.1563,5.67188 59.737,5.88021 59.4297,6.29688 C59.1224,6.71354 58.9688,7.28125 58.9688,8 C58.9688,8.71875 59.1198,9.28385 59.4219,9.69531 C59.724,10.1068 60.1458,10.3125 60.6875,10.3125 C61.2083,10.3125 61.6224,10.1068 61.9297,9.69531 C62.237,9.28385 62.3906,8.71875 62.3906,8 C62.3906,7.28125 62.237,6.71354 61.9297,6.29688 C61.6224,5.88021 61.2083,5.67188 60.6875,5.67188 M60.6875,4.84375 C61.5417,4.84375 62.2135,5.1224 62.7031,5.67969 C63.1927,6.23698 63.4375,7.01042 63.4375,8 C63.4375,8.97917 63.1927,9.75 62.7031,10.3125 C62.2135,10.875 61.5417,11.1563 60.6875,11.1563 C59.8229,11.1563 59.1458,10.875 58.6563,10.3125 C58.1667,9.75 57.9219,8.97917 57.9219,8 C57.9219,7.01042 58.1667,6.23698 58.6563,5.67969 C59.1458,5.1224 59.8229,4.84375 60.6875,4.84375 M69.0313,5.89063 L69.0313,2.64063 L70.0156,2.64063 L70.0156,11 L69.0313,11 L69.0313,10.0938 C68.8229,10.4583 68.5599,10.7266 68.2422,10.8984 C67.9245,11.0703 67.5417,11.1563 67.0938,11.1563 C66.375,11.1563 65.7865,10.8672 65.3281,10.2891 C64.8698,9.71094 64.6406,8.94792 64.6406,8 C64.6406,7.05208 64.8698,6.28906 65.3281,5.71094 C65.7865,5.13281 66.375,4.84375 67.0938,4.84375 C67.5417,4.84375 67.9245,4.92969 68.2422,5.10156 C68.5599,5.27344 68.8229,5.53646 69.0313,5.89063 M65.6563,8 C65.6563,8.72917 65.8073,9.29948 66.1094,9.71094 C66.4115,10.1224 66.8229,10.3281 67.3438,10.3281 C67.8646,10.3281 68.276,10.1224 68.5781,9.71094 C68.8802,9.29948 69.0313,8.72917 69.0313,8 C69.0313,7.27083 68.8802,6.70052 68.5781,6.28906 C68.276,5.8776 67.8646,5.67188 67.3438,5.67188 C66.8229,5.67188 66.4115,5.8776 66.1094,6.28906 C65.8073,6.70052 65.6563,7.27083 65.6563,8 M77.1875,7.75 L77.1875,8.23438 L72.6406,8.23438 C72.6823,8.91146 72.8854,9.42708 73.25,9.78125 C73.6146,10.1354 74.125,10.3125 74.7813,10.3125 C75.1667,10.3125 75.5365,10.2656 75.8906,10.1719 C76.2448,10.0781 76.599,9.94271 76.9531,9.76563 L76.9531,10.6875 C76.599,10.8438 76.2344,10.9609 75.8594,11.0391 C75.4844,11.1172 75.1094,11.1563 74.7344,11.1563 C73.7656,11.1563 73.0026,10.8776 72.4453,10.3203 C71.888,9.76302 71.6094,9.00521 71.6094,8.04688 C71.6094,7.06771 71.875,6.28906 72.4063,5.71094 C72.9375,5.13281 73.6563,4.84375 74.5625,4.84375 C75.3646,4.84375 76.0026,5.10417 76.4766,5.625 C76.9505,6.14583 77.1875,6.85417 77.1875,7.75 M76.1875,7.45313 C76.1875,6.91146 76.0391,6.47917 75.7422,6.15625 C75.4453,5.83333 75.0521,5.67188 74.5625,5.67188 C74.0104,5.67188 73.5703,5.82813 73.2422,6.14063 C72.9141,6.45313 72.724,6.89063 72.6719,7.45313 L76.1875,7.45313"/>
</g>

<g fill="none" stroke="#000000" stroke-opacity="1" stroke-width="1" stroke-linecap="square" stroke-linejoin="bevel" transform="matrix(1.99983,0,0,1.99983,1068.17,21.9981)"
font-family="sans" font-size="11" font-weight="100" font-style="normal" 
>
</g>

<g fill="none" stroke="#000000" stroke-opacity="1" stroke-width="1" stroke-linecap="square" stroke-linejoin="bevel" transform="matrix(1.99983,0,0,1.99983,1068.17,21.9981)"
font-family="Ubuntu" font-size="11" font-weight="400" font-style="normal" 
>
</g>

<g fill="none" stroke="#000000" stroke-opacity="1" stroke-width="1" stroke-linecap="square" stroke-linejoin="bevel" transform="matrix(1.99983,0,0,1.99983,0.00719937,71.9937)"
font-family="Ubuntu" font-size="11" font-weight="400" font-style="normal" 
>
</g>

<g fill="none" stroke="#000000" stroke-opacity="1" stroke-width="1" stroke-linecap="square" stroke-linejoin="bevel" transform="matrix(1.99983,0,0,1.99983,0.00719937,71.9937)"
font-family="Ubuntu" font-size="11" font-weight="400" font-style="normal" 
>
</g>

<g fill="none" stroke="#000000" stroke-opacity="1" stroke-width="1" stroke-linecap="square" stroke-linejoin="bevel" transform="matrix(1.99983,0,0,1.99983,0.00719937,71.9937)"
font-family="Ubuntu" font-size="11" font-weight="400" font-style="normal" 
>
</g>

<g fill="none" stroke="#000000" stroke-opacity="1" stroke-width="1" stroke-linecap="square" stroke-linejoin="round" transform="matrix(1.99983,0,0,1.99983,0.00719937,71.9937)"
font-family="Ubuntu" font-size="11" font-weight="400" font-style="normal" 
>
<ellipse cx="181.98" cy="-18" rx="181.484" ry="17.5"/>
</g>

<g fill="none" stroke="#000000" stroke-opacity="1" stroke-width="1" stroke-linecap="square" stroke-linejoin="bevel" transform="matrix(1.99983,0,0,1.99983,0.00719937,71.9937)"
font-family="Ubuntu" font-size="11" font-weight="400" font-style="normal" 
>
</g>

<g fill="none" stroke="#000000" stroke-opacity="1" stroke-width="1" stroke-linecap="square" stroke-linejoin="bevel" transform="matrix(1.99983,0,0,1.99983,158.875,21.9981)"
font-family="Ubuntu" font-size="11" font-weight="400" font-style="normal" 
>
</g>

<g fill="none" stroke="#000000" stroke-opacity="1" stroke-width="1" stroke-linecap="square" stroke-linejoin="bevel" transform="matrix(1.99983,0,0,1.99983,158.875,21.9981)"
font-family="sans" font-size="11" font-weight="100" font-style="normal" 
>
</g>

<g fill="#000000" fill-opacity="1" stroke="#000000" stroke-opacity="1" stroke-width="1" stroke-linecap="square" stroke-linejoin="round" transform="matrix(1.99983,0,0,1.99983,158.875,21.9981)"
font-family="sans" font-size="11" font-weight="100" font-style="normal" 
>
<path vector-effect="none" fill-rule="nonzero" d="M2.79688,2.98438 L3.70313,2.98438 L0.90625,12.0156 L0,12.0156 L2.79688,2.98438 M5.71875,3.28125 L5.71875,4.98438 L7.75,4.98438 L7.75,5.75 L5.71875,5.75 L5.71875,9.01563 C5.71875,9.50521 5.78646,9.82031 5.92188,9.96094 C6.05729,10.1016 6.32813,10.1719 6.73438,10.1719 L7.75,10.1719 L7.75,11 L6.73438,11 C5.97396,11 5.44792,10.8568 5.15625,10.5703 C4.86458,10.2839 4.71875,9.76563 4.71875,9.01563 L4.71875,5.75 L4,5.75 L4,4.98438 L4.71875,4.98438 L4.71875,3.28125 L5.71875,3.28125 M11.7813,7.96875 C10.9896,7.96875 10.4401,8.0625 10.1328,8.25 C9.82552,8.4375 9.67188,8.75 9.67188,9.1875 C9.67188,9.53125 9.78646,9.80729 10.0156,10.0156 C10.2448,10.224 10.5573,10.3281 10.9531,10.3281 C11.5052,10.3281 11.9453,10.1328 12.2734,9.74219 C12.6016,9.35156 12.7656,8.83854 12.7656,8.20313 L12.7656,7.96875 L11.7813,7.96875 M13.75,7.5625 L13.75,11 L12.7656,11 L12.7656,10.0938 C12.5469,10.4583 12.2682,10.7266 11.9297,10.8984 C11.5911,11.0703 11.1771,11.1563 10.6875,11.1563 C10.0729,11.1563 9.58333,10.9844 9.21875,10.6406 C8.85417,10.2969 8.67188,9.83333 8.67188,9.25 C8.67188,8.57292 8.89844,8.0625 9.35156,7.71875 C9.80469,7.375 10.4844,7.20313 11.3906,7.20313 L12.7656,7.20313 L12.7656,7.10938 C12.7656,6.65104 12.6172,6.29688 12.3203,6.04688 C12.0234,5.79688 11.6042,5.67188 11.0625,5.67188 C10.7188,5.67188 10.3828,5.71354 10.0547,5.79688 C9.72656,5.88021 9.41146,6.00521 9.10938,6.17188 L9.10938,5.26563 C9.47396,5.11979 9.82813,5.01302 10.1719,4.94531 C10.5156,4.8776 10.8438,4.84375 11.1563,4.84375 C12.0313,4.84375 12.6823,5.06771 13.1094,5.51563 C13.5365,5.96354 13.75,6.64583 13.75,7.5625 M15.7813,2.64063 L16.7813,2.64063 L16.7813,11 L15.7813,11 L15.7813,2.64063 M18.7969,2.64063 L19.7969,2.64063 L19.7969,7.57813 L22.7344,4.98438 L24,4.98438 L20.8125,7.79688 L24.1406,11 L22.8438,11 L19.7969,8.0625 L19.7969,11 L18.7969,11 L18.7969,2.64063 M30.3438,7.75 L30.3438,8.23438 L25.7969,8.23438 C25.8385,8.91146 26.0417,9.42708 26.4063,9.78125 C26.7708,10.1354 27.2813,10.3125 27.9375,10.3125 C28.3229,10.3125 28.6927,10.2656 29.0469,10.1719 C29.401,10.0781 29.7552,9.94271 30.1094,9.76563 L30.1094,10.6875 C29.7552,10.8438 29.3906,10.9609 29.0156,11.0391 C28.6406,11.1172 28.2656,11.1563 27.8906,11.1563 C26.9219,11.1563 26.1589,10.8776 25.6016,10.3203 C25.0443,9.76302 24.7656,9.00521 24.7656,8.04688 C24.7656,7.06771 25.0313,6.28906 25.5625,5.71094 C26.0938,5.13281 26.8125,4.84375 27.7188,4.84375 C28.5208,4.84375 29.1589,5.10417 29.6328,5.625 C30.1068,6.14583 30.3438,6.85417 30.3438,7.75 M29.3438,7.45313 C29.3438,6.91146 29.1953,6.47917 28.8984,6.15625 C28.6016,5.83333 28.2083,5.67188 27.7188,5.67188 C27.1667,5.67188 26.7266,5.82813 26.3984,6.14063 C26.0703,6.45313 25.8802,6.89063 25.8281,7.45313 L29.3438,7.45313 M35.4375,5.90625 C35.3333,5.84375 35.2161,5.79688 35.0859,5.76563 C34.9557,5.73438 34.8125,5.71875 34.6563,5.71875 C34.0938,5.71875 33.6641,5.90104 33.3672,6.26563 C33.0703,6.63021 32.9219,7.15104 32.9219,7.82813 L32.9219,11 L31.9219,11 L31.9219,4.98438 L32.9219,4.98438 L32.9219,5.92188 C33.1198,5.55729 33.3854,5.28646 33.7188,5.10938 C34.0521,4.93229 34.4583,4.84375 34.9375,4.84375 C35.0104,4.84375 35.0859,4.84635 35.1641,4.85156 C35.2422,4.85677 35.3333,4.86979 35.4375,4.89063 L35.4375,5.90625 M41.0469,12.8281 L41.0469,13.5938 L35.3281,13.5938 L35.3281,12.8281 L41.0469,12.8281 M46.9688,7.375 L46.9688,11 L45.9844,11 L45.9844,7.40625 C45.9844,6.83333 45.875,6.40625 45.6563,6.125 C45.4375,5.84375 45.1042,5.70313 44.6563,5.70313 C44.125,5.70313 43.7057,5.8724 43.3984,6.21094 C43.0911,6.54948 42.9375,7.01042 42.9375,7.59375 L42.9375,11 L41.9375,11 L41.9375,4.98438 L42.9375,4.98438 L42.9375,5.92188 C43.1667,5.55729 43.4427,5.28646 43.7656,5.10938 C44.0885,4.93229 44.4583,4.84375 44.875,4.84375 C45.5625,4.84375 46.0833,5.05729 46.4375,5.48438 C46.7917,5.91146 46.9688,6.54167 46.9688,7.375 M51.2813,5.67188 C50.75,5.67188 50.3307,5.88021 50.0234,6.29688 C49.7161,6.71354 49.5625,7.28125 49.5625,8 C49.5625,8.71875 49.7135,9.28385 50.0156,9.69531 C50.3177,10.1068 50.7396,10.3125 51.2813,10.3125 C51.8021,10.3125 52.2161,10.1068 52.5234,9.69531 C52.8307,9.28385 52.9844,8.71875 52.9844,8 C52.9844,7.28125 52.8307,6.71354 52.5234,6.29688 C52.2161,5.88021 51.8021,5.67188 51.2813,5.67188 M51.2813,4.84375 C52.1354,4.84375 52.8073,5.1224 53.2969,5.67969 C53.7865,6.23698 54.0313,7.01042 54.0313,8 C54.0313,8.97917 53.7865,9.75 53.2969,10.3125 C52.8073,10.875 52.1354,11.1563 51.2813,11.1563 C50.4167,11.1563 49.7396,10.875 49.25,10.3125 C48.7604,9.75 48.5156,8.97917 48.5156,8 C48.5156,7.01042 48.7604,6.23698 49.25,5.67969 C49.7396,5.1224 50.4167,4.84375 51.2813,4.84375 M59.625,5.89063 L59.625,2.64063 L60.6094,2.64063 L60.6094,11 L59.625,11 L59.625,10.0938 C59.4167,10.4583 59.1536,10.7266 58.8359,10.8984 C58.5182,11.0703 58.1354,11.1563 57.6875,11.1563 C56.9688,11.1563 56.3802,10.8672 55.9219,10.2891 C55.4635,9.71094 55.2344,8.94792 55.2344,8 C55.2344,7.05208 55.4635,6.28906 55.9219,5.71094 C56.3802,5.13281 56.9688,4.84375 57.6875,4.84375 C58.1354,4.84375 58.5182,4.92969 58.8359,5.10156 C59.1536,5.27344 59.4167,5.53646 59.625,5.89063 M56.25,8 C56.25,8.72917 56.401,9.29948 56.7031,9.71094 C57.0052,10.1224 57.4167,10.3281 57.9375,10.3281 C58.4583,10.3281 58.8698,10.1224 59.1719,9.71094 C59.474,9.29948 59.625,8.72917 59.625,8 C59.625,7.27083 59.474,6.70052 59.1719,6.28906 C58.8698,5.8776 58.4583,5.67188 57.9375,5.67188 C57.4167,5.67188 57.0052,5.8776 56.7031,6.28906 C56.401,6.70052 56.25,7.27083 56.25,8 M67.7813,7.75 L67.7813,8.23438 L63.2344,8.23438 C63.276,8.91146 63.4792,9.42708 63.8438,9.78125 C64.2083,10.1354 64.7188,10.3125 65.375,10.3125 C65.7604,10.3125 66.1302,10.2656 66.4844,10.1719 C66.8385,10.0781 67.1927,9.94271 67.5469,9.76563 L67.5469,10.6875 C67.1927,10.8438 66.8281,10.9609 66.4531,11.0391 C66.0781,11.1172 65.7031,11.1563 65.3281,11.1563 C64.3594,11.1563 63.5964,10.8776 63.0391,10.3203 C62.4818,9.76302 62.2031,9.00521 62.2031,8.04688 C62.2031,7.06771 62.4688,6.28906 63,5.71094 C63.5313,5.13281 64.25,4.84375 65.1563,4.84375 C65.9583,4.84375 66.5964,5.10417 67.0703,5.625 C67.5443,6.14583 67.7813,6.85417 67.7813,7.75 M66.7813,7.45313 C66.7813,6.91146 66.6328,6.47917 66.3359,6.15625 C66.0391,5.83333 65.6458,5.67188 65.1563,5.67188 C64.6042,5.67188 64.1641,5.82813 63.8359,6.14063 C63.5078,6.45313 63.3177,6.89063 63.2656,7.45313 L66.7813,7.45313 M73.9688,12.8281 L73.9688,13.5938 L68.25,13.5938 L68.25,12.8281 L73.9688,12.8281 M75.9688,10.0938 L79.75,10.0938 L79.75,11 L74.6719,11 L74.6719,10.0938 C75.0781,9.66667 75.638,9.09375 76.3516,8.375 C77.0651,7.65625 77.5104,7.19271 77.6875,6.98438 C78.0313,6.58854 78.2734,6.25521 78.4141,5.98438 C78.5547,5.71354 78.625,5.44792 78.625,5.1875 C78.625,4.76042 78.4766,4.41406 78.1797,4.14844 C77.8828,3.88281 77.4896,3.75 77,3.75 C76.6667,3.75 76.3099,3.8099 75.9297,3.92969 C75.5495,4.04948 75.1458,4.22917 74.7188,4.46875 L74.7188,3.375 C75.1563,3.19792 75.5651,3.0625 75.9453,2.96875 C76.3255,2.875 76.6719,2.82813 76.9844,2.82813 C77.8177,2.82813 78.4818,3.03646 78.9766,3.45313 C79.4714,3.86979 79.7188,4.42708 79.7188,5.125 C79.7188,5.45833 79.6563,5.77083 79.5313,6.0625 C79.4063,6.35417 79.1823,6.70313 78.8594,7.10938 C78.7656,7.21354 78.4792,7.51302 78,8.00781 C77.5208,8.5026 76.8438,9.19792 75.9688,10.0938 M81.75,2.98438 L86.9063,2.98438 L86.9063,3.4375 L83.9844,11 L82.8594,11 L85.5938,3.89063 L81.75,3.89063 L81.75,2.98438 M89.1875,10.0938 L90.9688,10.0938 L90.9688,3.96875 L89.0313,4.35938 L89.0313,3.375 L90.9531,2.98438 L92.0469,2.98438 L92.0469,10.0938 L93.8125,10.0938 L93.8125,11 L89.1875,11 L89.1875,10.0938 M96.9219,10.0938 L100.703,10.0938 L100.703,11 L95.625,11 L95.625,10.0938 C96.0313,9.66667 96.5911,9.09375 97.3047,8.375 C98.0182,7.65625 98.4635,7.19271 98.6406,6.98438 C98.9844,6.58854 99.2266,6.25521 99.3672,5.98438 C99.5078,5.71354 99.5781,5.44792 99.5781,5.1875 C99.5781,4.76042 99.4297,4.41406 99.1328,4.14844 C98.8359,3.88281 98.4427,3.75 97.9531,3.75 C97.6198,3.75 97.263,3.8099 96.8828,3.92969 C96.5026,4.04948 96.099,4.22917 95.6719,4.46875 L95.6719,3.375 C96.1094,3.19792 96.5182,3.0625 96.8984,2.96875 C97.2786,2.875 97.625,2.82813 97.9375,2.82813 C98.7708,2.82813 99.4349,3.03646 99.9297,3.45313 C100.424,3.86979 100.672,4.42708 100.672,5.125 C100.672,5.45833 100.609,5.77083 100.484,6.0625 C100.359,6.35417 100.135,6.70313 99.8125,7.10938 C99.7188,7.21354 99.4323,7.51302 98.9531,8.00781 C98.474,8.5026 97.7969,9.19792 96.9219,10.0938 M103.906,10.0938 L107.688,10.0938 L107.688,11 L102.609,11 L102.609,10.0938 C103.016,9.66667 103.576,9.09375 104.289,8.375 C105.003,7.65625 105.448,7.19271 105.625,6.98438 C105.969,6.58854 106.211,6.25521 106.352,5.98438 C106.492,5.71354 106.563,5.44792 106.563,5.1875 C106.563,4.76042 106.414,4.41406 106.117,4.14844 C105.82,3.88281 105.427,3.75 104.938,3.75 C104.604,3.75 104.247,3.8099 103.867,3.92969 C103.487,4.04948 103.083,4.22917 102.656,4.46875 L102.656,3.375 C103.094,3.19792 103.503,3.0625 103.883,2.96875 C104.263,2.875 104.609,2.82813 104.922,2.82813 C105.755,2.82813 106.419,3.03646 106.914,3.45313 C107.409,3.86979 107.656,4.42708 107.656,5.125 C107.656,5.45833 107.594,5.77083 107.469,6.0625 C107.344,6.35417 107.12,6.70313 106.797,7.10938 C106.703,7.21354 106.417,7.51302 105.938,8.00781 C105.458,8.5026 104.781,9.19792 103.906,10.0938 M114.391,12.8281 L114.391,13.5938 L108.672,13.5938 L108.672,12.8281 L114.391,12.8281 M115.641,10.0938 L117.422,10.0938 L117.422,3.96875 L115.484,4.35938 L115.484,3.375 L117.406,2.98438 L118.5,2.98438 L118.5,10.0938 L120.266,10.0938 L120.266,11 L115.641,11 L115.641,10.0938 M124.891,6.5625 C124.411,6.5625 124.029,6.72917 123.742,7.0625 C123.456,7.39583 123.313,7.84896 123.313,8.42188 C123.313,9.00521 123.456,9.46354 123.742,9.79688 C124.029,10.1302 124.411,10.2969 124.891,10.2969 C125.38,10.2969 125.768,10.1302 126.055,9.79688 C126.341,9.46354 126.484,9.00521 126.484,8.42188 C126.484,7.84896 126.341,7.39583 126.055,7.0625 C125.768,6.72917 125.38,6.5625 124.891,6.5625 M127.047,3.15625 L127.047,4.14063 C126.776,4.01563 126.503,3.91927 126.227,3.85156 C125.951,3.78385 125.677,3.75 125.406,3.75 C124.688,3.75 124.138,3.99219 123.758,4.47656 C123.378,4.96094 123.161,5.69271 123.109,6.67188 C123.328,6.35938 123.596,6.11979 123.914,5.95313 C124.232,5.78646 124.583,5.70313 124.969,5.70313 C125.771,5.70313 126.406,5.94792 126.875,6.4375 C127.344,6.92708 127.578,7.58854 127.578,8.42188 C127.578,9.24479 127.333,9.90625 126.844,10.4063 C126.354,10.9063 125.703,11.1563 124.891,11.1563 C123.964,11.1563 123.255,10.7995 122.766,10.0859 C122.276,9.3724 122.031,8.34375 122.031,7 C122.031,5.72917 122.333,4.71615 122.938,3.96094 C123.542,3.20573 124.349,2.82813 125.359,2.82813 C125.63,2.82813 125.904,2.85677 126.18,2.91406 C126.456,2.97135 126.745,3.05208 127.047,3.15625 M131.75,7.1875 C131.229,7.1875 130.823,7.32552 130.531,7.60156 C130.24,7.8776 130.094,8.26042 130.094,8.75 C130.094,9.22917 130.24,9.60677 130.531,9.88281 C130.823,10.1589 131.229,10.2969 131.75,10.2969 C132.26,10.2969 132.664,10.1589 132.961,9.88281 C133.258,9.60677 133.406,9.22917 133.406,8.75 C133.406,8.26042 133.26,7.8776 132.969,7.60156 C132.677,7.32552 132.271,7.1875 131.75,7.1875 M130.656,6.73438 C130.198,6.61979 129.839,6.40365 129.578,6.08594 C129.318,5.76823 129.188,5.38021 129.188,4.92188 C129.188,4.27604 129.414,3.76563 129.867,3.39063 C130.32,3.01563 130.948,2.82813 131.75,2.82813 C132.542,2.82813 133.167,3.01563 133.625,3.39063 C134.083,3.76563 134.313,4.27604 134.313,4.92188 C134.313,5.38021 134.182,5.76823 133.922,6.08594 C133.661,6.40365 133.302,6.61979 132.844,6.73438 C133.365,6.84896 133.771,7.08333 134.063,7.4375 C134.354,7.79167 134.5,8.22917 134.5,8.75 C134.5,9.52083 134.263,10.1146 133.789,10.5313 C133.315,10.9479 132.635,11.1563 131.75,11.1563 C130.865,11.1563 130.185,10.9479 129.711,10.5313 C129.237,10.1146 129,9.52083 129,8.75 C129,8.22917 129.146,7.79167 129.438,7.4375 C129.729,7.08333 130.135,6.84896 130.656,6.73438 M130.266,5.01563 C130.266,5.43229 130.396,5.75781 130.656,5.99219 C130.917,6.22656 131.281,6.34375 131.75,6.34375 C132.208,6.34375 132.57,6.22656 132.836,5.99219 C133.102,5.75781 133.234,5.43229 133.234,5.01563 C133.234,4.59896 133.102,4.27344 132.836,4.03906 C132.57,3.80469 132.208,3.6875 131.75,3.6875 C131.281,3.6875 130.917,3.80469 130.656,4.03906 C130.396,4.27344 130.266,4.59896 130.266,5.01563 M136.422,2.98438 L140.688,2.98438 L140.688,3.89063 L137.422,3.89063 L137.422,5.85938 C137.578,5.80729 137.734,5.76823 137.891,5.74219 C138.047,5.71615 138.203,5.70313 138.359,5.70313 C139.255,5.70313 139.964,5.94792 140.484,6.4375 C141.005,6.92708 141.266,7.58854 141.266,8.42188 C141.266,9.28646 140.997,9.95833 140.461,10.4375 C139.924,10.9167 139.167,11.1563 138.188,11.1563 C137.854,11.1563 137.513,11.1276 137.164,11.0703 C136.815,11.013 136.453,10.9271 136.078,10.8125 L136.078,9.71875 C136.401,9.89583 136.734,10.0286 137.078,10.1172 C137.422,10.2057 137.786,10.25 138.172,10.25 C138.797,10.25 139.289,10.0859 139.648,9.75781 C140.008,9.42969 140.188,8.98438 140.188,8.42188 C140.188,7.86979 140.008,7.42969 139.648,7.10156 C139.289,6.77344 138.797,6.60938 138.172,6.60938 C137.88,6.60938 137.591,6.64323 137.305,6.71094 C137.018,6.77865 136.724,6.88021 136.422,7.01563 L136.422,2.98438 M146.688,6.67188 C147.208,6.78646 147.615,7.01823 147.906,7.36719 C148.198,7.71615 148.344,8.15104 148.344,8.67188 C148.344,9.46354 148.07,10.0755 147.523,10.5078 C146.977,10.9401 146.203,11.1563 145.203,11.1563 C144.859,11.1563 144.51,11.1224 144.156,11.0547 C143.802,10.987 143.438,10.8906 143.063,10.7656 L143.063,9.70313 C143.365,9.88021 143.693,10.0156 144.047,10.1094 C144.401,10.2031 144.776,10.25 145.172,10.25 C145.849,10.25 146.365,10.1146 146.719,9.84375 C147.073,9.57292 147.25,9.18229 147.25,8.67188 C147.25,8.19271 147.086,7.82031 146.758,7.55469 C146.43,7.28906 145.969,7.15625 145.375,7.15625 L144.438,7.15625 L144.438,6.26563 L145.422,6.26563 C145.953,6.26563 146.359,6.15885 146.641,5.94531 C146.922,5.73177 147.063,5.42708 147.063,5.03125 C147.063,4.61458 146.917,4.29688 146.625,4.07813 C146.333,3.85938 145.917,3.75 145.375,3.75 C145.083,3.75 144.766,3.78125 144.422,3.84375 C144.078,3.90625 143.703,4.00521 143.297,4.14063 L143.297,3.17188 C143.714,3.05729 144.102,2.97135 144.461,2.91406 C144.82,2.85677 145.156,2.82813 145.469,2.82813 C146.292,2.82813 146.945,3.01563 147.43,3.39063 C147.914,3.76563 148.156,4.27604 148.156,4.92188 C148.156,5.35938 148.029,5.73177 147.773,6.03906 C147.518,6.34635 147.156,6.55729 146.688,6.67188 M150.391,2.98438 L154.656,2.98438 L154.656,3.89063 L151.391,3.89063 L151.391,5.85938 C151.547,5.80729 151.703,5.76823 151.859,5.74219 C152.016,5.71615 152.172,5.70313 152.328,5.70313 C153.224,5.70313 153.932,5.94792 154.453,6.4375 C154.974,6.92708 155.234,7.58854 155.234,8.42188 C155.234,9.28646 154.966,9.95833 154.43,10.4375 C153.893,10.9167 153.135,11.1563 152.156,11.1563 C151.823,11.1563 151.482,11.1276 151.133,11.0703 C150.784,11.013 150.422,10.9271 150.047,10.8125 L150.047,9.71875 C150.37,9.89583 150.703,10.0286 151.047,10.1172 C151.391,10.2057 151.755,10.25 152.141,10.25 C152.766,10.25 153.258,10.0859 153.617,9.75781 C153.977,9.42969 154.156,8.98438 154.156,8.42188 C154.156,7.86979 153.977,7.42969 153.617,7.10156 C153.258,6.77344 152.766,6.60938 152.141,6.60938 C151.849,6.60938 151.56,6.64323 151.273,6.71094 C150.987,6.77865 150.693,6.88021 150.391,7.01563 L150.391,2.98438 M160.344,3.92188 L157.609,8.20313 L160.344,8.20313 L160.344,3.92188 M160.063,2.98438 L161.422,2.98438 L161.422,8.20313 L162.563,8.20313 L162.563,9.10938 L161.422,9.10938 L161.422,11 L160.344,11 L160.344,9.10938 L156.719,9.10938 L156.719,8.0625 L160.063,2.98438 M164.359,2.98438 L168.625,2.98438 L168.625,3.89063 L165.359,3.89063 L165.359,5.85938 C165.516,5.80729 165.672,5.76823 165.828,5.74219 C165.984,5.71615 166.141,5.70313 166.297,5.70313 C167.193,5.70313 167.901,5.94792 168.422,6.4375 C168.943,6.92708 169.203,7.58854 169.203,8.42188 C169.203,9.28646 168.935,9.95833 168.398,10.4375 C167.862,10.9167 167.104,11.1563 166.125,11.1563 C165.792,11.1563 165.451,11.1276 165.102,11.0703 C164.753,11.013 164.391,10.9271 164.016,10.8125 L164.016,9.71875 C164.339,9.89583 164.672,10.0286 165.016,10.1172 C165.359,10.2057 165.724,10.25 166.109,10.25 C166.734,10.25 167.227,10.0859 167.586,9.75781 C167.945,9.42969 168.125,8.98438 168.125,8.42188 C168.125,7.86979 167.945,7.42969 167.586,7.10156 C167.227,6.77344 166.734,6.60938 166.109,6.60938 C165.818,6.60938 165.529,6.64323 165.242,6.71094 C164.956,6.77865 164.661,6.88021 164.359,7.01563 L164.359,2.98438 M171.516,10.0938 L173.297,10.0938 L173.297,3.96875 L171.359,4.35938 L171.359,3.375 L173.281,2.98438 L174.375,2.98438 L174.375,10.0938 L176.141,10.0938 L176.141,11 L171.516,11 L171.516,10.0938 M180.641,7.1875 C180.12,7.1875 179.714,7.32552 179.422,7.60156 C179.13,7.8776 178.984,8.26042 178.984,8.75 C178.984,9.22917 179.13,9.60677 179.422,9.88281 C179.714,10.1589 180.12,10.2969 180.641,10.2969 C181.151,10.2969 181.555,10.1589 181.852,9.88281 C182.148,9.60677 182.297,9.22917 182.297,8.75 C182.297,8.26042 182.151,7.8776 181.859,7.60156 C181.568,7.32552 181.161,7.1875 180.641,7.1875 M179.547,6.73438 C179.089,6.61979 178.729,6.40365 178.469,6.08594 C178.208,5.76823 178.078,5.38021 178.078,4.92188 C178.078,4.27604 178.305,3.76563 178.758,3.39063 C179.211,3.01563 179.839,2.82813 180.641,2.82813 C181.432,2.82813 182.057,3.01563 182.516,3.39063 C182.974,3.76563 183.203,4.27604 183.203,4.92188 C183.203,5.38021 183.073,5.76823 182.813,6.08594 C182.552,6.40365 182.193,6.61979 181.734,6.73438 C182.255,6.84896 182.661,7.08333 182.953,7.4375 C183.245,7.79167 183.391,8.22917 183.391,8.75 C183.391,9.52083 183.154,10.1146 182.68,10.5313 C182.206,10.9479 181.526,11.1563 180.641,11.1563 C179.755,11.1563 179.076,10.9479 178.602,10.5313 C178.128,10.1146 177.891,9.52083 177.891,8.75 C177.891,8.22917 178.036,7.79167 178.328,7.4375 C178.62,7.08333 179.026,6.84896 179.547,6.73438 M179.156,5.01563 C179.156,5.43229 179.286,5.75781 179.547,5.99219 C179.807,6.22656 180.172,6.34375 180.641,6.34375 C181.099,6.34375 181.461,6.22656 181.727,5.99219 C181.992,5.75781 182.125,5.43229 182.125,5.01563 C182.125,4.59896 181.992,4.27344 181.727,4.03906 C181.461,3.80469 181.099,3.6875 180.641,3.6875 C180.172,3.6875 179.807,3.80469 179.547,4.03906 C179.286,4.27344 179.156,4.59896 179.156,5.01563 M186.234,10.0938 L190.016,10.0938 L190.016,11 L184.938,11 L184.938,10.0938 C185.344,9.66667 185.904,9.09375 186.617,8.375 C187.331,7.65625 187.776,7.19271 187.953,6.98438 C188.297,6.58854 188.539,6.25521 188.68,5.98438 C188.82,5.71354 188.891,5.44792 188.891,5.1875 C188.891,4.76042 188.742,4.41406 188.445,4.14844 C188.148,3.88281 187.755,3.75 187.266,3.75 C186.932,3.75 186.576,3.8099 186.195,3.92969 C185.815,4.04948 185.411,4.22917 184.984,4.46875 L184.984,3.375 C185.422,3.19792 185.831,3.0625 186.211,2.96875 C186.591,2.875 186.938,2.82813 187.25,2.82813 C188.083,2.82813 188.747,3.03646 189.242,3.45313 C189.737,3.86979 189.984,4.42708 189.984,5.125 C189.984,5.45833 189.922,5.77083 189.797,6.0625 C189.672,6.35417 189.448,6.70313 189.125,7.10938 C189.031,7.21354 188.745,7.51302 188.266,8.00781 C187.786,8.5026 187.109,9.19792 186.234,10.0938 M192.313,10.8281 L192.313,9.84375 C192.583,9.96875 192.859,10.0677 193.141,10.1406 C193.422,10.2135 193.698,10.25 193.969,10.25 C194.688,10.25 195.234,10.0078 195.609,9.52344 C195.984,9.03906 196.198,8.30729 196.25,7.32813 C196.042,7.63021 195.779,7.86458 195.461,8.03125 C195.143,8.19792 194.792,8.28125 194.406,8.28125 C193.604,8.28125 192.969,8.03906 192.5,7.55469 C192.031,7.07031 191.797,6.40625 191.797,5.5625 C191.797,4.73958 192.042,4.07813 192.531,3.57813 C193.021,3.07813 193.672,2.82813 194.484,2.82813 C195.411,2.82813 196.117,3.1849 196.602,3.89844 C197.086,4.61198 197.328,5.64583 197.328,7 C197.328,8.26042 197.029,9.26823 196.43,10.0234 C195.831,10.7786 195.026,11.1563 194.016,11.1563 C193.745,11.1563 193.469,11.1302 193.188,11.0781 C192.906,11.026 192.615,10.9427 192.313,10.8281 M194.484,7.4375 C194.964,7.4375 195.346,7.27083 195.633,6.9375 C195.919,6.60417 196.063,6.14583 196.063,5.5625 C196.063,4.98958 195.919,4.53385 195.633,4.19531 C195.346,3.85677 194.964,3.6875 194.484,3.6875 C193.995,3.6875 193.607,3.85677 193.32,4.19531 C193.034,4.53385 192.891,4.98958 192.891,5.5625 C192.891,6.14583 193.034,6.60417 193.32,6.9375 C193.607,7.27083 193.995,7.4375 194.484,7.4375 M199.297,10.8281 L199.297,9.84375 C199.568,9.96875 199.844,10.0677 200.125,10.1406 C200.406,10.2135 200.682,10.25 200.953,10.25 C201.672,10.25 202.219,10.0078 202.594,9.52344 C202.969,9.03906 203.182,8.30729 203.234,7.32813 C203.026,7.63021 202.763,7.86458 202.445,8.03125 C202.128,8.19792 201.776,8.28125 201.391,8.28125 C200.589,8.28125 199.953,8.03906 199.484,7.55469 C199.016,7.07031 198.781,6.40625 198.781,5.5625 C198.781,4.73958 199.026,4.07813 199.516,3.57813 C200.005,3.07813 200.656,2.82813 201.469,2.82813 C202.396,2.82813 203.102,3.1849 203.586,3.89844 C204.07,4.61198 204.313,5.64583 204.313,7 C204.313,8.26042 204.013,9.26823 203.414,10.0234 C202.815,10.7786 202.01,11.1563 201,11.1563 C200.729,11.1563 200.453,11.1302 200.172,11.0781 C199.891,11.026 199.599,10.9427 199.297,10.8281 M201.469,7.4375 C201.948,7.4375 202.331,7.27083 202.617,6.9375 C202.904,6.60417 203.047,6.14583 203.047,5.5625 C203.047,4.98958 202.904,4.53385 202.617,4.19531 C202.331,3.85677 201.948,3.6875 201.469,3.6875 C200.979,3.6875 200.591,3.85677 200.305,4.19531 C200.018,4.53385 199.875,4.98958 199.875,5.5625 C199.875,6.14583 200.018,6.60417 200.305,6.9375 C200.591,7.27083 200.979,7.4375 201.469,7.4375 "/>
</g>

<g fill="none" stroke="#000000" stroke-opacity="1" stroke-width="1" stroke-linecap="square" stroke-linejoin="bevel" transform="matrix(1.99983,0,0,1.99983,158.875,21.9981)"
font-family="sans" font-size="11" font-weight="100" font-style="normal" 
>
</g>

<g fill="none" stroke="#000000" stroke-opacity="1" stroke-width="1" stroke-linecap="square" stroke-linejoin="bevel" transform="matrix(1.99983,0,0,1.99983,158.875,21.9981)"
font-family="Ubuntu" font-size="11" font-weight="400" font-style="normal" 
>
</g>

<g fill="none" stroke="#000000" stroke-opacity="1" stroke-width="1" stroke-linecap="square" stroke-linejoin="bevel" transform="matrix(1.99983,0,0,1.99983,0.00719937,71.9937)"
font-family="Ubuntu" font-size="11" font-weight="400" font-style="normal" 
>
</g>

<g fill="none" stroke="#000000" stroke-opacity="1" stroke-width="1" stroke-linecap="square" stroke-linejoin="bevel" transform="matrix(1.99983,0,0,1.99983,0.00719937,71.9937)"
font-family="Ubuntu" font-size="11" font-weight="400" font-style="normal" 
>
</g>

<g fill="none" stroke="#000000" stroke-opacity="1" stroke-width="1" stroke-linecap="square" stroke-linejoin="bevel" transform="matrix(1.99983,0,0,1.99983,0.00719937,71.9937)"
font-family="Ubuntu" font-size="11" font-weight="400" font-style="normal" 
>
</g>

<g fill="none" stroke="#000000" stroke-opacity="1" stroke-width="1" stroke-linecap="square" stroke-linejoin="round" transform="matrix(1.99983,0,0,1.99983,0.00719937,71.9937)"
font-family="Ubuntu" font-size="11" font-weight="400" font-style="normal" 
>
<path vector-effect="none" fill-rule="evenodd" d="M483,-18 C484.28,-18 485.57,-18 486.86,-18 "/>
</g>

<g fill="none" stroke="#000000" stroke-opacity="1" stroke-width="1" stroke-linecap="square" stroke-linejoin="bevel" transform="matrix(1.99983,0,0,1.99983,0.00719937,71.9937)"
font-family="Ubuntu" font-size="11" font-weight="400" font-style="normal" 
>
</g>

<g fill="none" stroke="#000000" stroke-opacity="1" stroke-width="1" stroke-linecap="square" stroke-linejoin="bevel" transform="matrix(1.99983,0,0,1.99983,0.00719937,71.9937)"
font-family="Ubuntu" font-size="11" font-weight="400" font-style="normal" 
>
</g>

<g fill="#000000" fill-opacity="1" stroke="#000000" stroke-opacity="1" stroke-width="1" stroke-linecap="square" stroke-linejoin="round" transform="matrix(1.99983,0,0,1.99983,0.00719937,71.9937)"
font-family="Ubuntu" font-size="11" font-weight="400" font-style="normal" 
>
<path vector-effect="none" fill-rule="evenodd" d="M486.86,-18 L486.86,-14.4895 L496.89,-18 L486.86,-21.5105 L486.86,-18"/>
</g>

<g fill="none" stroke="#000000" stroke-opacity="1" stroke-width="1" stroke-linecap="square" stroke-linejoin="bevel" transform="matrix(1.99983,0,0,1.99983,0.00719937,71.9937)"
font-family="Ubuntu" font-size="11" font-weight="400" font-style="normal" 
>
</g>

<g fill="none" stroke="#000000" stroke-opacity="1" stroke-width="1" stroke-linecap="square" stroke-linejoin="bevel" transform="matrix(1.99983,0,0,1.99983,0.00719937,71.9937)"
font-family="Ubuntu" font-size="11" font-weight="400" font-style="normal" 
>
</g>

<g fill="none" stroke="#000000" stroke-opacity="1" stroke-width="1" stroke-linecap="square" stroke-linejoin="bevel" transform="matrix(1.99983,0,0,1.99983,0.00719937,71.9937)"
font-family="Ubuntu" font-size="11" font-weight="400" font-style="normal" 
>
</g>

<g fill="none" stroke="#000000" stroke-opacity="1" stroke-width="1" stroke-linecap="square" stroke-linejoin="bevel" transform="matrix(1.99983,0,0,1.99983,0.00719937,71.9937)"
font-family="Ubuntu" font-size="11" font-weight="400" font-style="normal" 
>
</g>

<g fill="none" stroke="#000000" stroke-opacity="1" stroke-width="1" stroke-linecap="square" stroke-linejoin="round" transform="matrix(1.99983,0,0,1.99983,0.00719937,71.9937)"
font-family="Ubuntu" font-size="11" font-weight="400" font-style="normal" 
>
<path vector-effect="none" fill-rule="evenodd" d="M364.06,-18 C365.23,-18 366.38,-18 367.53,-18 "/>
</g>

<g fill="none" stroke="#000000" stroke-opacity="1" stroke-width="1" stroke-linecap="square" stroke-linejoin="bevel" transform="matrix(1.99983,0,0,1.99983,0.00719937,71.9937)"
font-family="Ubuntu" font-size="11" font-weight="400" font-style="normal" 
>
</g>

<g fill="none" stroke="#000000" stroke-opacity="1" stroke-width="1" stroke-linecap="square" stroke-linejoin="bevel" transform="matrix(1.99983,0,0,1.99983,0.00719937,71.9937)"
font-family="Ubuntu" font-size="11" font-weight="400" font-style="normal" 
>
</g>

<g fill="#000000" fill-opacity="1" stroke="#000000" stroke-opacity="1" stroke-width="1" stroke-linecap="square" stroke-linejoin="round" transform="matrix(1.99983,0,0,1.99983,0.00719937,71.9937)"
font-family="Ubuntu" font-size="11" font-weight="400" font-style="normal" 
>
<path vector-effect="none" fill-rule="evenodd" d="M367.53,-18 L367.53,-14.486 L377.57,-18 L367.53,-21.514 L367.53,-18"/>
</g>

<g fill="none" stroke="#000000" stroke-opacity="1" stroke-width="1" stroke-linecap="square" stroke-linejoin="bevel" transform="matrix(1.99983,0,0,1.99983,0.00719937,71.9937)"
font-family="Ubuntu" font-size="11" font-weight="400" font-style="normal" 
>
</g>

<g fill="none" stroke="#000000" stroke-opacity="1" stroke-width="1" stroke-linecap="square" stroke-linejoin="bevel" transform="matrix(1,0,0,1,0,0)"
font-family="Ubuntu" font-size="11" font-weight="400" font-style="normal" 
>
</g>
</g>
</svg>
