<?xml version="1.0" encoding="UTF-8" standalone="no"?>
<svg width="829.381mm" height="25.4mm"
 xmlns="http://www.w3.org/2000/svg" xmlns:xlink="http://www.w3.org/1999/xlink"  version="1.2" baseProfile="tiny">
<title>Qt SVG Document</title>
<desc>Generated with Qt</desc>
<defs>
</defs>
<g fill="none" stroke="black" stroke-width="1" fill-rule="evenodd" stroke-linecap="square" stroke-linejoin="bevel" >

<g fill="none" stroke="#000000" stroke-opacity="1" stroke-width="1" stroke-linecap="square" stroke-linejoin="bevel" transform="matrix(1,0,0,1,0,0)"
font-family="Ubuntu" font-size="11" font-weight="400" font-style="normal" 
>
</g>

<g fill="none" stroke="#000000" stroke-opacity="1" stroke-width="1" stroke-linecap="square" stroke-linejoin="bevel" transform="matrix(1,0,0,1,0,0)"
font-family="Ubuntu" font-size="11" font-weight="400" font-style="normal" 
>
</g>

<g fill="none" stroke="#000000" stroke-opacity="1" stroke-width="1" stroke-linecap="square" stroke-linejoin="bevel" transform="matrix(2,0,0,2,-0.0024,72)"
font-family="Ubuntu" font-size="11" font-weight="400" font-style="normal" 
>
</g>

<g fill="#ffffff" fill-opacity="1" stroke="none" transform="matrix(2,0,0,2,-0.0024,72)"
font-family="Ubuntu" font-size="11" font-weight="400" font-style="normal" 
>
<rect x="0.0012" y="-36" width="1175.31" height="36"/>
</g>

<g fill="none" stroke="#000000" stroke-opacity="1" stroke-width="1" stroke-linecap="square" stroke-linejoin="bevel" transform="matrix(2,0,0,2,-0.0024,72)"
font-family="Ubuntu" font-size="11" font-weight="400" font-style="normal" 
>
</g>

<g fill="none" stroke="#000000" stroke-opacity="1" stroke-width="1" stroke-linecap="square" stroke-linejoin="bevel" transform="matrix(2,0,0,2,-0.0024,72)"
font-family="Ubuntu" font-size="11" font-weight="400" font-style="normal" 
>
</g>

<g fill="none" stroke="#000000" stroke-opacity="1" stroke-width="1" stroke-linecap="square" stroke-linejoin="bevel" transform="matrix(2,0,0,2,-0.0024,72)"
font-family="Ubuntu" font-size="11" font-weight="400" font-style="normal" 
>
</g>

<g fill="none" stroke="#000000" stroke-opacity="1" stroke-width="1" stroke-linecap="square" stroke-linejoin="bevel" transform="matrix(2,0,0,2,-0.0024,72)"
font-family="Ubuntu" font-size="11" font-weight="400" font-style="normal" 
>
</g>

<g fill="none" stroke="#000000" stroke-opacity="1" stroke-width="1" stroke-linecap="square" stroke-linejoin="round" transform="matrix(2,0,0,2,-0.0024,72)"
font-family="Ubuntu" font-size="11" font-weight="400" font-style="normal" 
>
<rect x="514.96" y="-35.5" width="135.001" height="35"/>
</g>

<g fill="none" stroke="#000000" stroke-opacity="1" stroke-width="1" stroke-linecap="square" stroke-linejoin="bevel" transform="matrix(2,0,0,2,-0.0024,72)"
font-family="Ubuntu" font-size="11" font-weight="400" font-style="normal" 
>
</g>

<g fill="none" stroke="#000000" stroke-opacity="1" stroke-width="1" stroke-linecap="square" stroke-linejoin="bevel" transform="matrix(2,0,0,2,1072.64,22)"
font-family="Ubuntu" font-size="11" font-weight="400" font-style="normal" 
>
</g>

<g fill="none" stroke="#000000" stroke-opacity="1" stroke-width="1" stroke-linecap="square" stroke-linejoin="bevel" transform="matrix(2,0,0,2,1072.64,22)"
font-family="sans" font-size="11" font-weight="100" font-style="normal" 
>
</g>

<g fill="#000000" fill-opacity="1" stroke="#000000" stroke-opacity="1" stroke-width="1" stroke-linecap="square" stroke-linejoin="round" transform="matrix(2,0,0,2,1072.64,22)"
font-family="sans" font-size="11" font-weight="100" font-style="normal" 
>
<path vector-effect="none" fill-rule="nonzero" d="M2.79688,2.98438 L3.70313,2.98438 L0.90625,12.0156 L0,12.0156 L2.79688,2.98438 M4.73438,4.98438 L5.73438,4.98438 L5.73438,11 L4.73438,11 L4.73438,4.98438 M4.73438,2.64063 L5.73438,2.64063 L5.73438,3.89063 L4.73438,3.89063 L4.73438,2.64063 M10.125,5.67188 C9.59375,5.67188 9.17448,5.88021 8.86719,6.29688 C8.5599,6.71354 8.40625,7.28125 8.40625,8 C8.40625,8.71875 8.55729,9.28385 8.85938,9.69531 C9.16146,10.1068 9.58333,10.3125 10.125,10.3125 C10.6458,10.3125 11.0599,10.1068 11.3672,9.69531 C11.6745,9.28385 11.8281,8.71875 11.8281,8 C11.8281,7.28125 11.6745,6.71354 11.3672,6.29688 C11.0599,5.88021 10.6458,5.67188 10.125,5.67188 M10.125,4.84375 C10.9792,4.84375 11.651,5.1224 12.1406,5.67969 C12.6302,6.23698 12.875,7.01042 12.875,8 C12.875,8.97917 12.6302,9.75 12.1406,10.3125 C11.651,10.875 10.9792,11.1563 10.125,11.1563 C9.26042,11.1563 8.58333,10.875 8.09375,10.3125 C7.60417,9.75 7.35938,8.97917 7.35938,8 C7.35938,7.01042 7.60417,6.23698 8.09375,5.67969 C8.58333,5.1224 9.26042,4.84375 10.125,4.84375 M15.4844,3.28125 L15.4844,4.98438 L17.5156,4.98438 L17.5156,5.75 L15.4844,5.75 L15.4844,9.01563 C15.4844,9.50521 15.5521,9.82031 15.6875,9.96094 C15.8229,10.1016 16.0938,10.1719 16.5,10.1719 L17.5156,10.1719 L17.5156,11 L16.5,11 C15.7396,11 15.2135,10.8568 14.9219,10.5703 C14.6302,10.2839 14.4844,9.76563 14.4844,9.01563 L14.4844,5.75 L13.7656,5.75 L13.7656,4.98438 L14.4844,4.98438 L14.4844,3.28125 L15.4844,3.28125 M23.3906,12.8281 L23.3906,13.5938 L17.6719,13.5938 L17.6719,12.8281 L23.3906,12.8281 M28.1563,5.15625 L28.1563,6.09375 C27.875,5.94792 27.5833,5.84115 27.2813,5.77344 C26.9792,5.70573 26.6667,5.67188 26.3438,5.67188 C25.8542,5.67188 25.487,5.7474 25.2422,5.89844 C24.9974,6.04948 24.875,6.27083 24.875,6.5625 C24.875,6.79167 24.9635,6.97135 25.1406,7.10156 C25.3177,7.23177 25.6719,7.35938 26.2031,7.48438 L26.5313,7.5625 C27.2396,7.70833 27.7396,7.91927 28.0313,8.19531 C28.3229,8.47135 28.4688,8.85417 28.4688,9.34375 C28.4688,9.89583 28.25,10.3359 27.8125,10.6641 C27.375,10.9922 26.7656,11.1563 25.9844,11.1563 C25.6615,11.1563 25.3255,11.125 24.9766,11.0625 C24.6276,11 24.2604,10.9063 23.875,10.7813 L23.875,9.76563 C24.2396,9.95313 24.599,10.0938 24.9531,10.1875 C25.3073,10.2813 25.6615,10.3281 26.0156,10.3281 C26.474,10.3281 26.8281,10.2474 27.0781,10.0859 C27.3281,9.92448 27.4531,9.70313 27.4531,9.42188 C27.4531,9.15104 27.3646,8.94271 27.1875,8.79688 C27.0104,8.65104 26.6146,8.51563 26,8.39063 L25.6563,8.29688 C25.0417,8.17188 24.599,7.97656 24.3281,7.71094 C24.0573,7.44531 23.9219,7.07813 23.9219,6.60938 C23.9219,6.04688 24.1224,5.61198 24.5234,5.30469 C24.9245,4.9974 25.4948,4.84375 26.2344,4.84375 C26.599,4.84375 26.9427,4.86979 27.2656,4.92188 C27.5885,4.97396 27.8854,5.05208 28.1563,5.15625 M35.1875,7.75 L35.1875,8.23438 L30.6406,8.23438 C30.6823,8.91146 30.8854,9.42708 31.25,9.78125 C31.6146,10.1354 32.125,10.3125 32.7813,10.3125 C33.1667,10.3125 33.5365,10.2656 33.8906,10.1719 C34.2448,10.0781 34.599,9.94271 34.9531,9.76563 L34.9531,10.6875 C34.599,10.8438 34.2344,10.9609 33.8594,11.0391 C33.4844,11.1172 33.1094,11.1563 32.7344,11.1563 C31.7656,11.1563 31.0026,10.8776 30.4453,10.3203 C29.888,9.76302 29.6094,9.00521 29.6094,8.04688 C29.6094,7.06771 29.875,6.28906 30.4063,5.71094 C30.9375,5.13281 31.6563,4.84375 32.5625,4.84375 C33.3646,4.84375 34.0026,5.10417 34.4766,5.625 C34.9505,6.14583 35.1875,6.85417 35.1875,7.75 M34.1875,7.45313 C34.1875,6.91146 34.0391,6.47917 33.7422,6.15625 C33.4453,5.83333 33.0521,5.67188 32.5625,5.67188 C32.0104,5.67188 31.5703,5.82813 31.2422,6.14063 C30.9141,6.45313 30.724,6.89063 30.6719,7.45313 L34.1875,7.45313 M41.7969,7.375 L41.7969,11 L40.8125,11 L40.8125,7.40625 C40.8125,6.83333 40.7031,6.40625 40.4844,6.125 C40.2656,5.84375 39.9323,5.70313 39.4844,5.70313 C38.9531,5.70313 38.5339,5.8724 38.2266,6.21094 C37.9193,6.54948 37.7656,7.01042 37.7656,7.59375 L37.7656,11 L36.7656,11 L36.7656,4.98438 L37.7656,4.98438 L37.7656,5.92188 C37.9948,5.55729 38.2708,5.28646 38.5938,5.10938 C38.9167,4.93229 39.2865,4.84375 39.7031,4.84375 C40.3906,4.84375 40.9115,5.05729 41.2656,5.48438 C41.6198,5.91146 41.7969,6.54167 41.7969,7.375 M47.6094,5.15625 L47.6094,6.09375 C47.3281,5.94792 47.0365,5.84115 46.7344,5.77344 C46.4323,5.70573 46.1198,5.67188 45.7969,5.67188 C45.3073,5.67188 44.9401,5.7474 44.6953,5.89844 C44.4505,6.04948 44.3281,6.27083 44.3281,6.5625 C44.3281,6.79167 44.4167,6.97135 44.5938,7.10156 C44.7708,7.23177 45.125,7.35938 45.6563,7.48438 L45.9844,7.5625 C46.6927,7.70833 47.1927,7.91927 47.4844,8.19531 C47.776,8.47135 47.9219,8.85417 47.9219,9.34375 C47.9219,9.89583 47.7031,10.3359 47.2656,10.6641 C46.8281,10.9922 46.2188,11.1563 45.4375,11.1563 C45.1146,11.1563 44.7786,11.125 44.4297,11.0625 C44.0807,11 43.7135,10.9063 43.3281,10.7813 L43.3281,9.76563 C43.6927,9.95313 44.0521,10.0938 44.4063,10.1875 C44.7604,10.2813 45.1146,10.3281 45.4688,10.3281 C45.9271,10.3281 46.2813,10.2474 46.5313,10.0859 C46.7813,9.92448 46.9063,9.70313 46.9063,9.42188 C46.9063,9.15104 46.8177,8.94271 46.6406,8.79688 C46.4635,8.65104 46.0677,8.51563 45.4531,8.39063 L45.1094,8.29688 C44.4948,8.17188 44.0521,7.97656 43.7813,7.71094 C43.5104,7.44531 43.375,7.07813 43.375,6.60938 C43.375,6.04688 43.5755,5.61198 43.9766,5.30469 C44.3776,4.9974 44.9479,4.84375 45.6875,4.84375 C46.0521,4.84375 46.3958,4.86979 46.7188,4.92188 C47.0417,4.97396 47.3385,5.05208 47.6094,5.15625 M51.8281,5.67188 C51.2969,5.67188 50.8776,5.88021 50.5703,6.29688 C50.263,6.71354 50.1094,7.28125 50.1094,8 C50.1094,8.71875 50.2604,9.28385 50.5625,9.69531 C50.8646,10.1068 51.2865,10.3125 51.8281,10.3125 C52.349,10.3125 52.763,10.1068 53.0703,9.69531 C53.3776,9.28385 53.5313,8.71875 53.5313,8 C53.5313,7.28125 53.3776,6.71354 53.0703,6.29688 C52.763,5.88021 52.349,5.67188 51.8281,5.67188 M51.8281,4.84375 C52.6823,4.84375 53.3542,5.1224 53.8438,5.67969 C54.3333,6.23698 54.5781,7.01042 54.5781,8 C54.5781,8.97917 54.3333,9.75 53.8438,10.3125 C53.3542,10.875 52.6823,11.1563 51.8281,11.1563 C50.9635,11.1563 50.2865,10.875 49.7969,10.3125 C49.3073,9.75 49.0625,8.97917 49.0625,8 C49.0625,7.01042 49.3073,6.23698 49.7969,5.67969 C50.2865,5.1224 50.9635,4.84375 51.8281,4.84375 M59.6875,5.90625 C59.5833,5.84375 59.4661,5.79688 59.3359,5.76563 C59.2057,5.73438 59.0625,5.71875 58.9063,5.71875 C58.3438,5.71875 57.9141,5.90104 57.6172,6.26563 C57.3203,6.63021 57.1719,7.15104 57.1719,7.82813 L57.1719,11 L56.1719,11 L56.1719,4.98438 L57.1719,4.98438 L57.1719,5.92188 C57.3698,5.55729 57.6354,5.28646 57.9688,5.10938 C58.3021,4.93229 58.7083,4.84375 59.1875,4.84375 C59.2604,4.84375 59.3359,4.84635 59.4141,4.85156 C59.4922,4.85677 59.5833,4.86979 59.6875,4.89063 L59.6875,5.90625 M65.2969,12.8281 L65.2969,13.5938 L59.5781,13.5938 L59.5781,12.8281 L65.2969,12.8281 M67.2031,3.28125 L67.2031,4.98438 L69.2344,4.98438 L69.2344,5.75 L67.2031,5.75 L67.2031,9.01563 C67.2031,9.50521 67.2708,9.82031 67.4063,9.96094 C67.5417,10.1016 67.8125,10.1719 68.2188,10.1719 L69.2344,10.1719 L69.2344,11 L68.2188,11 C67.4583,11 66.9323,10.8568 66.6406,10.5703 C66.349,10.2839 66.2031,9.76563 66.2031,9.01563 L66.2031,5.75 L65.4844,5.75 L65.4844,4.98438 L66.2031,4.98438 L66.2031,3.28125 L67.2031,3.28125 M72.875,5.67188 C72.3438,5.67188 71.9245,5.88021 71.6172,6.29688 C71.3099,6.71354 71.1563,7.28125 71.1563,8 C71.1563,8.71875 71.3073,9.28385 71.6094,9.69531 C71.9115,10.1068 72.3333,10.3125 72.875,10.3125 C73.3958,10.3125 73.8099,10.1068 74.1172,9.69531 C74.4245,9.28385 74.5781,8.71875 74.5781,8 C74.5781,7.28125 74.4245,6.71354 74.1172,6.29688 C73.8099,5.88021 73.3958,5.67188 72.875,5.67188 M72.875,4.84375 C73.7292,4.84375 74.401,5.1224 74.8906,5.67969 C75.3802,6.23698 75.625,7.01042 75.625,8 C75.625,8.97917 75.3802,9.75 74.8906,10.3125 C74.401,10.875 73.7292,11.1563 72.875,11.1563 C72.0104,11.1563 71.3333,10.875 70.8438,10.3125 C70.3542,9.75 70.1094,8.97917 70.1094,8 C70.1094,7.01042 70.3542,6.23698 70.8438,5.67969 C71.3333,5.1224 72.0104,4.84375 72.875,4.84375 M78.2188,10.0938 L78.2188,13.2813 L77.2188,13.2813 L77.2188,4.98438 L78.2188,4.98438 L78.2188,5.89063 C78.4167,5.53646 78.6745,5.27344 78.9922,5.10156 C79.3099,4.92969 79.6927,4.84375 80.1406,4.84375 C80.8698,4.84375 81.4609,5.13281 81.9141,5.71094 C82.3672,6.28906 82.5938,7.05208 82.5938,8 C82.5938,8.94792 82.3672,9.71094 81.9141,10.2891 C81.4609,10.8672 80.8698,11.1563 80.1406,11.1563 C79.6927,11.1563 79.3099,11.0703 78.9922,10.8984 C78.6745,10.7266 78.4167,10.4583 78.2188,10.0938 M81.5781,8 C81.5781,7.27083 81.4271,6.70052 81.125,6.28906 C80.8229,5.8776 80.4115,5.67188 79.8906,5.67188 C79.3698,5.67188 78.9609,5.8776 78.6641,6.28906 C78.3672,6.70052 78.2188,7.27083 78.2188,8 C78.2188,8.72917 78.3672,9.29948 78.6641,9.71094 C78.9609,10.1224 79.3698,10.3281 79.8906,10.3281 C80.4115,10.3281 80.8229,10.1224 81.125,9.71094 C81.4271,9.29948 81.5781,8.72917 81.5781,8 M84.2188,4.98438 L85.2188,4.98438 L85.2188,11 L84.2188,11 L84.2188,4.98438 M84.2188,2.64063 L85.2188,2.64063 L85.2188,3.89063 L84.2188,3.89063 L84.2188,2.64063 M91.5938,5.21875 L91.5938,6.14063 C91.3229,5.98438 91.0469,5.86719 90.7656,5.78906 C90.4844,5.71094 90.1979,5.67188 89.9063,5.67188 C89.2708,5.67188 88.776,5.875 88.4219,6.28125 C88.0677,6.6875 87.8906,7.26042 87.8906,8 C87.8906,8.72917 88.0677,9.29688 88.4219,9.70313 C88.776,10.1094 89.2708,10.3125 89.9063,10.3125 C90.1979,10.3125 90.4844,10.276 90.7656,10.2031 C91.0469,10.1302 91.3229,10.0156 91.5938,9.85938 L91.5938,10.7656 C91.3229,10.901 91.0391,11 90.7422,11.0625 C90.4453,11.125 90.1302,11.1563 89.7969,11.1563 C88.8906,11.1563 88.1719,10.8724 87.6406,10.3047 C87.1094,9.73698 86.8438,8.96875 86.8438,8 C86.8438,7.02083 87.112,6.25 87.6484,5.6875 C88.1849,5.125 88.9219,4.84375 89.8594,4.84375 C90.1719,4.84375 90.4714,4.875 90.7578,4.9375 C91.0443,5 91.3229,5.09375 91.5938,5.21875 "/>
</g>

<g fill="none" stroke="#000000" stroke-opacity="1" stroke-width="1" stroke-linecap="square" stroke-linejoin="bevel" transform="matrix(2,0,0,2,1072.64,22)"
font-family="sans" font-size="11" font-weight="100" font-style="normal" 
>
</g>

<g fill="none" stroke="#000000" stroke-opacity="1" stroke-width="1" stroke-linecap="square" stroke-linejoin="bevel" transform="matrix(2,0,0,2,1072.64,22)"
font-family="Ubuntu" font-size="11" font-weight="400" font-style="normal" 
>
</g>

<g fill="none" stroke="#000000" stroke-opacity="1" stroke-width="1" stroke-linecap="square" stroke-linejoin="bevel" transform="matrix(2,0,0,2,-0.0024,72)"
font-family="Ubuntu" font-size="11" font-weight="400" font-style="normal" 
>
</g>

<g fill="none" stroke="#000000" stroke-opacity="1" stroke-width="1" stroke-linecap="square" stroke-linejoin="bevel" transform="matrix(2,0,0,2,-0.0024,72)"
font-family="Ubuntu" font-size="11" font-weight="400" font-style="normal" 
>
</g>

<g fill="none" stroke="#000000" stroke-opacity="1" stroke-width="1" stroke-linecap="square" stroke-linejoin="bevel" transform="matrix(2,0,0,2,-0.0024,72)"
font-family="Ubuntu" font-size="11" font-weight="400" font-style="normal" 
>
</g>

<g fill="none" stroke="#000000" stroke-opacity="1" stroke-width="1" stroke-linecap="square" stroke-linejoin="round" transform="matrix(2,0,0,2,-0.0024,72)"
font-family="Ubuntu" font-size="11" font-weight="400" font-style="normal" 
>
<ellipse cx="919.88" cy="-18" rx="254.927" ry="17.5"/>
</g>

<g fill="none" stroke="#000000" stroke-opacity="1" stroke-width="1" stroke-linecap="square" stroke-linejoin="bevel" transform="matrix(2,0,0,2,-0.0024,72)"
font-family="Ubuntu" font-size="11" font-weight="400" font-style="normal" 
>
</g>

<g fill="none" stroke="#000000" stroke-opacity="1" stroke-width="1" stroke-linecap="square" stroke-linejoin="bevel" transform="matrix(2,0,0,2,1547.7,22)"
font-family="Ubuntu" font-size="11" font-weight="400" font-style="normal" 
>
</g>

<g fill="none" stroke="#000000" stroke-opacity="1" stroke-width="1" stroke-linecap="square" stroke-linejoin="bevel" transform="matrix(2,0,0,2,1547.7,22)"
font-family="sans" font-size="11" font-weight="100" font-style="normal" 
>
</g>

<g fill="#000000" fill-opacity="1" stroke="#000000" stroke-opacity="1" stroke-width="1" stroke-linecap="square" stroke-linejoin="round" transform="matrix(2,0,0,2,1547.7,22)"
font-family="sans" font-size="11" font-weight="100" font-style="normal" 
>
<path vector-effect="none" fill-rule="nonzero" d="M2.79688,2.98438 L3.70313,2.98438 L0.90625,12.0156 L0,12.0156 L2.79688,2.98438 M4.73438,4.98438 L5.73438,4.98438 L5.73438,11 L4.73438,11 L4.73438,4.98438 M4.73438,2.64063 L5.73438,2.64063 L5.73438,3.89063 L4.73438,3.89063 L4.73438,2.64063 M10.125,5.67188 C9.59375,5.67188 9.17448,5.88021 8.86719,6.29688 C8.5599,6.71354 8.40625,7.28125 8.40625,8 C8.40625,8.71875 8.55729,9.28385 8.85938,9.69531 C9.16146,10.1068 9.58333,10.3125 10.125,10.3125 C10.6458,10.3125 11.0599,10.1068 11.3672,9.69531 C11.6745,9.28385 11.8281,8.71875 11.8281,8 C11.8281,7.28125 11.6745,6.71354 11.3672,6.29688 C11.0599,5.88021 10.6458,5.67188 10.125,5.67188 M10.125,4.84375 C10.9792,4.84375 11.651,5.1224 12.1406,5.67969 C12.6302,6.23698 12.875,7.01042 12.875,8 C12.875,8.97917 12.6302,9.75 12.1406,10.3125 C11.651,10.875 10.9792,11.1563 10.125,11.1563 C9.26042,11.1563 8.58333,10.875 8.09375,10.3125 C7.60417,9.75 7.35938,8.97917 7.35938,8 C7.35938,7.01042 7.60417,6.23698 8.09375,5.67969 C8.58333,5.1224 9.26042,4.84375 10.125,4.84375 M15.4844,3.28125 L15.4844,4.98438 L17.5156,4.98438 L17.5156,5.75 L15.4844,5.75 L15.4844,9.01563 C15.4844,9.50521 15.5521,9.82031 15.6875,9.96094 C15.8229,10.1016 16.0938,10.1719 16.5,10.1719 L17.5156,10.1719 L17.5156,11 L16.5,11 C15.7396,11 15.2135,10.8568 14.9219,10.5703 C14.6302,10.2839 14.4844,9.76563 14.4844,9.01563 L14.4844,5.75 L13.7656,5.75 L13.7656,4.98438 L14.4844,4.98438 L14.4844,3.28125 L15.4844,3.28125 M23.3906,12.8281 L23.3906,13.5938 L17.6719,13.5938 L17.6719,12.8281 L23.3906,12.8281 M28.1563,5.15625 L28.1563,6.09375 C27.875,5.94792 27.5833,5.84115 27.2813,5.77344 C26.9792,5.70573 26.6667,5.67188 26.3438,5.67188 C25.8542,5.67188 25.487,5.7474 25.2422,5.89844 C24.9974,6.04948 24.875,6.27083 24.875,6.5625 C24.875,6.79167 24.9635,6.97135 25.1406,7.10156 C25.3177,7.23177 25.6719,7.35938 26.2031,7.48438 L26.5313,7.5625 C27.2396,7.70833 27.7396,7.91927 28.0313,8.19531 C28.3229,8.47135 28.4688,8.85417 28.4688,9.34375 C28.4688,9.89583 28.25,10.3359 27.8125,10.6641 C27.375,10.9922 26.7656,11.1563 25.9844,11.1563 C25.6615,11.1563 25.3255,11.125 24.9766,11.0625 C24.6276,11 24.2604,10.9063 23.875,10.7813 L23.875,9.76563 C24.2396,9.95313 24.599,10.0938 24.9531,10.1875 C25.3073,10.2813 25.6615,10.3281 26.0156,10.3281 C26.474,10.3281 26.8281,10.2474 27.0781,10.0859 C27.3281,9.92448 27.4531,9.70313 27.4531,9.42188 C27.4531,9.15104 27.3646,8.94271 27.1875,8.79688 C27.0104,8.65104 26.6146,8.51563 26,8.39063 L25.6563,8.29688 C25.0417,8.17188 24.599,7.97656 24.3281,7.71094 C24.0573,7.44531 23.9219,7.07813 23.9219,6.60938 C23.9219,6.04688 24.1224,5.61198 24.5234,5.30469 C24.9245,4.9974 25.4948,4.84375 26.2344,4.84375 C26.599,4.84375 26.9427,4.86979 27.2656,4.92188 C27.5885,4.97396 27.8854,5.05208 28.1563,5.15625 M35.1875,7.75 L35.1875,8.23438 L30.6406,8.23438 C30.6823,8.91146 30.8854,9.42708 31.25,9.78125 C31.6146,10.1354 32.125,10.3125 32.7813,10.3125 C33.1667,10.3125 33.5365,10.2656 33.8906,10.1719 C34.2448,10.0781 34.599,9.94271 34.9531,9.76563 L34.9531,10.6875 C34.599,10.8438 34.2344,10.9609 33.8594,11.0391 C33.4844,11.1172 33.1094,11.1563 32.7344,11.1563 C31.7656,11.1563 31.0026,10.8776 30.4453,10.3203 C29.888,9.76302 29.6094,9.00521 29.6094,8.04688 C29.6094,7.06771 29.875,6.28906 30.4063,5.71094 C30.9375,5.13281 31.6563,4.84375 32.5625,4.84375 C33.3646,4.84375 34.0026,5.10417 34.4766,5.625 C34.9505,6.14583 35.1875,6.85417 35.1875,7.75 M34.1875,7.45313 C34.1875,6.91146 34.0391,6.47917 33.7422,6.15625 C33.4453,5.83333 33.0521,5.67188 32.5625,5.67188 C32.0104,5.67188 31.5703,5.82813 31.2422,6.14063 C30.9141,6.45313 30.724,6.89063 30.6719,7.45313 L34.1875,7.45313 M41.7969,7.375 L41.7969,11 L40.8125,11 L40.8125,7.40625 C40.8125,6.83333 40.7031,6.40625 40.4844,6.125 C40.2656,5.84375 39.9323,5.70313 39.4844,5.70313 C38.9531,5.70313 38.5339,5.8724 38.2266,6.21094 C37.9193,6.54948 37.7656,7.01042 37.7656,7.59375 L37.7656,11 L36.7656,11 L36.7656,4.98438 L37.7656,4.98438 L37.7656,5.92188 C37.9948,5.55729 38.2708,5.28646 38.5938,5.10938 C38.9167,4.93229 39.2865,4.84375 39.7031,4.84375 C40.3906,4.84375 40.9115,5.05729 41.2656,5.48438 C41.6198,5.91146 41.7969,6.54167 41.7969,7.375 M47.6094,5.15625 L47.6094,6.09375 C47.3281,5.94792 47.0365,5.84115 46.7344,5.77344 C46.4323,5.70573 46.1198,5.67188 45.7969,5.67188 C45.3073,5.67188 44.9401,5.7474 44.6953,5.89844 C44.4505,6.04948 44.3281,6.27083 44.3281,6.5625 C44.3281,6.79167 44.4167,6.97135 44.5938,7.10156 C44.7708,7.23177 45.125,7.35938 45.6563,7.48438 L45.9844,7.5625 C46.6927,7.70833 47.1927,7.91927 47.4844,8.19531 C47.776,8.47135 47.9219,8.85417 47.9219,9.34375 C47.9219,9.89583 47.7031,10.3359 47.2656,10.6641 C46.8281,10.9922 46.2188,11.1563 45.4375,11.1563 C45.1146,11.1563 44.7786,11.125 44.4297,11.0625 C44.0807,11 43.7135,10.9063 43.3281,10.7813 L43.3281,9.76563 C43.6927,9.95313 44.0521,10.0938 44.4063,10.1875 C44.7604,10.2813 45.1146,10.3281 45.4688,10.3281 C45.9271,10.3281 46.2813,10.2474 46.5313,10.0859 C46.7813,9.92448 46.9063,9.70313 46.9063,9.42188 C46.9063,9.15104 46.8177,8.94271 46.6406,8.79688 C46.4635,8.65104 46.0677,8.51563 45.4531,8.39063 L45.1094,8.29688 C44.4948,8.17188 44.0521,7.97656 43.7813,7.71094 C43.5104,7.44531 43.375,7.07813 43.375,6.60938 C43.375,6.04688 43.5755,5.61198 43.9766,5.30469 C44.3776,4.9974 44.9479,4.84375 45.6875,4.84375 C46.0521,4.84375 46.3958,4.86979 46.7188,4.92188 C47.0417,4.97396 47.3385,5.05208 47.6094,5.15625 M51.8281,5.67188 C51.2969,5.67188 50.8776,5.88021 50.5703,6.29688 C50.263,6.71354 50.1094,7.28125 50.1094,8 C50.1094,8.71875 50.2604,9.28385 50.5625,9.69531 C50.8646,10.1068 51.2865,10.3125 51.8281,10.3125 C52.349,10.3125 52.763,10.1068 53.0703,9.69531 C53.3776,9.28385 53.5313,8.71875 53.5313,8 C53.5313,7.28125 53.3776,6.71354 53.0703,6.29688 C52.763,5.88021 52.349,5.67188 51.8281,5.67188 M51.8281,4.84375 C52.6823,4.84375 53.3542,5.1224 53.8438,5.67969 C54.3333,6.23698 54.5781,7.01042 54.5781,8 C54.5781,8.97917 54.3333,9.75 53.8438,10.3125 C53.3542,10.875 52.6823,11.1563 51.8281,11.1563 C50.9635,11.1563 50.2865,10.875 49.7969,10.3125 C49.3073,9.75 49.0625,8.97917 49.0625,8 C49.0625,7.01042 49.3073,6.23698 49.7969,5.67969 C50.2865,5.1224 50.9635,4.84375 51.8281,4.84375 M59.6875,5.90625 C59.5833,5.84375 59.4661,5.79688 59.3359,5.76563 C59.2057,5.73438 59.0625,5.71875 58.9063,5.71875 C58.3438,5.71875 57.9141,5.90104 57.6172,6.26563 C57.3203,6.63021 57.1719,7.15104 57.1719,7.82813 L57.1719,11 L56.1719,11 L56.1719,4.98438 L57.1719,4.98438 L57.1719,5.92188 C57.3698,5.55729 57.6354,5.28646 57.9688,5.10938 C58.3021,4.93229 58.7083,4.84375 59.1875,4.84375 C59.2604,4.84375 59.3359,4.84635 59.4141,4.85156 C59.4922,4.85677 59.5833,4.86979 59.6875,4.89063 L59.6875,5.90625 M65.2969,12.8281 L65.2969,13.5938 L59.5781,13.5938 L59.5781,12.8281 L65.2969,12.8281 M70.0625,5.15625 L70.0625,6.09375 C69.7813,5.94792 69.4896,5.84115 69.1875,5.77344 C68.8854,5.70573 68.5729,5.67188 68.25,5.67188 C67.7604,5.67188 67.3932,5.7474 67.1484,5.89844 C66.9036,6.04948 66.7813,6.27083 66.7813,6.5625 C66.7813,6.79167 66.8698,6.97135 67.0469,7.10156 C67.224,7.23177 67.5781,7.35938 68.1094,7.48438 L68.4375,7.5625 C69.1458,7.70833 69.6458,7.91927 69.9375,8.19531 C70.2292,8.47135 70.375,8.85417 70.375,9.34375 C70.375,9.89583 70.1563,10.3359 69.7188,10.6641 C69.2813,10.9922 68.6719,11.1563 67.8906,11.1563 C67.5677,11.1563 67.2318,11.125 66.8828,11.0625 C66.5339,11 66.1667,10.9063 65.7813,10.7813 L65.7813,9.76563 C66.1458,9.95313 66.5052,10.0938 66.8594,10.1875 C67.2135,10.2813 67.5677,10.3281 67.9219,10.3281 C68.3802,10.3281 68.7344,10.2474 68.9844,10.0859 C69.2344,9.92448 69.3594,9.70313 69.3594,9.42188 C69.3594,9.15104 69.2708,8.94271 69.0938,8.79688 C68.9167,8.65104 68.5208,8.51563 67.9063,8.39063 L67.5625,8.29688 C66.9479,8.17188 66.5052,7.97656 66.2344,7.71094 C65.9635,7.44531 65.8281,7.07813 65.8281,6.60938 C65.8281,6.04688 66.0286,5.61198 66.4297,5.30469 C66.8307,4.9974 67.401,4.84375 68.1406,4.84375 C68.5052,4.84375 68.849,4.86979 69.1719,4.92188 C69.4948,4.97396 69.7917,5.05208 70.0625,5.15625 M71.8438,8.625 L71.8438,4.98438 L72.8281,4.98438 L72.8281,8.59375 C72.8281,9.15625 72.9401,9.58073 73.1641,9.86719 C73.388,10.1536 73.7188,10.2969 74.1563,10.2969 C74.6979,10.2969 75.1224,10.1276 75.4297,9.78906 C75.737,9.45052 75.8906,8.98438 75.8906,8.39063 L75.8906,4.98438 L76.875,4.98438 L76.875,11 L75.8906,11 L75.8906,10.0781 C75.651,10.4427 75.3724,10.7135 75.0547,10.8906 C74.737,11.0677 74.3698,11.1563 73.9531,11.1563 C73.2656,11.1563 72.7422,10.9401 72.3828,10.5078 C72.0234,10.0755 71.8438,9.44792 71.8438,8.625 M83.2344,8 C83.2344,7.27083 83.0833,6.70052 82.7813,6.28906 C82.4792,5.8776 82.0677,5.67188 81.5469,5.67188 C81.026,5.67188 80.6172,5.8776 80.3203,6.28906 C80.0234,6.70052 79.875,7.27083 79.875,8 C79.875,8.72917 80.0234,9.29948 80.3203,9.71094 C80.6172,10.1224 81.026,10.3281 81.5469,10.3281 C82.0677,10.3281 82.4792,10.1224 82.7813,9.71094 C83.0833,9.29948 83.2344,8.72917 83.2344,8 M79.875,5.89063 C80.0729,5.53646 80.3307,5.27344 80.6484,5.10156 C80.9661,4.92969 81.349,4.84375 81.7969,4.84375 C82.526,4.84375 83.1172,5.13281 83.5703,5.71094 C84.0234,6.28906 84.25,7.05208 84.25,8 C84.25,8.94792 84.0234,9.71094 83.5703,10.2891 C83.1172,10.8672 82.526,11.1563 81.7969,11.1563 C81.349,11.1563 80.9661,11.0703 80.6484,10.8984 C80.3307,10.7266 80.0729,10.4583 79.875,10.0938 L79.875,11 L78.875,11 L78.875,2.64063 L79.875,2.64063 L79.875,5.89063 M89.7188,5.15625 L89.7188,6.09375 C89.4375,5.94792 89.1458,5.84115 88.8438,5.77344 C88.5417,5.70573 88.2292,5.67188 87.9063,5.67188 C87.4167,5.67188 87.0495,5.7474 86.8047,5.89844 C86.5599,6.04948 86.4375,6.27083 86.4375,6.5625 C86.4375,6.79167 86.526,6.97135 86.7031,7.10156 C86.8802,7.23177 87.2344,7.35938 87.7656,7.48438 L88.0938,7.5625 C88.8021,7.70833 89.3021,7.91927 89.5938,8.19531 C89.8854,8.47135 90.0313,8.85417 90.0313,9.34375 C90.0313,9.89583 89.8125,10.3359 89.375,10.6641 C88.9375,10.9922 88.3281,11.1563 87.5469,11.1563 C87.224,11.1563 86.888,11.125 86.5391,11.0625 C86.1901,11 85.8229,10.9063 85.4375,10.7813 L85.4375,9.76563 C85.8021,9.95313 86.1615,10.0938 86.5156,10.1875 C86.8698,10.2813 87.224,10.3281 87.5781,10.3281 C88.0365,10.3281 88.3906,10.2474 88.6406,10.0859 C88.8906,9.92448 89.0156,9.70313 89.0156,9.42188 C89.0156,9.15104 88.9271,8.94271 88.75,8.79688 C88.5729,8.65104 88.1771,8.51563 87.5625,8.39063 L87.2188,8.29688 C86.6042,8.17188 86.1615,7.97656 85.8906,7.71094 C85.6198,7.44531 85.4844,7.07813 85.4844,6.60938 C85.4844,6.04688 85.6849,5.61198 86.0859,5.30469 C86.487,4.9974 87.0573,4.84375 87.7969,4.84375 C88.1615,4.84375 88.5052,4.86979 88.8281,4.92188 C89.151,4.97396 89.4479,5.05208 89.7188,5.15625 M95.9219,5.21875 L95.9219,6.14063 C95.651,5.98438 95.375,5.86719 95.0938,5.78906 C94.8125,5.71094 94.526,5.67188 94.2344,5.67188 C93.599,5.67188 93.1042,5.875 92.75,6.28125 C92.3958,6.6875 92.2188,7.26042 92.2188,8 C92.2188,8.72917 92.3958,9.29688 92.75,9.70313 C93.1042,10.1094 93.599,10.3125 94.2344,10.3125 C94.526,10.3125 94.8125,10.276 95.0938,10.2031 C95.375,10.1302 95.651,10.0156 95.9219,9.85938 L95.9219,10.7656 C95.651,10.901 95.3672,11 95.0703,11.0625 C94.7734,11.125 94.4583,11.1563 94.125,11.1563 C93.2188,11.1563 92.5,10.8724 91.9688,10.3047 C91.4375,9.73698 91.1719,8.96875 91.1719,8 C91.1719,7.02083 91.4401,6.25 91.9766,5.6875 C92.513,5.125 93.25,4.84375 94.1875,4.84375 C94.5,4.84375 94.7995,4.875 95.0859,4.9375 C95.3724,5 95.651,5.09375 95.9219,5.21875 M101.125,5.90625 C101.021,5.84375 100.904,5.79688 100.773,5.76563 C100.643,5.73438 100.5,5.71875 100.344,5.71875 C99.7813,5.71875 99.3516,5.90104 99.0547,6.26563 C98.7578,6.63021 98.6094,7.15104 98.6094,7.82813 L98.6094,11 L97.6094,11 L97.6094,4.98438 L98.6094,4.98438 L98.6094,5.92188 C98.8073,5.55729 99.0729,5.28646 99.4063,5.10938 C99.7396,4.93229 100.146,4.84375 100.625,4.84375 C100.698,4.84375 100.773,4.84635 100.852,4.85156 C100.93,4.85677 101.021,4.86979 101.125,4.89063 L101.125,5.90625 M102.156,4.98438 L103.156,4.98438 L103.156,11 L102.156,11 L102.156,4.98438 M102.156,2.64063 L103.156,2.64063 L103.156,3.89063 L102.156,3.89063 L102.156,2.64063 M109.531,8 C109.531,7.27083 109.38,6.70052 109.078,6.28906 C108.776,5.8776 108.365,5.67188 107.844,5.67188 C107.323,5.67188 106.914,5.8776 106.617,6.28906 C106.32,6.70052 106.172,7.27083 106.172,8 C106.172,8.72917 106.32,9.29948 106.617,9.71094 C106.914,10.1224 107.323,10.3281 107.844,10.3281 C108.365,10.3281 108.776,10.1224 109.078,9.71094 C109.38,9.29948 109.531,8.72917 109.531,8 M106.172,5.89063 C106.37,5.53646 106.628,5.27344 106.945,5.10156 C107.263,4.92969 107.646,4.84375 108.094,4.84375 C108.823,4.84375 109.414,5.13281 109.867,5.71094 C110.32,6.28906 110.547,7.05208 110.547,8 C110.547,8.94792 110.32,9.71094 109.867,10.2891 C109.414,10.8672 108.823,11.1563 108.094,11.1563 C107.646,11.1563 107.263,11.0703 106.945,10.8984 C106.628,10.7266 106.37,10.4583 106.172,10.0938 L106.172,11 L105.172,11 L105.172,2.64063 L106.172,2.64063 L106.172,5.89063 M117.328,7.75 L117.328,8.23438 L112.781,8.23438 C112.823,8.91146 113.026,9.42708 113.391,9.78125 C113.755,10.1354 114.266,10.3125 114.922,10.3125 C115.307,10.3125 115.677,10.2656 116.031,10.1719 C116.385,10.0781 116.74,9.94271 117.094,9.76563 L117.094,10.6875 C116.74,10.8438 116.375,10.9609 116,11.0391 C115.625,11.1172 115.25,11.1563 114.875,11.1563 C113.906,11.1563 113.143,10.8776 112.586,10.3203 C112.029,9.76302 111.75,9.00521 111.75,8.04688 C111.75,7.06771 112.016,6.28906 112.547,5.71094 C113.078,5.13281 113.797,4.84375 114.703,4.84375 C115.505,4.84375 116.143,5.10417 116.617,5.625 C117.091,6.14583 117.328,6.85417 117.328,7.75 M116.328,7.45313 C116.328,6.91146 116.18,6.47917 115.883,6.15625 C115.586,5.83333 115.193,5.67188 114.703,5.67188 C114.151,5.67188 113.711,5.82813 113.383,6.14063 C113.055,6.45313 112.865,6.89063 112.813,7.45313 L116.328,7.45313 M122.422,5.90625 C122.318,5.84375 122.201,5.79688 122.07,5.76563 C121.94,5.73438 121.797,5.71875 121.641,5.71875 C121.078,5.71875 120.648,5.90104 120.352,6.26563 C120.055,6.63021 119.906,7.15104 119.906,7.82813 L119.906,11 L118.906,11 L118.906,4.98438 L119.906,4.98438 L119.906,5.92188 C120.104,5.55729 120.37,5.28646 120.703,5.10938 C121.036,4.93229 121.443,4.84375 121.922,4.84375 C121.995,4.84375 122.07,4.84635 122.148,4.85156 C122.227,4.85677 122.318,4.86979 122.422,4.89063 L122.422,5.90625 M128.031,12.8281 L128.031,13.5938 L122.313,13.5938 L122.313,12.8281 L128.031,12.8281 M133.953,7.375 L133.953,11 L132.969,11 L132.969,7.40625 C132.969,6.83333 132.859,6.40625 132.641,6.125 C132.422,5.84375 132.089,5.70313 131.641,5.70313 C131.109,5.70313 130.69,5.8724 130.383,6.21094 C130.076,6.54948 129.922,7.01042 129.922,7.59375 L129.922,11 L128.922,11 L128.922,4.98438 L129.922,4.98438 L129.922,5.92188 C130.151,5.55729 130.427,5.28646 130.75,5.10938 C131.073,4.93229 131.443,4.84375 131.859,4.84375 C132.547,4.84375 133.068,5.05729 133.422,5.48438 C133.776,5.91146 133.953,6.54167 133.953,7.375 M138.266,5.67188 C137.734,5.67188 137.315,5.88021 137.008,6.29688 C136.701,6.71354 136.547,7.28125 136.547,8 C136.547,8.71875 136.698,9.28385 137,9.69531 C137.302,10.1068 137.724,10.3125 138.266,10.3125 C138.786,10.3125 139.201,10.1068 139.508,9.69531 C139.815,9.28385 139.969,8.71875 139.969,8 C139.969,7.28125 139.815,6.71354 139.508,6.29688 C139.201,5.88021 138.786,5.67188 138.266,5.67188 M138.266,4.84375 C139.12,4.84375 139.792,5.1224 140.281,5.67969 C140.771,6.23698 141.016,7.01042 141.016,8 C141.016,8.97917 140.771,9.75 140.281,10.3125 C139.792,10.875 139.12,11.1563 138.266,11.1563 C137.401,11.1563 136.724,10.875 136.234,10.3125 C135.745,9.75 135.5,8.97917 135.5,8 C135.5,7.01042 135.745,6.23698 136.234,5.67969 C136.724,5.1224 137.401,4.84375 138.266,4.84375 M146.609,5.89063 L146.609,2.64063 L147.594,2.64063 L147.594,11 L146.609,11 L146.609,10.0938 C146.401,10.4583 146.138,10.7266 145.82,10.8984 C145.503,11.0703 145.12,11.1563 144.672,11.1563 C143.953,11.1563 143.365,10.8672 142.906,10.2891 C142.448,9.71094 142.219,8.94792 142.219,8 C142.219,7.05208 142.448,6.28906 142.906,5.71094 C143.365,5.13281 143.953,4.84375 144.672,4.84375 C145.12,4.84375 145.503,4.92969 145.82,5.10156 C146.138,5.27344 146.401,5.53646 146.609,5.89063 M143.234,8 C143.234,8.72917 143.385,9.29948 143.688,9.71094 C143.99,10.1224 144.401,10.3281 144.922,10.3281 C145.443,10.3281 145.854,10.1224 146.156,9.71094 C146.458,9.29948 146.609,8.72917 146.609,8 C146.609,7.27083 146.458,6.70052 146.156,6.28906 C145.854,5.8776 145.443,5.67188 144.922,5.67188 C144.401,5.67188 143.99,5.8776 143.688,6.28906 C143.385,6.70052 143.234,7.27083 143.234,8 M154.766,7.75 L154.766,8.23438 L150.219,8.23438 C150.26,8.91146 150.464,9.42708 150.828,9.78125 C151.193,10.1354 151.703,10.3125 152.359,10.3125 C152.745,10.3125 153.115,10.2656 153.469,10.1719 C153.823,10.0781 154.177,9.94271 154.531,9.76563 L154.531,10.6875 C154.177,10.8438 153.813,10.9609 153.438,11.0391 C153.063,11.1172 152.688,11.1563 152.313,11.1563 C151.344,11.1563 150.581,10.8776 150.023,10.3203 C149.466,9.76302 149.188,9.00521 149.188,8.04688 C149.188,7.06771 149.453,6.28906 149.984,5.71094 C150.516,5.13281 151.234,4.84375 152.141,4.84375 C152.943,4.84375 153.581,5.10417 154.055,5.625 C154.529,6.14583 154.766,6.85417 154.766,7.75 M153.766,7.45313 C153.766,6.91146 153.617,6.47917 153.32,6.15625 C153.023,5.83333 152.63,5.67188 152.141,5.67188 C151.589,5.67188 151.148,5.82813 150.82,6.14063 C150.492,6.45313 150.302,6.89063 150.25,7.45313 L153.766,7.45313 M160.953,12.8281 L160.953,13.5938 L155.234,13.5938 L155.234,12.8281 L160.953,12.8281 M162.953,10.0938 L166.734,10.0938 L166.734,11 L161.656,11 L161.656,10.0938 C162.063,9.66667 162.622,9.09375 163.336,8.375 C164.049,7.65625 164.495,7.19271 164.672,6.98438 C165.016,6.58854 165.258,6.25521 165.398,5.98438 C165.539,5.71354 165.609,5.44792 165.609,5.1875 C165.609,4.76042 165.461,4.41406 165.164,4.14844 C164.867,3.88281 164.474,3.75 163.984,3.75 C163.651,3.75 163.294,3.8099 162.914,3.92969 C162.534,4.04948 162.13,4.22917 161.703,4.46875 L161.703,3.375 C162.141,3.19792 162.549,3.0625 162.93,2.96875 C163.31,2.875 163.656,2.82813 163.969,2.82813 C164.802,2.82813 165.466,3.03646 165.961,3.45313 C166.456,3.86979 166.703,4.42708 166.703,5.125 C166.703,5.45833 166.641,5.77083 166.516,6.0625 C166.391,6.35417 166.167,6.70313 165.844,7.10938 C165.75,7.21354 165.464,7.51302 164.984,8.00781 C164.505,8.5026 163.828,9.19792 162.953,10.0938 M171.984,3.92188 L169.25,8.20313 L171.984,8.20313 L171.984,3.92188 M171.703,2.98438 L173.063,2.98438 L173.063,8.20313 L174.203,8.20313 L174.203,9.10938 L173.063,9.10938 L173.063,11 L171.984,11 L171.984,9.10938 L168.359,9.10938 L168.359,8.0625 L171.703,2.98438 M176.016,10.8281 L176.016,9.84375 C176.286,9.96875 176.563,10.0677 176.844,10.1406 C177.125,10.2135 177.401,10.25 177.672,10.25 C178.391,10.25 178.938,10.0078 179.313,9.52344 C179.688,9.03906 179.901,8.30729 179.953,7.32813 C179.745,7.63021 179.482,7.86458 179.164,8.03125 C178.846,8.19792 178.495,8.28125 178.109,8.28125 C177.307,8.28125 176.672,8.03906 176.203,7.55469 C175.734,7.07031 175.5,6.40625 175.5,5.5625 C175.5,4.73958 175.745,4.07813 176.234,3.57813 C176.724,3.07813 177.375,2.82813 178.188,2.82813 C179.115,2.82813 179.82,3.1849 180.305,3.89844 C180.789,4.61198 181.031,5.64583 181.031,7 C181.031,8.26042 180.732,9.26823 180.133,10.0234 C179.534,10.7786 178.729,11.1563 177.719,11.1563 C177.448,11.1563 177.172,11.1302 176.891,11.0781 C176.609,11.026 176.318,10.9427 176.016,10.8281 M178.188,7.4375 C178.667,7.4375 179.049,7.27083 179.336,6.9375 C179.622,6.60417 179.766,6.14583 179.766,5.5625 C179.766,4.98958 179.622,4.53385 179.336,4.19531 C179.049,3.85677 178.667,3.6875 178.188,3.6875 C177.698,3.6875 177.31,3.85677 177.023,4.19531 C176.737,4.53385 176.594,4.98958 176.594,5.5625 C176.594,6.14583 176.737,6.60417 177.023,6.9375 C177.31,7.27083 177.698,7.4375 178.188,7.4375 M185.297,3.6875 C184.734,3.6875 184.313,3.96354 184.031,4.51563 C183.75,5.06771 183.609,5.89583 183.609,7 C183.609,8.09375 183.75,8.91667 184.031,9.46875 C184.313,10.0208 184.734,10.2969 185.297,10.2969 C185.859,10.2969 186.281,10.0208 186.563,9.46875 C186.844,8.91667 186.984,8.09375 186.984,7 C186.984,5.89583 186.844,5.06771 186.563,4.51563 C186.281,3.96354 185.859,3.6875 185.297,3.6875 M185.297,2.82813 C186.193,2.82813 186.878,3.1849 187.352,3.89844 C187.826,4.61198 188.063,5.64583 188.063,7 C188.063,8.34375 187.826,9.3724 187.352,10.0859 C186.878,10.7995 186.193,11.1563 185.297,11.1563 C184.401,11.1563 183.714,10.7995 183.234,10.0859 C182.755,9.3724 182.516,8.34375 182.516,7 C182.516,5.64583 182.755,4.61198 183.234,3.89844 C183.714,3.1849 184.401,2.82813 185.297,2.82813 M189.688,2.98438 L194.844,2.98438 L194.844,3.4375 L191.922,11 L190.797,11 L193.531,3.89063 L189.688,3.89063 L189.688,2.98438 M201.375,12.8281 L201.375,13.5938 L195.656,13.5938 L195.656,12.8281 L201.375,12.8281 M202.625,10.0938 L204.406,10.0938 L204.406,3.96875 L202.469,4.35938 L202.469,3.375 L204.391,2.98438 L205.484,2.98438 L205.484,10.0938 L207.25,10.0938 L207.25,11 L202.625,11 L202.625,10.0938 M211.875,6.5625 C211.396,6.5625 211.013,6.72917 210.727,7.0625 C210.44,7.39583 210.297,7.84896 210.297,8.42188 C210.297,9.00521 210.44,9.46354 210.727,9.79688 C211.013,10.1302 211.396,10.2969 211.875,10.2969 C212.365,10.2969 212.753,10.1302 213.039,9.79688 C213.326,9.46354 213.469,9.00521 213.469,8.42188 C213.469,7.84896 213.326,7.39583 213.039,7.0625 C212.753,6.72917 212.365,6.5625 211.875,6.5625 M214.031,3.15625 L214.031,4.14063 C213.76,4.01563 213.487,3.91927 213.211,3.85156 C212.935,3.78385 212.661,3.75 212.391,3.75 C211.672,3.75 211.122,3.99219 210.742,4.47656 C210.362,4.96094 210.146,5.69271 210.094,6.67188 C210.313,6.35938 210.581,6.11979 210.898,5.95313 C211.216,5.78646 211.568,5.70313 211.953,5.70313 C212.755,5.70313 213.391,5.94792 213.859,6.4375 C214.328,6.92708 214.563,7.58854 214.563,8.42188 C214.563,9.24479 214.318,9.90625 213.828,10.4063 C213.339,10.9063 212.688,11.1563 211.875,11.1563 C210.948,11.1563 210.24,10.7995 209.75,10.0859 C209.26,9.3724 209.016,8.34375 209.016,7 C209.016,5.72917 209.318,4.71615 209.922,3.96094 C210.526,3.20573 211.333,2.82813 212.344,2.82813 C212.615,2.82813 212.888,2.85677 213.164,2.91406 C213.44,2.97135 213.729,3.05208 214.031,3.15625 M218.734,7.1875 C218.214,7.1875 217.807,7.32552 217.516,7.60156 C217.224,7.8776 217.078,8.26042 217.078,8.75 C217.078,9.22917 217.224,9.60677 217.516,9.88281 C217.807,10.1589 218.214,10.2969 218.734,10.2969 C219.245,10.2969 219.648,10.1589 219.945,9.88281 C220.242,9.60677 220.391,9.22917 220.391,8.75 C220.391,8.26042 220.245,7.8776 219.953,7.60156 C219.661,7.32552 219.255,7.1875 218.734,7.1875 M217.641,6.73438 C217.182,6.61979 216.823,6.40365 216.563,6.08594 C216.302,5.76823 216.172,5.38021 216.172,4.92188 C216.172,4.27604 216.398,3.76563 216.852,3.39063 C217.305,3.01563 217.932,2.82813 218.734,2.82813 C219.526,2.82813 220.151,3.01563 220.609,3.39063 C221.068,3.76563 221.297,4.27604 221.297,4.92188 C221.297,5.38021 221.167,5.76823 220.906,6.08594 C220.646,6.40365 220.286,6.61979 219.828,6.73438 C220.349,6.84896 220.755,7.08333 221.047,7.4375 C221.339,7.79167 221.484,8.22917 221.484,8.75 C221.484,9.52083 221.247,10.1146 220.773,10.5313 C220.299,10.9479 219.62,11.1563 218.734,11.1563 C217.849,11.1563 217.169,10.9479 216.695,10.5313 C216.221,10.1146 215.984,9.52083 215.984,8.75 C215.984,8.22917 216.13,7.79167 216.422,7.4375 C216.714,7.08333 217.12,6.84896 217.641,6.73438 M217.25,5.01563 C217.25,5.43229 217.38,5.75781 217.641,5.99219 C217.901,6.22656 218.266,6.34375 218.734,6.34375 C219.193,6.34375 219.555,6.22656 219.82,5.99219 C220.086,5.75781 220.219,5.43229 220.219,5.01563 C220.219,4.59896 220.086,4.27344 219.82,4.03906 C219.555,3.80469 219.193,3.6875 218.734,3.6875 C218.266,3.6875 217.901,3.80469 217.641,4.03906 C217.38,4.27344 217.25,4.59896 217.25,5.01563 M223.406,2.98438 L227.672,2.98438 L227.672,3.89063 L224.406,3.89063 L224.406,5.85938 C224.563,5.80729 224.719,5.76823 224.875,5.74219 C225.031,5.71615 225.188,5.70313 225.344,5.70313 C226.24,5.70313 226.948,5.94792 227.469,6.4375 C227.99,6.92708 228.25,7.58854 228.25,8.42188 C228.25,9.28646 227.982,9.95833 227.445,10.4375 C226.909,10.9167 226.151,11.1563 225.172,11.1563 C224.839,11.1563 224.497,11.1276 224.148,11.0703 C223.799,11.013 223.438,10.9271 223.063,10.8125 L223.063,9.71875 C223.385,9.89583 223.719,10.0286 224.063,10.1172 C224.406,10.2057 224.771,10.25 225.156,10.25 C225.781,10.25 226.273,10.0859 226.633,9.75781 C226.992,9.42969 227.172,8.98438 227.172,8.42188 C227.172,7.86979 226.992,7.42969 226.633,7.10156 C226.273,6.77344 225.781,6.60938 225.156,6.60938 C224.865,6.60938 224.576,6.64323 224.289,6.71094 C224.003,6.77865 223.708,6.88021 223.406,7.01563 L223.406,2.98438 M233.672,6.67188 C234.193,6.78646 234.599,7.01823 234.891,7.36719 C235.182,7.71615 235.328,8.15104 235.328,8.67188 C235.328,9.46354 235.055,10.0755 234.508,10.5078 C233.961,10.9401 233.188,11.1563 232.188,11.1563 C231.844,11.1563 231.495,11.1224 231.141,11.0547 C230.786,10.987 230.422,10.8906 230.047,10.7656 L230.047,9.70313 C230.349,9.88021 230.677,10.0156 231.031,10.1094 C231.385,10.2031 231.76,10.25 232.156,10.25 C232.833,10.25 233.349,10.1146 233.703,9.84375 C234.057,9.57292 234.234,9.18229 234.234,8.67188 C234.234,8.19271 234.07,7.82031 233.742,7.55469 C233.414,7.28906 232.953,7.15625 232.359,7.15625 L231.422,7.15625 L231.422,6.26563 L232.406,6.26563 C232.938,6.26563 233.344,6.15885 233.625,5.94531 C233.906,5.73177 234.047,5.42708 234.047,5.03125 C234.047,4.61458 233.901,4.29688 233.609,4.07813 C233.318,3.85938 232.901,3.75 232.359,3.75 C232.068,3.75 231.75,3.78125 231.406,3.84375 C231.063,3.90625 230.688,4.00521 230.281,4.14063 L230.281,3.17188 C230.698,3.05729 231.086,2.97135 231.445,2.91406 C231.805,2.85677 232.141,2.82813 232.453,2.82813 C233.276,2.82813 233.93,3.01563 234.414,3.39063 C234.898,3.76563 235.141,4.27604 235.141,4.92188 C235.141,5.35938 235.013,5.73177 234.758,6.03906 C234.503,6.34635 234.141,6.55729 233.672,6.67188 M237.375,2.98438 L241.641,2.98438 L241.641,3.89063 L238.375,3.89063 L238.375,5.85938 C238.531,5.80729 238.688,5.76823 238.844,5.74219 C239,5.71615 239.156,5.70313 239.313,5.70313 C240.208,5.70313 240.917,5.94792 241.438,6.4375 C241.958,6.92708 242.219,7.58854 242.219,8.42188 C242.219,9.28646 241.951,9.95833 241.414,10.4375 C240.878,10.9167 240.12,11.1563 239.141,11.1563 C238.807,11.1563 238.466,11.1276 238.117,11.0703 C237.768,11.013 237.406,10.9271 237.031,10.8125 L237.031,9.71875 C237.354,9.89583 237.688,10.0286 238.031,10.1172 C238.375,10.2057 238.74,10.25 239.125,10.25 C239.75,10.25 240.242,10.0859 240.602,9.75781 C240.961,9.42969 241.141,8.98438 241.141,8.42188 C241.141,7.86979 240.961,7.42969 240.602,7.10156 C240.242,6.77344 239.75,6.60938 239.125,6.60938 C238.833,6.60938 238.544,6.64323 238.258,6.71094 C237.971,6.77865 237.677,6.88021 237.375,7.01563 L237.375,2.98438 M247.328,3.92188 L244.594,8.20313 L247.328,8.20313 L247.328,3.92188 M247.047,2.98438 L248.406,2.98438 L248.406,8.20313 L249.547,8.20313 L249.547,9.10938 L248.406,9.10938 L248.406,11 L247.328,11 L247.328,9.10938 L243.703,9.10938 L243.703,8.0625 L247.047,2.98438 M251.516,10.0938 L253.297,10.0938 L253.297,3.96875 L251.359,4.35938 L251.359,3.375 L253.281,2.98438 L254.375,2.98438 L254.375,10.0938 L256.141,10.0938 L256.141,11 L251.516,11 L251.516,10.0938 M259.25,10.0938 L263.031,10.0938 L263.031,11 L257.953,11 L257.953,10.0938 C258.359,9.66667 258.919,9.09375 259.633,8.375 C260.346,7.65625 260.792,7.19271 260.969,6.98438 C261.313,6.58854 261.555,6.25521 261.695,5.98438 C261.836,5.71354 261.906,5.44792 261.906,5.1875 C261.906,4.76042 261.758,4.41406 261.461,4.14844 C261.164,3.88281 260.771,3.75 260.281,3.75 C259.948,3.75 259.591,3.8099 259.211,3.92969 C258.831,4.04948 258.427,4.22917 258,4.46875 L258,3.375 C258.438,3.19792 258.846,3.0625 259.227,2.96875 C259.607,2.875 259.953,2.82813 260.266,2.82813 C261.099,2.82813 261.763,3.03646 262.258,3.45313 C262.753,3.86979 263,4.42708 263,5.125 C263,5.45833 262.938,5.77083 262.813,6.0625 C262.688,6.35417 262.464,6.70313 262.141,7.10938 C262.047,7.21354 261.76,7.51302 261.281,8.00781 C260.802,8.5026 260.125,9.19792 259.25,10.0938 M265.484,10.0938 L267.266,10.0938 L267.266,3.96875 L265.328,4.35938 L265.328,3.375 L267.25,2.98438 L268.344,2.98438 L268.344,10.0938 L270.109,10.0938 L270.109,11 L265.484,11 L265.484,10.0938 M272.016,2.98438 L277.172,2.98438 L277.172,3.4375 L274.25,11 L273.125,11 L275.859,3.89063 L272.016,3.89063 L272.016,2.98438 M282.25,3.92188 L279.516,8.20313 L282.25,8.20313 L282.25,3.92188 M281.969,2.98438 L283.328,2.98438 L283.328,8.20313 L284.469,8.20313 L284.469,9.10938 L283.328,9.10938 L283.328,11 L282.25,11 L282.25,9.10938 L278.625,9.10938 L278.625,8.0625 L281.969,2.98438 M286.438,10.0938 L288.219,10.0938 L288.219,3.96875 L286.281,4.35938 L286.281,3.375 L288.203,2.98438 L289.297,2.98438 L289.297,10.0938 L291.063,10.0938 L291.063,11 L286.438,11 L286.438,10.0938"/>
</g>

<g fill="none" stroke="#000000" stroke-opacity="1" stroke-width="1" stroke-linecap="square" stroke-linejoin="bevel" transform="matrix(2,0,0,2,1547.7,22)"
font-family="sans" font-size="11" font-weight="100" font-style="normal" 
>
</g>

<g fill="none" stroke="#000000" stroke-opacity="1" stroke-width="1" stroke-linecap="square" stroke-linejoin="bevel" transform="matrix(2,0,0,2,1547.7,22)"
font-family="Ubuntu" font-size="11" font-weight="400" font-style="normal" 
>
</g>

<g fill="none" stroke="#000000" stroke-opacity="1" stroke-width="1" stroke-linecap="square" stroke-linejoin="bevel" transform="matrix(2,0,0,2,-0.0024,72)"
font-family="Ubuntu" font-size="11" font-weight="400" font-style="normal" 
>
</g>

<g fill="none" stroke="#000000" stroke-opacity="1" stroke-width="1" stroke-linecap="square" stroke-linejoin="bevel" transform="matrix(2,0,0,2,-0.0024,72)"
font-family="Ubuntu" font-size="11" font-weight="400" font-style="normal" 
>
</g>

<g fill="none" stroke="#000000" stroke-opacity="1" stroke-width="1" stroke-linecap="square" stroke-linejoin="bevel" transform="matrix(2,0,0,2,-0.0024,72)"
font-family="Ubuntu" font-size="11" font-weight="400" font-style="normal" 
>
</g>

<g fill="none" stroke="#000000" stroke-opacity="1" stroke-width="1" stroke-linecap="square" stroke-linejoin="round" transform="matrix(2,0,0,2,-0.0024,72)"
font-family="Ubuntu" font-size="11" font-weight="400" font-style="normal" 
>
<ellipse cx="250.23" cy="-18" rx="249.729" ry="17.5"/>
</g>

<g fill="none" stroke="#000000" stroke-opacity="1" stroke-width="1" stroke-linecap="square" stroke-linejoin="bevel" transform="matrix(2,0,0,2,-0.0024,72)"
font-family="Ubuntu" font-size="11" font-weight="400" font-style="normal" 
>
</g>

<g fill="none" stroke="#000000" stroke-opacity="1" stroke-width="1" stroke-linecap="square" stroke-linejoin="bevel" transform="matrix(2,0,0,2,214.661,22)"
font-family="Ubuntu" font-size="11" font-weight="400" font-style="normal" 
>
</g>

<g fill="none" stroke="#000000" stroke-opacity="1" stroke-width="1" stroke-linecap="square" stroke-linejoin="bevel" transform="matrix(2,0,0,2,214.661,22)"
font-family="sans" font-size="11" font-weight="100" font-style="normal" 
>
</g>

<g fill="#000000" fill-opacity="1" stroke="#000000" stroke-opacity="1" stroke-width="1" stroke-linecap="square" stroke-linejoin="round" transform="matrix(2,0,0,2,214.661,22)"
font-family="sans" font-size="11" font-weight="100" font-style="normal" 
>
<path vector-effect="none" fill-rule="nonzero" d="M2.79688,2.98438 L3.70313,2.98438 L0.90625,12.0156 L0,12.0156 L2.79688,2.98438 M4.73438,4.98438 L5.73438,4.98438 L5.73438,11 L4.73438,11 L4.73438,4.98438 M4.73438,2.64063 L5.73438,2.64063 L5.73438,3.89063 L4.73438,3.89063 L4.73438,2.64063 M10.125,5.67188 C9.59375,5.67188 9.17448,5.88021 8.86719,6.29688 C8.5599,6.71354 8.40625,7.28125 8.40625,8 C8.40625,8.71875 8.55729,9.28385 8.85938,9.69531 C9.16146,10.1068 9.58333,10.3125 10.125,10.3125 C10.6458,10.3125 11.0599,10.1068 11.3672,9.69531 C11.6745,9.28385 11.8281,8.71875 11.8281,8 C11.8281,7.28125 11.6745,6.71354 11.3672,6.29688 C11.0599,5.88021 10.6458,5.67188 10.125,5.67188 M10.125,4.84375 C10.9792,4.84375 11.651,5.1224 12.1406,5.67969 C12.6302,6.23698 12.875,7.01042 12.875,8 C12.875,8.97917 12.6302,9.75 12.1406,10.3125 C11.651,10.875 10.9792,11.1563 10.125,11.1563 C9.26042,11.1563 8.58333,10.875 8.09375,10.3125 C7.60417,9.75 7.35938,8.97917 7.35938,8 C7.35938,7.01042 7.60417,6.23698 8.09375,5.67969 C8.58333,5.1224 9.26042,4.84375 10.125,4.84375 M15.4844,3.28125 L15.4844,4.98438 L17.5156,4.98438 L17.5156,5.75 L15.4844,5.75 L15.4844,9.01563 C15.4844,9.50521 15.5521,9.82031 15.6875,9.96094 C15.8229,10.1016 16.0938,10.1719 16.5,10.1719 L17.5156,10.1719 L17.5156,11 L16.5,11 C15.7396,11 15.2135,10.8568 14.9219,10.5703 C14.6302,10.2839 14.4844,9.76563 14.4844,9.01563 L14.4844,5.75 L13.7656,5.75 L13.7656,4.98438 L14.4844,4.98438 L14.4844,3.28125 L15.4844,3.28125 M23.3906,12.8281 L23.3906,13.5938 L17.6719,13.5938 L17.6719,12.8281 L23.3906,12.8281 M28.1563,5.15625 L28.1563,6.09375 C27.875,5.94792 27.5833,5.84115 27.2813,5.77344 C26.9792,5.70573 26.6667,5.67188 26.3438,5.67188 C25.8542,5.67188 25.487,5.7474 25.2422,5.89844 C24.9974,6.04948 24.875,6.27083 24.875,6.5625 C24.875,6.79167 24.9635,6.97135 25.1406,7.10156 C25.3177,7.23177 25.6719,7.35938 26.2031,7.48438 L26.5313,7.5625 C27.2396,7.70833 27.7396,7.91927 28.0313,8.19531 C28.3229,8.47135 28.4688,8.85417 28.4688,9.34375 C28.4688,9.89583 28.25,10.3359 27.8125,10.6641 C27.375,10.9922 26.7656,11.1563 25.9844,11.1563 C25.6615,11.1563 25.3255,11.125 24.9766,11.0625 C24.6276,11 24.2604,10.9063 23.875,10.7813 L23.875,9.76563 C24.2396,9.95313 24.599,10.0938 24.9531,10.1875 C25.3073,10.2813 25.6615,10.3281 26.0156,10.3281 C26.474,10.3281 26.8281,10.2474 27.0781,10.0859 C27.3281,9.92448 27.4531,9.70313 27.4531,9.42188 C27.4531,9.15104 27.3646,8.94271 27.1875,8.79688 C27.0104,8.65104 26.6146,8.51563 26,8.39063 L25.6563,8.29688 C25.0417,8.17188 24.599,7.97656 24.3281,7.71094 C24.0573,7.44531 23.9219,7.07813 23.9219,6.60938 C23.9219,6.04688 24.1224,5.61198 24.5234,5.30469 C24.9245,4.9974 25.4948,4.84375 26.2344,4.84375 C26.599,4.84375 26.9427,4.86979 27.2656,4.92188 C27.5885,4.97396 27.8854,5.05208 28.1563,5.15625 M35.1875,7.75 L35.1875,8.23438 L30.6406,8.23438 C30.6823,8.91146 30.8854,9.42708 31.25,9.78125 C31.6146,10.1354 32.125,10.3125 32.7813,10.3125 C33.1667,10.3125 33.5365,10.2656 33.8906,10.1719 C34.2448,10.0781 34.599,9.94271 34.9531,9.76563 L34.9531,10.6875 C34.599,10.8438 34.2344,10.9609 33.8594,11.0391 C33.4844,11.1172 33.1094,11.1563 32.7344,11.1563 C31.7656,11.1563 31.0026,10.8776 30.4453,10.3203 C29.888,9.76302 29.6094,9.00521 29.6094,8.04688 C29.6094,7.06771 29.875,6.28906 30.4063,5.71094 C30.9375,5.13281 31.6563,4.84375 32.5625,4.84375 C33.3646,4.84375 34.0026,5.10417 34.4766,5.625 C34.9505,6.14583 35.1875,6.85417 35.1875,7.75 M34.1875,7.45313 C34.1875,6.91146 34.0391,6.47917 33.7422,6.15625 C33.4453,5.83333 33.0521,5.67188 32.5625,5.67188 C32.0104,5.67188 31.5703,5.82813 31.2422,6.14063 C30.9141,6.45313 30.724,6.89063 30.6719,7.45313 L34.1875,7.45313 M41.7969,7.375 L41.7969,11 L40.8125,11 L40.8125,7.40625 C40.8125,6.83333 40.7031,6.40625 40.4844,6.125 C40.2656,5.84375 39.9323,5.70313 39.4844,5.70313 C38.9531,5.70313 38.5339,5.8724 38.2266,6.21094 C37.9193,6.54948 37.7656,7.01042 37.7656,7.59375 L37.7656,11 L36.7656,11 L36.7656,4.98438 L37.7656,4.98438 L37.7656,5.92188 C37.9948,5.55729 38.2708,5.28646 38.5938,5.10938 C38.9167,4.93229 39.2865,4.84375 39.7031,4.84375 C40.3906,4.84375 40.9115,5.05729 41.2656,5.48438 C41.6198,5.91146 41.7969,6.54167 41.7969,7.375 M47.6094,5.15625 L47.6094,6.09375 C47.3281,5.94792 47.0365,5.84115 46.7344,5.77344 C46.4323,5.70573 46.1198,5.67188 45.7969,5.67188 C45.3073,5.67188 44.9401,5.7474 44.6953,5.89844 C44.4505,6.04948 44.3281,6.27083 44.3281,6.5625 C44.3281,6.79167 44.4167,6.97135 44.5938,7.10156 C44.7708,7.23177 45.125,7.35938 45.6563,7.48438 L45.9844,7.5625 C46.6927,7.70833 47.1927,7.91927 47.4844,8.19531 C47.776,8.47135 47.9219,8.85417 47.9219,9.34375 C47.9219,9.89583 47.7031,10.3359 47.2656,10.6641 C46.8281,10.9922 46.2188,11.1563 45.4375,11.1563 C45.1146,11.1563 44.7786,11.125 44.4297,11.0625 C44.0807,11 43.7135,10.9063 43.3281,10.7813 L43.3281,9.76563 C43.6927,9.95313 44.0521,10.0938 44.4063,10.1875 C44.7604,10.2813 45.1146,10.3281 45.4688,10.3281 C45.9271,10.3281 46.2813,10.2474 46.5313,10.0859 C46.7813,9.92448 46.9063,9.70313 46.9063,9.42188 C46.9063,9.15104 46.8177,8.94271 46.6406,8.79688 C46.4635,8.65104 46.0677,8.51563 45.4531,8.39063 L45.1094,8.29688 C44.4948,8.17188 44.0521,7.97656 43.7813,7.71094 C43.5104,7.44531 43.375,7.07813 43.375,6.60938 C43.375,6.04688 43.5755,5.61198 43.9766,5.30469 C44.3776,4.9974 44.9479,4.84375 45.6875,4.84375 C46.0521,4.84375 46.3958,4.86979 46.7188,4.92188 C47.0417,4.97396 47.3385,5.05208 47.6094,5.15625 M51.8281,5.67188 C51.2969,5.67188 50.8776,5.88021 50.5703,6.29688 C50.263,6.71354 50.1094,7.28125 50.1094,8 C50.1094,8.71875 50.2604,9.28385 50.5625,9.69531 C50.8646,10.1068 51.2865,10.3125 51.8281,10.3125 C52.349,10.3125 52.763,10.1068 53.0703,9.69531 C53.3776,9.28385 53.5313,8.71875 53.5313,8 C53.5313,7.28125 53.3776,6.71354 53.0703,6.29688 C52.763,5.88021 52.349,5.67188 51.8281,5.67188 M51.8281,4.84375 C52.6823,4.84375 53.3542,5.1224 53.8438,5.67969 C54.3333,6.23698 54.5781,7.01042 54.5781,8 C54.5781,8.97917 54.3333,9.75 53.8438,10.3125 C53.3542,10.875 52.6823,11.1563 51.8281,11.1563 C50.9635,11.1563 50.2865,10.875 49.7969,10.3125 C49.3073,9.75 49.0625,8.97917 49.0625,8 C49.0625,7.01042 49.3073,6.23698 49.7969,5.67969 C50.2865,5.1224 50.9635,4.84375 51.8281,4.84375 M59.6875,5.90625 C59.5833,5.84375 59.4661,5.79688 59.3359,5.76563 C59.2057,5.73438 59.0625,5.71875 58.9063,5.71875 C58.3438,5.71875 57.9141,5.90104 57.6172,6.26563 C57.3203,6.63021 57.1719,7.15104 57.1719,7.82813 L57.1719,11 L56.1719,11 L56.1719,4.98438 L57.1719,4.98438 L57.1719,5.92188 C57.3698,5.55729 57.6354,5.28646 57.9688,5.10938 C58.3021,4.93229 58.7083,4.84375 59.1875,4.84375 C59.2604,4.84375 59.3359,4.84635 59.4141,4.85156 C59.4922,4.85677 59.5833,4.86979 59.6875,4.89063 L59.6875,5.90625 M65.2969,12.8281 L65.2969,13.5938 L59.5781,13.5938 L59.5781,12.8281 L65.2969,12.8281 M67.1875,10.0938 L67.1875,13.2813 L66.1875,13.2813 L66.1875,4.98438 L67.1875,4.98438 L67.1875,5.89063 C67.3854,5.53646 67.6432,5.27344 67.9609,5.10156 C68.2786,4.92969 68.6615,4.84375 69.1094,4.84375 C69.8385,4.84375 70.4297,5.13281 70.8828,5.71094 C71.3359,6.28906 71.5625,7.05208 71.5625,8 C71.5625,8.94792 71.3359,9.71094 70.8828,10.2891 C70.4297,10.8672 69.8385,11.1563 69.1094,11.1563 C68.6615,11.1563 68.2786,11.0703 67.9609,10.8984 C67.6432,10.7266 67.3854,10.4583 67.1875,10.0938 M70.5469,8 C70.5469,7.27083 70.3958,6.70052 70.0938,6.28906 C69.7917,5.8776 69.3802,5.67188 68.8594,5.67188 C68.3385,5.67188 67.9297,5.8776 67.6328,6.28906 C67.3359,6.70052 67.1875,7.27083 67.1875,8 C67.1875,8.72917 67.3359,9.29948 67.6328,9.71094 C67.9297,10.1224 68.3385,10.3281 68.8594,10.3281 C69.3802,10.3281 69.7917,10.1224 70.0938,9.71094 C70.3958,9.29948 70.5469,8.72917 70.5469,8 M73.0938,8.625 L73.0938,4.98438 L74.0781,4.98438 L74.0781,8.59375 C74.0781,9.15625 74.1901,9.58073 74.4141,9.86719 C74.638,10.1536 74.9688,10.2969 75.4063,10.2969 C75.9479,10.2969 76.3724,10.1276 76.6797,9.78906 C76.987,9.45052 77.1406,8.98438 77.1406,8.39063 L77.1406,4.98438 L78.125,4.98438 L78.125,11 L77.1406,11 L77.1406,10.0781 C76.901,10.4427 76.6224,10.7135 76.3047,10.8906 C75.987,11.0677 75.6198,11.1563 75.2031,11.1563 C74.5156,11.1563 73.9922,10.9401 73.6328,10.5078 C73.2734,10.0755 73.0938,9.44792 73.0938,8.625 M84.4844,8 C84.4844,7.27083 84.3333,6.70052 84.0313,6.28906 C83.7292,5.8776 83.3177,5.67188 82.7969,5.67188 C82.276,5.67188 81.8672,5.8776 81.5703,6.28906 C81.2734,6.70052 81.125,7.27083 81.125,8 C81.125,8.72917 81.2734,9.29948 81.5703,9.71094 C81.8672,10.1224 82.276,10.3281 82.7969,10.3281 C83.3177,10.3281 83.7292,10.1224 84.0313,9.71094 C84.3333,9.29948 84.4844,8.72917 84.4844,8 M81.125,5.89063 C81.3229,5.53646 81.5807,5.27344 81.8984,5.10156 C82.2161,4.92969 82.599,4.84375 83.0469,4.84375 C83.776,4.84375 84.3672,5.13281 84.8203,5.71094 C85.2734,6.28906 85.5,7.05208 85.5,8 C85.5,8.94792 85.2734,9.71094 84.8203,10.2891 C84.3672,10.8672 83.776,11.1563 83.0469,11.1563 C82.599,11.1563 82.2161,11.0703 81.8984,10.8984 C81.5807,10.7266 81.3229,10.4583 81.125,10.0938 L81.125,11 L80.125,11 L80.125,2.64063 L81.125,2.64063 L81.125,5.89063 M87.125,2.64063 L88.125,2.64063 L88.125,11 L87.125,11 L87.125,2.64063 M90.1719,4.98438 L91.1719,4.98438 L91.1719,11 L90.1719,11 L90.1719,4.98438 M90.1719,2.64063 L91.1719,2.64063 L91.1719,3.89063 L90.1719,3.89063 L90.1719,2.64063 M97.0625,5.15625 L97.0625,6.09375 C96.7813,5.94792 96.4896,5.84115 96.1875,5.77344 C95.8854,5.70573 95.5729,5.67188 95.25,5.67188 C94.7604,5.67188 94.3932,5.7474 94.1484,5.89844 C93.9036,6.04948 93.7813,6.27083 93.7813,6.5625 C93.7813,6.79167 93.8698,6.97135 94.0469,7.10156 C94.224,7.23177 94.5781,7.35938 95.1094,7.48438 L95.4375,7.5625 C96.1458,7.70833 96.6458,7.91927 96.9375,8.19531 C97.2292,8.47135 97.375,8.85417 97.375,9.34375 C97.375,9.89583 97.1563,10.3359 96.7188,10.6641 C96.2813,10.9922 95.6719,11.1563 94.8906,11.1563 C94.5677,11.1563 94.2318,11.125 93.8828,11.0625 C93.5339,11 93.1667,10.9063 92.7813,10.7813 L92.7813,9.76563 C93.1458,9.95313 93.5052,10.0938 93.8594,10.1875 C94.2135,10.2813 94.5677,10.3281 94.9219,10.3281 C95.3802,10.3281 95.7344,10.2474 95.9844,10.0859 C96.2344,9.92448 96.3594,9.70313 96.3594,9.42188 C96.3594,9.15104 96.2708,8.94271 96.0938,8.79688 C95.9167,8.65104 95.5208,8.51563 94.9063,8.39063 L94.5625,8.29688 C93.9479,8.17188 93.5052,7.97656 93.2344,7.71094 C92.9635,7.44531 92.8281,7.07813 92.8281,6.60938 C92.8281,6.04688 93.0286,5.61198 93.4297,5.30469 C93.8307,4.9974 94.401,4.84375 95.1406,4.84375 C95.5052,4.84375 95.849,4.86979 96.1719,4.92188 C96.4948,4.97396 96.7917,5.05208 97.0625,5.15625 M103.938,7.375 L103.938,11 L102.953,11 L102.953,7.40625 C102.953,6.83333 102.844,6.40625 102.625,6.125 C102.406,5.84375 102.073,5.70313 101.625,5.70313 C101.094,5.70313 100.674,5.8724 100.367,6.21094 C100.06,6.54948 99.9063,7.01042 99.9063,7.59375 L99.9063,11 L98.9063,11 L98.9063,2.64063 L99.9063,2.64063 L99.9063,5.92188 C100.135,5.55729 100.411,5.28646 100.734,5.10938 C101.057,4.93229 101.427,4.84375 101.844,4.84375 C102.531,4.84375 103.052,5.05729 103.406,5.48438 C103.76,5.91146 103.938,6.54167 103.938,7.375 M111.063,7.75 L111.063,8.23438 L106.516,8.23438 C106.557,8.91146 106.76,9.42708 107.125,9.78125 C107.49,10.1354 108,10.3125 108.656,10.3125 C109.042,10.3125 109.411,10.2656 109.766,10.1719 C110.12,10.0781 110.474,9.94271 110.828,9.76563 L110.828,10.6875 C110.474,10.8438 110.109,10.9609 109.734,11.0391 C109.359,11.1172 108.984,11.1563 108.609,11.1563 C107.641,11.1563 106.878,10.8776 106.32,10.3203 C105.763,9.76302 105.484,9.00521 105.484,8.04688 C105.484,7.06771 105.75,6.28906 106.281,5.71094 C106.813,5.13281 107.531,4.84375 108.438,4.84375 C109.24,4.84375 109.878,5.10417 110.352,5.625 C110.826,6.14583 111.063,6.85417 111.063,7.75 M110.063,7.45313 C110.063,6.91146 109.914,6.47917 109.617,6.15625 C109.32,5.83333 108.927,5.67188 108.438,5.67188 C107.885,5.67188 107.445,5.82813 107.117,6.14063 C106.789,6.45313 106.599,6.89063 106.547,7.45313 L110.063,7.45313 M116.156,5.90625 C116.052,5.84375 115.935,5.79688 115.805,5.76563 C115.674,5.73438 115.531,5.71875 115.375,5.71875 C114.813,5.71875 114.383,5.90104 114.086,6.26563 C113.789,6.63021 113.641,7.15104 113.641,7.82813 L113.641,11 L112.641,11 L112.641,4.98438 L113.641,4.98438 L113.641,5.92188 C113.839,5.55729 114.104,5.28646 114.438,5.10938 C114.771,4.93229 115.177,4.84375 115.656,4.84375 C115.729,4.84375 115.805,4.84635 115.883,4.85156 C115.961,4.85677 116.052,4.86979 116.156,4.89063 L116.156,5.90625 M121.766,12.8281 L121.766,13.5938 L116.047,13.5938 L116.047,12.8281 L121.766,12.8281 M127.688,7.375 L127.688,11 L126.703,11 L126.703,7.40625 C126.703,6.83333 126.594,6.40625 126.375,6.125 C126.156,5.84375 125.823,5.70313 125.375,5.70313 C124.844,5.70313 124.424,5.8724 124.117,6.21094 C123.81,6.54948 123.656,7.01042 123.656,7.59375 L123.656,11 L122.656,11 L122.656,4.98438 L123.656,4.98438 L123.656,5.92188 C123.885,5.55729 124.161,5.28646 124.484,5.10938 C124.807,4.93229 125.177,4.84375 125.594,4.84375 C126.281,4.84375 126.802,5.05729 127.156,5.48438 C127.51,5.91146 127.688,6.54167 127.688,7.375 M132,5.67188 C131.469,5.67188 131.049,5.88021 130.742,6.29688 C130.435,6.71354 130.281,7.28125 130.281,8 C130.281,8.71875 130.432,9.28385 130.734,9.69531 C131.036,10.1068 131.458,10.3125 132,10.3125 C132.521,10.3125 132.935,10.1068 133.242,9.69531 C133.549,9.28385 133.703,8.71875 133.703,8 C133.703,7.28125 133.549,6.71354 133.242,6.29688 C132.935,5.88021 132.521,5.67188 132,5.67188 M132,4.84375 C132.854,4.84375 133.526,5.1224 134.016,5.67969 C134.505,6.23698 134.75,7.01042 134.75,8 C134.75,8.97917 134.505,9.75 134.016,10.3125 C133.526,10.875 132.854,11.1563 132,11.1563 C131.135,11.1563 130.458,10.875 129.969,10.3125 C129.479,9.75 129.234,8.97917 129.234,8 C129.234,7.01042 129.479,6.23698 129.969,5.67969 C130.458,5.1224 131.135,4.84375 132,4.84375 M140.344,5.89063 L140.344,2.64063 L141.328,2.64063 L141.328,11 L140.344,11 L140.344,10.0938 C140.135,10.4583 139.872,10.7266 139.555,10.8984 C139.237,11.0703 138.854,11.1563 138.406,11.1563 C137.688,11.1563 137.099,10.8672 136.641,10.2891 C136.182,9.71094 135.953,8.94792 135.953,8 C135.953,7.05208 136.182,6.28906 136.641,5.71094 C137.099,5.13281 137.688,4.84375 138.406,4.84375 C138.854,4.84375 139.237,4.92969 139.555,5.10156 C139.872,5.27344 140.135,5.53646 140.344,5.89063 M136.969,8 C136.969,8.72917 137.12,9.29948 137.422,9.71094 C137.724,10.1224 138.135,10.3281 138.656,10.3281 C139.177,10.3281 139.589,10.1224 139.891,9.71094 C140.193,9.29948 140.344,8.72917 140.344,8 C140.344,7.27083 140.193,6.70052 139.891,6.28906 C139.589,5.8776 139.177,5.67188 138.656,5.67188 C138.135,5.67188 137.724,5.8776 137.422,6.28906 C137.12,6.70052 136.969,7.27083 136.969,8 M148.5,7.75 L148.5,8.23438 L143.953,8.23438 C143.995,8.91146 144.198,9.42708 144.563,9.78125 C144.927,10.1354 145.438,10.3125 146.094,10.3125 C146.479,10.3125 146.849,10.2656 147.203,10.1719 C147.557,10.0781 147.911,9.94271 148.266,9.76563 L148.266,10.6875 C147.911,10.8438 147.547,10.9609 147.172,11.0391 C146.797,11.1172 146.422,11.1563 146.047,11.1563 C145.078,11.1563 144.315,10.8776 143.758,10.3203 C143.201,9.76302 142.922,9.00521 142.922,8.04688 C142.922,7.06771 143.188,6.28906 143.719,5.71094 C144.25,5.13281 144.969,4.84375 145.875,4.84375 C146.677,4.84375 147.315,5.10417 147.789,5.625 C148.263,6.14583 148.5,6.85417 148.5,7.75 M147.5,7.45313 C147.5,6.91146 147.352,6.47917 147.055,6.15625 C146.758,5.83333 146.365,5.67188 145.875,5.67188 C145.323,5.67188 144.883,5.82813 144.555,6.14063 C144.227,6.45313 144.036,6.89063 143.984,7.45313 L147.5,7.45313 M154.688,12.8281 L154.688,13.5938 L148.969,13.5938 L148.969,12.8281 L154.688,12.8281 M156.688,10.0938 L160.469,10.0938 L160.469,11 L155.391,11 L155.391,10.0938 C155.797,9.66667 156.357,9.09375 157.07,8.375 C157.784,7.65625 158.229,7.19271 158.406,6.98438 C158.75,6.58854 158.992,6.25521 159.133,5.98438 C159.273,5.71354 159.344,5.44792 159.344,5.1875 C159.344,4.76042 159.195,4.41406 158.898,4.14844 C158.602,3.88281 158.208,3.75 157.719,3.75 C157.385,3.75 157.029,3.8099 156.648,3.92969 C156.268,4.04948 155.865,4.22917 155.438,4.46875 L155.438,3.375 C155.875,3.19792 156.284,3.0625 156.664,2.96875 C157.044,2.875 157.391,2.82813 157.703,2.82813 C158.536,2.82813 159.201,3.03646 159.695,3.45313 C160.19,3.86979 160.438,4.42708 160.438,5.125 C160.438,5.45833 160.375,5.77083 160.25,6.0625 C160.125,6.35417 159.901,6.70313 159.578,7.10938 C159.484,7.21354 159.198,7.51302 158.719,8.00781 C158.24,8.5026 157.563,9.19792 156.688,10.0938 M165.719,3.92188 L162.984,8.20313 L165.719,8.20313 L165.719,3.92188 M165.438,2.98438 L166.797,2.98438 L166.797,8.20313 L167.938,8.20313 L167.938,9.10938 L166.797,9.10938 L166.797,11 L165.719,11 L165.719,9.10938 L162.094,9.10938 L162.094,8.0625 L165.438,2.98438 M172.047,7.1875 C171.526,7.1875 171.12,7.32552 170.828,7.60156 C170.536,7.8776 170.391,8.26042 170.391,8.75 C170.391,9.22917 170.536,9.60677 170.828,9.88281 C171.12,10.1589 171.526,10.2969 172.047,10.2969 C172.557,10.2969 172.961,10.1589 173.258,9.88281 C173.555,9.60677 173.703,9.22917 173.703,8.75 C173.703,8.26042 173.557,7.8776 173.266,7.60156 C172.974,7.32552 172.568,7.1875 172.047,7.1875 M170.953,6.73438 C170.495,6.61979 170.135,6.40365 169.875,6.08594 C169.615,5.76823 169.484,5.38021 169.484,4.92188 C169.484,4.27604 169.711,3.76563 170.164,3.39063 C170.617,3.01563 171.245,2.82813 172.047,2.82813 C172.839,2.82813 173.464,3.01563 173.922,3.39063 C174.38,3.76563 174.609,4.27604 174.609,4.92188 C174.609,5.38021 174.479,5.76823 174.219,6.08594 C173.958,6.40365 173.599,6.61979 173.141,6.73438 C173.661,6.84896 174.068,7.08333 174.359,7.4375 C174.651,7.79167 174.797,8.22917 174.797,8.75 C174.797,9.52083 174.56,10.1146 174.086,10.5313 C173.612,10.9479 172.932,11.1563 172.047,11.1563 C171.161,11.1563 170.482,10.9479 170.008,10.5313 C169.534,10.1146 169.297,9.52083 169.297,8.75 C169.297,8.22917 169.443,7.79167 169.734,7.4375 C170.026,7.08333 170.432,6.84896 170.953,6.73438 M170.563,5.01563 C170.563,5.43229 170.693,5.75781 170.953,5.99219 C171.214,6.22656 171.578,6.34375 172.047,6.34375 C172.505,6.34375 172.867,6.22656 173.133,5.99219 C173.398,5.75781 173.531,5.43229 173.531,5.01563 C173.531,4.59896 173.398,4.27344 173.133,4.03906 C172.867,3.80469 172.505,3.6875 172.047,3.6875 C171.578,3.6875 171.214,3.80469 170.953,4.03906 C170.693,4.27344 170.563,4.59896 170.563,5.01563 M176.719,2.98438 L180.984,2.98438 L180.984,3.89063 L177.719,3.89063 L177.719,5.85938 C177.875,5.80729 178.031,5.76823 178.188,5.74219 C178.344,5.71615 178.5,5.70313 178.656,5.70313 C179.552,5.70313 180.26,5.94792 180.781,6.4375 C181.302,6.92708 181.563,7.58854 181.563,8.42188 C181.563,9.28646 181.294,9.95833 180.758,10.4375 C180.221,10.9167 179.464,11.1563 178.484,11.1563 C178.151,11.1563 177.81,11.1276 177.461,11.0703 C177.112,11.013 176.75,10.9271 176.375,10.8125 L176.375,9.71875 C176.698,9.89583 177.031,10.0286 177.375,10.1172 C177.719,10.2057 178.083,10.25 178.469,10.25 C179.094,10.25 179.586,10.0859 179.945,9.75781 C180.305,9.42969 180.484,8.98438 180.484,8.42188 C180.484,7.86979 180.305,7.42969 179.945,7.10156 C179.586,6.77344 179.094,6.60938 178.469,6.60938 C178.177,6.60938 177.888,6.64323 177.602,6.71094 C177.315,6.77865 177.021,6.88021 176.719,7.01563 L176.719,2.98438 M183.422,2.98438 L188.578,2.98438 L188.578,3.4375 L185.656,11 L184.531,11 L187.266,3.89063 L183.422,3.89063 L183.422,2.98438 M195.109,12.8281 L195.109,13.5938 L189.391,13.5938 L189.391,12.8281 L195.109,12.8281 M196.359,10.0938 L198.141,10.0938 L198.141,3.96875 L196.203,4.35938 L196.203,3.375 L198.125,2.98438 L199.219,2.98438 L199.219,10.0938 L200.984,10.0938 L200.984,11 L196.359,11 L196.359,10.0938 M205.609,6.5625 C205.13,6.5625 204.747,6.72917 204.461,7.0625 C204.174,7.39583 204.031,7.84896 204.031,8.42188 C204.031,9.00521 204.174,9.46354 204.461,9.79688 C204.747,10.1302 205.13,10.2969 205.609,10.2969 C206.099,10.2969 206.487,10.1302 206.773,9.79688 C207.06,9.46354 207.203,9.00521 207.203,8.42188 C207.203,7.84896 207.06,7.39583 206.773,7.0625 C206.487,6.72917 206.099,6.5625 205.609,6.5625 M207.766,3.15625 L207.766,4.14063 C207.495,4.01563 207.221,3.91927 206.945,3.85156 C206.669,3.78385 206.396,3.75 206.125,3.75 C205.406,3.75 204.857,3.99219 204.477,4.47656 C204.096,4.96094 203.88,5.69271 203.828,6.67188 C204.047,6.35938 204.315,6.11979 204.633,5.95313 C204.951,5.78646 205.302,5.70313 205.688,5.70313 C206.49,5.70313 207.125,5.94792 207.594,6.4375 C208.063,6.92708 208.297,7.58854 208.297,8.42188 C208.297,9.24479 208.052,9.90625 207.563,10.4063 C207.073,10.9063 206.422,11.1563 205.609,11.1563 C204.682,11.1563 203.974,10.7995 203.484,10.0859 C202.995,9.3724 202.75,8.34375 202.75,7 C202.75,5.72917 203.052,4.71615 203.656,3.96094 C204.26,3.20573 205.068,2.82813 206.078,2.82813 C206.349,2.82813 206.622,2.85677 206.898,2.91406 C207.174,2.97135 207.464,3.05208 207.766,3.15625 M212.469,7.1875 C211.948,7.1875 211.542,7.32552 211.25,7.60156 C210.958,7.8776 210.813,8.26042 210.813,8.75 C210.813,9.22917 210.958,9.60677 211.25,9.88281 C211.542,10.1589 211.948,10.2969 212.469,10.2969 C212.979,10.2969 213.383,10.1589 213.68,9.88281 C213.977,9.60677 214.125,9.22917 214.125,8.75 C214.125,8.26042 213.979,7.8776 213.688,7.60156 C213.396,7.32552 212.99,7.1875 212.469,7.1875 M211.375,6.73438 C210.917,6.61979 210.557,6.40365 210.297,6.08594 C210.036,5.76823 209.906,5.38021 209.906,4.92188 C209.906,4.27604 210.133,3.76563 210.586,3.39063 C211.039,3.01563 211.667,2.82813 212.469,2.82813 C213.26,2.82813 213.885,3.01563 214.344,3.39063 C214.802,3.76563 215.031,4.27604 215.031,4.92188 C215.031,5.38021 214.901,5.76823 214.641,6.08594 C214.38,6.40365 214.021,6.61979 213.563,6.73438 C214.083,6.84896 214.49,7.08333 214.781,7.4375 C215.073,7.79167 215.219,8.22917 215.219,8.75 C215.219,9.52083 214.982,10.1146 214.508,10.5313 C214.034,10.9479 213.354,11.1563 212.469,11.1563 C211.583,11.1563 210.904,10.9479 210.43,10.5313 C209.956,10.1146 209.719,9.52083 209.719,8.75 C209.719,8.22917 209.865,7.79167 210.156,7.4375 C210.448,7.08333 210.854,6.84896 211.375,6.73438 M210.984,5.01563 C210.984,5.43229 211.115,5.75781 211.375,5.99219 C211.635,6.22656 212,6.34375 212.469,6.34375 C212.927,6.34375 213.289,6.22656 213.555,5.99219 C213.82,5.75781 213.953,5.43229 213.953,5.01563 C213.953,4.59896 213.82,4.27344 213.555,4.03906 C213.289,3.80469 212.927,3.6875 212.469,3.6875 C212,3.6875 211.635,3.80469 211.375,4.03906 C211.115,4.27344 210.984,4.59896 210.984,5.01563 M217.141,2.98438 L221.406,2.98438 L221.406,3.89063 L218.141,3.89063 L218.141,5.85938 C218.297,5.80729 218.453,5.76823 218.609,5.74219 C218.766,5.71615 218.922,5.70313 219.078,5.70313 C219.974,5.70313 220.682,5.94792 221.203,6.4375 C221.724,6.92708 221.984,7.58854 221.984,8.42188 C221.984,9.28646 221.716,9.95833 221.18,10.4375 C220.643,10.9167 219.885,11.1563 218.906,11.1563 C218.573,11.1563 218.232,11.1276 217.883,11.0703 C217.534,11.013 217.172,10.9271 216.797,10.8125 L216.797,9.71875 C217.12,9.89583 217.453,10.0286 217.797,10.1172 C218.141,10.2057 218.505,10.25 218.891,10.25 C219.516,10.25 220.008,10.0859 220.367,9.75781 C220.727,9.42969 220.906,8.98438 220.906,8.42188 C220.906,7.86979 220.727,7.42969 220.367,7.10156 C220.008,6.77344 219.516,6.60938 218.891,6.60938 C218.599,6.60938 218.31,6.64323 218.023,6.71094 C217.737,6.77865 217.443,6.88021 217.141,7.01563 L217.141,2.98438 M227.406,6.67188 C227.927,6.78646 228.333,7.01823 228.625,7.36719 C228.917,7.71615 229.063,8.15104 229.063,8.67188 C229.063,9.46354 228.789,10.0755 228.242,10.5078 C227.695,10.9401 226.922,11.1563 225.922,11.1563 C225.578,11.1563 225.229,11.1224 224.875,11.0547 C224.521,10.987 224.156,10.8906 223.781,10.7656 L223.781,9.70313 C224.083,9.88021 224.411,10.0156 224.766,10.1094 C225.12,10.2031 225.495,10.25 225.891,10.25 C226.568,10.25 227.083,10.1146 227.438,9.84375 C227.792,9.57292 227.969,9.18229 227.969,8.67188 C227.969,8.19271 227.805,7.82031 227.477,7.55469 C227.148,7.28906 226.688,7.15625 226.094,7.15625 L225.156,7.15625 L225.156,6.26563 L226.141,6.26563 C226.672,6.26563 227.078,6.15885 227.359,5.94531 C227.641,5.73177 227.781,5.42708 227.781,5.03125 C227.781,4.61458 227.635,4.29688 227.344,4.07813 C227.052,3.85938 226.635,3.75 226.094,3.75 C225.802,3.75 225.484,3.78125 225.141,3.84375 C224.797,3.90625 224.422,4.00521 224.016,4.14063 L224.016,3.17188 C224.432,3.05729 224.82,2.97135 225.18,2.91406 C225.539,2.85677 225.875,2.82813 226.188,2.82813 C227.01,2.82813 227.664,3.01563 228.148,3.39063 C228.633,3.76563 228.875,4.27604 228.875,4.92188 C228.875,5.35938 228.747,5.73177 228.492,6.03906 C228.237,6.34635 227.875,6.55729 227.406,6.67188 M231.109,2.98438 L235.375,2.98438 L235.375,3.89063 L232.109,3.89063 L232.109,5.85938 C232.266,5.80729 232.422,5.76823 232.578,5.74219 C232.734,5.71615 232.891,5.70313 233.047,5.70313 C233.943,5.70313 234.651,5.94792 235.172,6.4375 C235.693,6.92708 235.953,7.58854 235.953,8.42188 C235.953,9.28646 235.685,9.95833 235.148,10.4375 C234.612,10.9167 233.854,11.1563 232.875,11.1563 C232.542,11.1563 232.201,11.1276 231.852,11.0703 C231.503,11.013 231.141,10.9271 230.766,10.8125 L230.766,9.71875 C231.089,9.89583 231.422,10.0286 231.766,10.1172 C232.109,10.2057 232.474,10.25 232.859,10.25 C233.484,10.25 233.977,10.0859 234.336,9.75781 C234.695,9.42969 234.875,8.98438 234.875,8.42188 C234.875,7.86979 234.695,7.42969 234.336,7.10156 C233.977,6.77344 233.484,6.60938 232.859,6.60938 C232.568,6.60938 232.279,6.64323 231.992,6.71094 C231.706,6.77865 231.411,6.88021 231.109,7.01563 L231.109,2.98438 M241.063,3.92188 L238.328,8.20313 L241.063,8.20313 L241.063,3.92188 M240.781,2.98438 L242.141,2.98438 L242.141,8.20313 L243.281,8.20313 L243.281,9.10938 L242.141,9.10938 L242.141,11 L241.063,11 L241.063,9.10938 L237.438,9.10938 L237.438,8.0625 L240.781,2.98438 M245.25,10.0938 L247.031,10.0938 L247.031,3.96875 L245.094,4.35938 L245.094,3.375 L247.016,2.98438 L248.109,2.98438 L248.109,10.0938 L249.875,10.0938 L249.875,11 L245.25,11 L245.25,10.0938 M252.234,10.0938 L254.016,10.0938 L254.016,3.96875 L252.078,4.35938 L252.078,3.375 L254,2.98438 L255.094,2.98438 L255.094,10.0938 L256.859,10.0938 L256.859,11 L252.234,11 L252.234,10.0938 M261.484,6.5625 C261.005,6.5625 260.622,6.72917 260.336,7.0625 C260.049,7.39583 259.906,7.84896 259.906,8.42188 C259.906,9.00521 260.049,9.46354 260.336,9.79688 C260.622,10.1302 261.005,10.2969 261.484,10.2969 C261.974,10.2969 262.362,10.1302 262.648,9.79688 C262.935,9.46354 263.078,9.00521 263.078,8.42188 C263.078,7.84896 262.935,7.39583 262.648,7.0625 C262.362,6.72917 261.974,6.5625 261.484,6.5625 M263.641,3.15625 L263.641,4.14063 C263.37,4.01563 263.096,3.91927 262.82,3.85156 C262.544,3.78385 262.271,3.75 262,3.75 C261.281,3.75 260.732,3.99219 260.352,4.47656 C259.971,4.96094 259.755,5.69271 259.703,6.67188 C259.922,6.35938 260.19,6.11979 260.508,5.95313 C260.826,5.78646 261.177,5.70313 261.563,5.70313 C262.365,5.70313 263,5.94792 263.469,6.4375 C263.938,6.92708 264.172,7.58854 264.172,8.42188 C264.172,9.24479 263.927,9.90625 263.438,10.4063 C262.948,10.9063 262.297,11.1563 261.484,11.1563 C260.557,11.1563 259.849,10.7995 259.359,10.0859 C258.87,9.3724 258.625,8.34375 258.625,7 C258.625,5.72917 258.927,4.71615 259.531,3.96094 C260.135,3.20573 260.943,2.82813 261.953,2.82813 C262.224,2.82813 262.497,2.85677 262.773,2.91406 C263.049,2.97135 263.339,3.05208 263.641,3.15625 M268.469,6.5625 C267.99,6.5625 267.607,6.72917 267.32,7.0625 C267.034,7.39583 266.891,7.84896 266.891,8.42188 C266.891,9.00521 267.034,9.46354 267.32,9.79688 C267.607,10.1302 267.99,10.2969 268.469,10.2969 C268.958,10.2969 269.346,10.1302 269.633,9.79688 C269.919,9.46354 270.063,9.00521 270.063,8.42188 C270.063,7.84896 269.919,7.39583 269.633,7.0625 C269.346,6.72917 268.958,6.5625 268.469,6.5625 M270.625,3.15625 L270.625,4.14063 C270.354,4.01563 270.081,3.91927 269.805,3.85156 C269.529,3.78385 269.255,3.75 268.984,3.75 C268.266,3.75 267.716,3.99219 267.336,4.47656 C266.956,4.96094 266.74,5.69271 266.688,6.67188 C266.906,6.35938 267.174,6.11979 267.492,5.95313 C267.81,5.78646 268.161,5.70313 268.547,5.70313 C269.349,5.70313 269.984,5.94792 270.453,6.4375 C270.922,6.92708 271.156,7.58854 271.156,8.42188 C271.156,9.24479 270.911,9.90625 270.422,10.4063 C269.932,10.9063 269.281,11.1563 268.469,11.1563 C267.542,11.1563 266.833,10.7995 266.344,10.0859 C265.854,9.3724 265.609,8.34375 265.609,7 C265.609,5.72917 265.911,4.71615 266.516,3.96094 C267.12,3.20573 267.927,2.82813 268.938,2.82813 C269.208,2.82813 269.482,2.85677 269.758,2.91406 C270.034,2.97135 270.323,3.05208 270.625,3.15625 M275.453,6.5625 C274.974,6.5625 274.591,6.72917 274.305,7.0625 C274.018,7.39583 273.875,7.84896 273.875,8.42188 C273.875,9.00521 274.018,9.46354 274.305,9.79688 C274.591,10.1302 274.974,10.2969 275.453,10.2969 C275.943,10.2969 276.331,10.1302 276.617,9.79688 C276.904,9.46354 277.047,9.00521 277.047,8.42188 C277.047,7.84896 276.904,7.39583 276.617,7.0625 C276.331,6.72917 275.943,6.5625 275.453,6.5625 M277.609,3.15625 L277.609,4.14063 C277.339,4.01563 277.065,3.91927 276.789,3.85156 C276.513,3.78385 276.24,3.75 275.969,3.75 C275.25,3.75 274.701,3.99219 274.32,4.47656 C273.94,4.96094 273.724,5.69271 273.672,6.67188 C273.891,6.35938 274.159,6.11979 274.477,5.95313 C274.794,5.78646 275.146,5.70313 275.531,5.70313 C276.333,5.70313 276.969,5.94792 277.438,6.4375 C277.906,6.92708 278.141,7.58854 278.141,8.42188 C278.141,9.24479 277.896,9.90625 277.406,10.4063 C276.917,10.9063 276.266,11.1563 275.453,11.1563 C274.526,11.1563 273.818,10.7995 273.328,10.0859 C272.839,9.3724 272.594,8.34375 272.594,7 C272.594,5.72917 272.896,4.71615 273.5,3.96094 C274.104,3.20573 274.911,2.82813 275.922,2.82813 C276.193,2.82813 276.466,2.85677 276.742,2.91406 C277.018,2.97135 277.307,3.05208 277.609,3.15625 M282.969,3.92188 L280.234,8.20313 L282.969,8.20313 L282.969,3.92188 M282.688,2.98438 L284.047,2.98438 L284.047,8.20313 L285.188,8.20313 L285.188,9.10938 L284.047,9.10938 L284.047,11 L282.969,11 L282.969,9.10938 L279.344,9.10938 L279.344,8.0625 L282.688,2.98438"/>
</g>

<g fill="none" stroke="#000000" stroke-opacity="1" stroke-width="1" stroke-linecap="square" stroke-linejoin="bevel" transform="matrix(2,0,0,2,214.661,22)"
font-family="sans" font-size="11" font-weight="100" font-style="normal" 
>
</g>

<g fill="none" stroke="#000000" stroke-opacity="1" stroke-width="1" stroke-linecap="square" stroke-linejoin="bevel" transform="matrix(2,0,0,2,214.661,22)"
font-family="Ubuntu" font-size="11" font-weight="400" font-style="normal" 
>
</g>

<g fill="none" stroke="#000000" stroke-opacity="1" stroke-width="1" stroke-linecap="square" stroke-linejoin="bevel" transform="matrix(2,0,0,2,-0.0024,72)"
font-family="Ubuntu" font-size="11" font-weight="400" font-style="normal" 
>
</g>

<g fill="none" stroke="#000000" stroke-opacity="1" stroke-width="1" stroke-linecap="square" stroke-linejoin="bevel" transform="matrix(2,0,0,2,-0.0024,72)"
font-family="Ubuntu" font-size="11" font-weight="400" font-style="normal" 
>
</g>

<g fill="none" stroke="#000000" stroke-opacity="1" stroke-width="1" stroke-linecap="square" stroke-linejoin="bevel" transform="matrix(2,0,0,2,-0.0024,72)"
font-family="Ubuntu" font-size="11" font-weight="400" font-style="normal" 
>
</g>

<g fill="none" stroke="#000000" stroke-opacity="1" stroke-width="1" stroke-linecap="square" stroke-linejoin="round" transform="matrix(2,0,0,2,-0.0024,72)"
font-family="Ubuntu" font-size="11" font-weight="400" font-style="normal" 
>
<path vector-effect="none" fill-rule="evenodd" d="M650.53,-18 C651.79,-18 653.07,-18 654.35,-18 "/>
</g>

<g fill="none" stroke="#000000" stroke-opacity="1" stroke-width="1" stroke-linecap="square" stroke-linejoin="bevel" transform="matrix(2,0,0,2,-0.0024,72)"
font-family="Ubuntu" font-size="11" font-weight="400" font-style="normal" 
>
</g>

<g fill="none" stroke="#000000" stroke-opacity="1" stroke-width="1" stroke-linecap="square" stroke-linejoin="bevel" transform="matrix(2,0,0,2,-0.0024,72)"
font-family="Ubuntu" font-size="11" font-weight="400" font-style="normal" 
>
</g>

<g fill="#000000" fill-opacity="1" stroke="#000000" stroke-opacity="1" stroke-width="1" stroke-linecap="square" stroke-linejoin="round" transform="matrix(2,0,0,2,-0.0024,72)"
font-family="Ubuntu" font-size="11" font-weight="400" font-style="normal" 
>
<path vector-effect="none" fill-rule="evenodd" d="M654.35,-18 L654.35,-14.4685 L664.44,-18 L654.35,-21.5315 L654.35,-18"/>
</g>

<g fill="none" stroke="#000000" stroke-opacity="1" stroke-width="1" stroke-linecap="square" stroke-linejoin="bevel" transform="matrix(2,0,0,2,-0.0024,72)"
font-family="Ubuntu" font-size="11" font-weight="400" font-style="normal" 
>
</g>

<g fill="none" stroke="#000000" stroke-opacity="1" stroke-width="1" stroke-linecap="square" stroke-linejoin="bevel" transform="matrix(2,0,0,2,-0.0024,72)"
font-family="Ubuntu" font-size="11" font-weight="400" font-style="normal" 
>
</g>

<g fill="none" stroke="#000000" stroke-opacity="1" stroke-width="1" stroke-linecap="square" stroke-linejoin="bevel" transform="matrix(2,0,0,2,-0.0024,72)"
font-family="Ubuntu" font-size="11" font-weight="400" font-style="normal" 
>
</g>

<g fill="none" stroke="#000000" stroke-opacity="1" stroke-width="1" stroke-linecap="square" stroke-linejoin="bevel" transform="matrix(2,0,0,2,-0.0024,72)"
font-family="Ubuntu" font-size="11" font-weight="400" font-style="normal" 
>
</g>

<g fill="none" stroke="#000000" stroke-opacity="1" stroke-width="1" stroke-linecap="square" stroke-linejoin="round" transform="matrix(2,0,0,2,-0.0024,72)"
font-family="Ubuntu" font-size="11" font-weight="400" font-style="normal" 
>
<path vector-effect="none" fill-rule="evenodd" d="M500.67,-18 C501.85,-18 503.03,-18 504.19,-18 "/>
</g>

<g fill="none" stroke="#000000" stroke-opacity="1" stroke-width="1" stroke-linecap="square" stroke-linejoin="bevel" transform="matrix(2,0,0,2,-0.0024,72)"
font-family="Ubuntu" font-size="11" font-weight="400" font-style="normal" 
>
</g>

<g fill="none" stroke="#000000" stroke-opacity="1" stroke-width="1" stroke-linecap="square" stroke-linejoin="bevel" transform="matrix(2,0,0,2,-0.0024,72)"
font-family="Ubuntu" font-size="11" font-weight="400" font-style="normal" 
>
</g>

<g fill="#000000" fill-opacity="1" stroke="#000000" stroke-opacity="1" stroke-width="1" stroke-linecap="square" stroke-linejoin="round" transform="matrix(2,0,0,2,-0.0024,72)"
font-family="Ubuntu" font-size="11" font-weight="400" font-style="normal" 
>
<path vector-effect="none" fill-rule="evenodd" d="M504.19,-18 L504.19,-14.4125 L514.44,-18 L504.19,-21.5875 L504.19,-18"/>
</g>

<g fill="none" stroke="#000000" stroke-opacity="1" stroke-width="1" stroke-linecap="square" stroke-linejoin="bevel" transform="matrix(2,0,0,2,-0.0024,72)"
font-family="Ubuntu" font-size="11" font-weight="400" font-style="normal" 
>
</g>

<g fill="none" stroke="#000000" stroke-opacity="1" stroke-width="1" stroke-linecap="square" stroke-linejoin="bevel" transform="matrix(1,0,0,1,0,0)"
font-family="Ubuntu" font-size="11" font-weight="400" font-style="normal" 
>
</g>
</g>
</svg>
